G04 start of page 9 for group -4078 idx -4078 *
G04 Title: (unknown), bottomsilk *
G04 Creator: pcb 20110918 *
G04 CreationDate: Tue Jan 20 20:48:38 2015 UTC *
G04 For: fosse *
G04 Format: Gerber/RS-274X *
G04 PCB-Dimensions: 600000 500000 *
G04 PCB-Coordinate-Origin: lower left *
%MOIN*%
%FSLAX25Y25*%
%LNBOTTOMSILK*%
%ADD43C,0.0100*%
G54D43*X410000Y201000D02*X413000D01*
X410000D02*X409000Y200300D01*
Y199200D02*Y200300D01*
Y199200D02*X410000Y198500D01*
X413000D01*
X411000D02*Y201000D01*
X409800Y197300D02*X409000Y196500D01*
X413000D01*
Y195800D02*Y197300D01*
X419000Y199000D02*X419500Y198500D01*
X419000Y199000D02*Y200500D01*
X419500Y201000D02*X419000Y200500D01*
X419500Y201000D02*X420500D01*
X421000Y200500D01*
Y199000D02*Y200500D01*
Y199000D02*X421500Y198500D01*
X422500D01*
X423000Y199000D02*X422500Y198500D01*
X423000Y199000D02*Y200500D01*
X422500Y201000D02*X423000Y200500D01*
X419000Y197300D02*X421000Y196300D01*
X419000Y195300D01*
X421000Y196300D02*X423000D01*
X419000Y194100D02*X423000D01*
X419000D02*X423000Y191600D01*
X419000D02*X423000D01*
Y188400D02*Y189700D01*
X422300Y190400D02*X423000Y189700D01*
X419700Y190400D02*X422300D01*
X419700D02*X419000Y189700D01*
Y188400D02*Y189700D01*
Y187200D02*X423000D01*
X419000D02*X423000Y184700D01*
X419000D02*X423000D01*
X379000Y200000D02*Y201000D01*
Y200500D02*X383000D01*
Y200000D02*Y201000D01*
X379000Y198800D02*X383000D01*
X379000D02*X383000Y196300D01*
X379000D02*X383000D01*
X379000Y193100D02*Y195100D01*
Y194100D02*X383000D01*
X379500Y191900D02*X379000Y191400D01*
Y190400D02*Y191400D01*
Y190400D02*X379500Y189900D01*
X383000Y190400D02*X382500Y189900D01*
X383000Y190400D02*Y191400D01*
X382500Y191900D02*X383000Y191400D01*
X380800Y190400D02*Y191400D01*
X379500Y189900D02*X380300D01*
X381300D02*X382500D01*
X381300D02*X380800Y190400D01*
X380300Y189900D02*X380800Y190400D01*
X390000Y201000D02*X393000D01*
X390000D02*X389000Y200300D01*
Y199200D02*Y200300D01*
Y199200D02*X390000Y198500D01*
X393000D01*
X391000D02*Y201000D01*
X391500Y197300D02*X389000Y195300D01*
X391500Y194800D02*Y197300D01*
X389000Y195300D02*X393000D01*
X400000Y201000D02*X403000D01*
X400000D02*X399000Y200300D01*
Y199200D02*Y200300D01*
Y199200D02*X400000Y198500D01*
X403000D01*
X401000D02*Y201000D01*
X399500Y197300D02*X399000Y196800D01*
Y195800D02*Y196800D01*
Y195800D02*X399500Y195300D01*
X403000Y195800D02*X402500Y195300D01*
X403000Y195800D02*Y196800D01*
X402500Y197300D02*X403000Y196800D01*
X400800Y195800D02*Y196800D01*
X399500Y195300D02*X400300D01*
X401300D02*X402500D01*
X401300D02*X400800Y195800D01*
X400300Y195300D02*X400800Y195800D01*
X429000Y199000D02*X429500Y198500D01*
X429000Y199000D02*Y200500D01*
X429500Y201000D02*X429000Y200500D01*
X429500Y201000D02*X432500D01*
X433000Y200500D01*
Y199000D02*Y200500D01*
Y199000D02*X432500Y198500D01*
X431500D02*X432500D01*
X431000Y199000D02*X431500Y198500D01*
X431000Y199000D02*Y200000D01*
X429000Y197300D02*X433000D01*
X429000D02*X433000Y194800D01*
X429000D02*X433000D01*
X429000Y193100D02*X433000D01*
X429000Y191800D02*X429700Y191100D01*
X432300D01*
X433000Y191800D02*X432300Y191100D01*
X433000Y191800D02*Y193600D01*
X429000Y191800D02*Y193600D01*
Y189400D02*X433000D01*
X429000Y188100D02*X429700Y187400D01*
X432300D01*
X433000Y188100D02*X432300Y187400D01*
X433000Y188100D02*Y189900D01*
X429000Y188100D02*Y189900D01*
X410000Y241500D02*X413000D01*
X410000D02*X409000Y240800D01*
Y239700D02*Y240800D01*
Y239700D02*X410000Y239000D01*
X413000D01*
X411000D02*Y241500D01*
X412500Y237800D02*X413000Y237300D01*
X409500Y237800D02*X412500D01*
X409500D02*X409000Y237300D01*
Y236300D02*Y237300D01*
Y236300D02*X409500Y235800D01*
X412500D01*
X413000Y236300D02*X412500Y235800D01*
X413000Y236300D02*Y237300D01*
X412000Y237800D02*X410000Y235800D01*
X400000Y241500D02*X403000D01*
X400000D02*X399000Y240800D01*
Y239700D02*Y240800D01*
Y239700D02*X400000Y239000D01*
X403000D01*
X401000D02*Y241500D01*
X399500Y237800D02*X399000Y237300D01*
Y235800D02*Y237300D01*
Y235800D02*X399500Y235300D01*
X400500D01*
X403000Y237800D02*X400500Y235300D01*
X403000D02*Y237800D01*
X389000Y240500D02*Y241500D01*
Y241000D02*X393000D01*
Y240500D02*Y241500D01*
X389000Y239300D02*X393000D01*
X389000D02*X393000Y236800D01*
X389000D02*X393000D01*
X389000Y233600D02*Y235600D01*
Y234600D02*X393000D01*
X391500Y232400D02*X389000Y230400D01*
X391500Y229900D02*Y232400D01*
X389000Y230400D02*X393000D01*
X419000Y239500D02*X419500Y239000D01*
X419000Y239500D02*Y241000D01*
X419500Y241500D02*X419000Y241000D01*
X419500Y241500D02*X420500D01*
X421000Y241000D01*
Y239500D02*Y241000D01*
Y239500D02*X421500Y239000D01*
X422500D01*
X423000Y239500D02*X422500Y239000D01*
X423000Y239500D02*Y241000D01*
X422500Y241500D02*X423000Y241000D01*
X419000Y237800D02*X421000Y236800D01*
X419000Y235800D01*
X421000Y236800D02*X423000D01*
X419000Y234600D02*X423000D01*
X419000D02*X423000Y232100D01*
X419000D02*X423000D01*
Y228900D02*Y230200D01*
X422300Y230900D02*X423000Y230200D01*
X419700Y230900D02*X422300D01*
X419700D02*X419000Y230200D01*
Y228900D02*Y230200D01*
Y227200D02*X423000D01*
X419000Y225700D02*Y227700D01*
Y225700D02*X419500Y225200D01*
X420500D01*
X421000Y225700D02*X420500Y225200D01*
X421000Y225700D02*Y227200D01*
X429000Y239500D02*X429500Y239000D01*
X429000Y239500D02*Y241000D01*
X429500Y241500D02*X429000Y241000D01*
X429500Y241500D02*X432500D01*
X433000Y241000D01*
Y239500D02*Y241000D01*
Y239500D02*X432500Y239000D01*
X431500D02*X432500D01*
X431000Y239500D02*X431500Y239000D01*
X431000Y239500D02*Y240500D01*
X429000Y237800D02*X433000D01*
X429000D02*X433000Y235300D01*
X429000D02*X433000D01*
X429000Y233600D02*X433000D01*
X429000Y232300D02*X429700Y231600D01*
X432300D01*
X433000Y232300D02*X432300Y231600D01*
X433000Y232300D02*Y234100D01*
X429000Y232300D02*Y234100D01*
Y229900D02*X433000D01*
X429000Y228600D02*X429700Y227900D01*
X432300D01*
X433000Y228600D02*X432300Y227900D01*
X433000Y228600D02*Y230400D01*
X429000Y228600D02*Y230400D01*
X369000Y200000D02*Y201000D01*
Y200500D02*X373000D01*
Y200000D02*Y201000D01*
X369000Y198800D02*X373000D01*
X369000D02*X373000Y196300D01*
X369000D02*X373000D01*
X369000Y193100D02*Y195100D01*
Y194100D02*X373000D01*
X369800Y191900D02*X369000Y191100D01*
X373000D01*
Y190400D02*Y191900D01*
X359000Y200500D02*X363000D01*
X359000Y199200D02*X359700Y198500D01*
X362300D01*
X363000Y199200D02*X362300Y198500D01*
X363000Y199200D02*Y201000D01*
X359000Y199200D02*Y201000D01*
X363000Y196800D02*X359000Y194800D01*
Y197300D01*
Y241000D02*X363000D01*
X359000Y239700D02*X359700Y239000D01*
X362300D01*
X363000Y239700D02*X362300Y239000D01*
X363000Y239700D02*Y241500D01*
X359000Y239700D02*Y241500D01*
Y236300D02*X359500Y235800D01*
X359000Y236300D02*Y237300D01*
X359500Y237800D02*X359000Y237300D01*
X359500Y237800D02*X362500D01*
X363000Y237300D01*
X360800Y236300D02*X361300Y235800D01*
X360800Y236300D02*Y237800D01*
X363000Y236300D02*Y237300D01*
Y236300D02*X362500Y235800D01*
X361300D02*X362500D01*
X349000Y241000D02*X353000D01*
X349000Y239700D02*X349700Y239000D01*
X352300D01*
X353000Y239700D02*X352300Y239000D01*
X353000Y239700D02*Y241500D01*
X349000Y239700D02*Y241500D01*
X351500Y237800D02*X349000Y235800D01*
X351500Y235300D02*Y237800D01*
X349000Y235800D02*X353000D01*
X339000Y241000D02*X343000D01*
X339000Y239700D02*X339700Y239000D01*
X342300D01*
X343000Y239700D02*X342300Y239000D01*
X343000Y239700D02*Y241500D01*
X339000Y239700D02*Y241500D01*
X339500Y237800D02*X339000Y237300D01*
Y235800D02*Y237300D01*
Y235800D02*X339500Y235300D01*
X340500D01*
X343000Y237800D02*X340500Y235300D01*
X343000D02*Y237800D01*
X379000Y240500D02*Y241500D01*
Y241000D02*X383000D01*
Y240500D02*Y241500D01*
X379000Y239300D02*X383000D01*
X379000D02*X383000Y236800D01*
X379000D02*X383000D01*
X379000Y233600D02*Y235600D01*
Y234600D02*X383000D01*
X379500Y232400D02*X379000Y231900D01*
Y230400D02*Y231900D01*
Y230400D02*X379500Y229900D01*
X380500D01*
X383000Y232400D02*X380500Y229900D01*
X383000D02*Y232400D01*
X369000Y240500D02*Y241500D01*
Y241000D02*X373000D01*
Y240500D02*Y241500D01*
X369000Y239300D02*X373000D01*
X369000D02*X373000Y236800D01*
X369000D02*X373000D01*
X369000Y233600D02*Y235600D01*
Y234600D02*X373000D01*
X372500Y232400D02*X373000Y231900D01*
X369500Y232400D02*X372500D01*
X369500D02*X369000Y231900D01*
Y230900D02*Y231900D01*
Y230900D02*X369500Y230400D01*
X372500D01*
X373000Y230900D02*X372500Y230400D01*
X373000Y230900D02*Y231900D01*
X372000Y232400D02*X370000Y230400D01*
X449500Y237500D02*Y238500D01*
Y238000D02*X453500D01*
Y237500D02*Y238500D01*
X452000Y235800D02*X453500D01*
X452000D02*X451500Y235300D01*
Y234800D02*Y235300D01*
Y234800D02*X452000Y234300D01*
X453500D01*
X451500Y236300D02*X452000Y235800D01*
X449500Y232600D02*X453000D01*
X453500Y232100D01*
X451000D02*Y233100D01*
X453500Y229100D02*Y230600D01*
X453000Y231100D02*X453500Y230600D01*
X452000Y231100D02*X453000D01*
X452000D02*X451500Y230600D01*
Y229600D02*Y230600D01*
Y229600D02*X452000Y229100D01*
X452500D02*Y231100D01*
X452000Y229100D02*X452500D01*
X452000Y227400D02*X453500D01*
X452000D02*X451500Y226900D01*
Y226400D02*Y226900D01*
Y226400D02*X452000Y225900D01*
X453500D01*
X451500Y227900D02*X452000Y227400D01*
X453500Y222700D02*Y224200D01*
Y222700D02*X453000Y222200D01*
X452500Y222700D02*X453000Y222200D01*
X452500Y222700D02*Y224200D01*
X452000Y224700D02*X452500Y224200D01*
X452000Y224700D02*X451500Y224200D01*
Y222700D02*Y224200D01*
Y222700D02*X452000Y222200D01*
X453000Y224700D02*X453500Y224200D01*
Y219000D02*Y220500D01*
X453000Y221000D02*X453500Y220500D01*
X452000Y221000D02*X453000D01*
X452000D02*X451500Y220500D01*
Y219500D02*Y220500D01*
Y219500D02*X452000Y219000D01*
X452500D02*Y221000D01*
X452000Y219000D02*X452500D01*
X450500Y216000D02*X450600D01*
X452000D02*X453500D01*
X449500Y214500D02*X453000D01*
X453500Y214000D01*
X451000D02*Y215000D01*
X453500Y211000D02*Y212500D01*
X453000Y213000D02*X453500Y212500D01*
X452000Y213000D02*X453000D01*
X452000D02*X451500Y212500D01*
Y211500D02*Y212500D01*
Y211500D02*X452000Y211000D01*
X452500D02*Y213000D01*
X452000Y211000D02*X452500D01*
X452000Y209300D02*X453500D01*
X452000D02*X451500Y208800D01*
Y207800D02*Y208800D01*
Y209800D02*X452000Y209300D01*
X451500Y205100D02*X452000Y204600D01*
X451500Y205100D02*Y206100D01*
X452000Y206600D02*X451500Y206100D01*
X452000Y206600D02*X453000D01*
X453500Y206100D01*
X451500Y204600D02*X453000D01*
X453500Y204100D01*
Y205100D02*Y206100D01*
Y205100D02*X453000Y204600D01*
X449500Y202400D02*X453000D01*
X453500Y201900D01*
X451000D02*Y202900D01*
X450500Y200900D02*X450600D01*
X452000D02*X453500D01*
X452000Y199900D02*X453000D01*
X452000D02*X451500Y199400D01*
Y198400D02*Y199400D01*
Y198400D02*X452000Y197900D01*
X453000D01*
X453500Y198400D02*X453000Y197900D01*
X453500Y198400D02*Y199400D01*
X453000Y199900D02*X453500Y199400D01*
X452000Y196200D02*X453500D01*
X452000D02*X451500Y195700D01*
Y195200D02*Y195700D01*
Y195200D02*X452000Y194700D01*
X453500D01*
X451500Y196700D02*X452000Y196200D01*
X450500Y191700D02*X450600D01*
X452000D02*X453500D01*
Y188700D02*Y190200D01*
Y188700D02*X453000Y188200D01*
X452500Y188700D02*X453000Y188200D01*
X452500Y188700D02*Y190200D01*
X452000Y190700D02*X452500Y190200D01*
X452000Y190700D02*X451500Y190200D01*
Y188700D02*Y190200D01*
Y188700D02*X452000Y188200D01*
X453000Y190700D02*X453500Y190200D01*
X457500Y238000D02*X457600D01*
X459000D02*X460500D01*
X459000Y236500D02*X460500D01*
X459000D02*X458500Y236000D01*
Y235500D02*Y236000D01*
Y235500D02*X459000Y235000D01*
X460500D01*
X458500Y237000D02*X459000Y236500D01*
X456500Y231800D02*X460500D01*
Y232300D02*X460000Y231800D01*
X460500Y232300D02*Y233300D01*
X460000Y233800D02*X460500Y233300D01*
X459000Y233800D02*X460000D01*
X459000D02*X458500Y233300D01*
Y232300D02*Y233300D01*
Y232300D02*X459000Y231800D01*
X457500Y230600D02*X457600D01*
X459000D02*X460500D01*
Y227600D02*Y229100D01*
Y227600D02*X460000Y227100D01*
X459500Y227600D02*X460000Y227100D01*
X459500Y227600D02*Y229100D01*
X459000Y229600D02*X459500Y229100D01*
X459000Y229600D02*X458500Y229100D01*
Y227600D02*Y229100D01*
Y227600D02*X459000Y227100D01*
X460000Y229600D02*X460500Y229100D01*
X456500Y225400D02*X460000D01*
X460500Y224900D01*
X458000D02*Y225900D01*
X457500Y223900D02*X457600D01*
X459000D02*X460500D01*
X459000Y222400D02*X460500D01*
X459000D02*X458500Y221900D01*
Y221400D02*Y221900D01*
Y221400D02*X459000Y220900D01*
X460500D01*
X458500Y222900D02*X459000Y222400D01*
X458500Y218200D02*X459000Y217700D01*
X458500Y218200D02*Y219200D01*
X459000Y219700D02*X458500Y219200D01*
X459000Y219700D02*X460000D01*
X460500Y219200D01*
Y218200D02*Y219200D01*
Y218200D02*X460000Y217700D01*
X461500Y219700D02*X462000Y219200D01*
Y218200D02*Y219200D01*
Y218200D02*X461500Y217700D01*
X458500D02*X461500D01*
X458500Y216500D02*X460000D01*
X460500Y216000D01*
Y215000D02*Y216000D01*
Y215000D02*X460000Y214500D01*
X458500D02*X460000D01*
X457500Y213300D02*X457600D01*
X459000D02*X460500D01*
Y210300D02*Y211800D01*
Y210300D02*X460000Y209800D01*
X459500Y210300D02*X460000Y209800D01*
X459500Y210300D02*Y211800D01*
X459000Y212300D02*X459500Y211800D01*
X459000Y212300D02*X458500Y211800D01*
Y210300D02*Y211800D01*
Y210300D02*X459000Y209800D01*
X460000Y212300D02*X460500Y211800D01*
X456500Y208600D02*X460500D01*
X459000D02*X458500Y208100D01*
Y207100D02*Y208100D01*
Y207100D02*X459000Y206600D01*
X460500D01*
X458500Y203900D02*X459000Y203400D01*
X458500Y203900D02*Y204900D01*
X459000Y205400D02*X458500Y204900D01*
X459000Y205400D02*X460000D01*
X460500Y204900D01*
X458500Y203400D02*X460000D01*
X460500Y202900D01*
Y203900D02*Y204900D01*
Y203900D02*X460000Y203400D01*
X456500Y201700D02*X460500D01*
X460000D02*X460500Y201200D01*
Y200200D02*Y201200D01*
Y200200D02*X460000Y199700D01*
X459000D02*X460000D01*
X458500Y200200D02*X459000Y199700D01*
X458500Y200200D02*Y201200D01*
X459000Y201700D02*X458500Y201200D01*
X456500Y198500D02*X460000D01*
X460500Y198000D01*
Y195000D02*Y196500D01*
X460000Y197000D02*X460500Y196500D01*
X459000Y197000D02*X460000D01*
X459000D02*X458500Y196500D01*
Y195500D02*Y196500D01*
Y195500D02*X459000Y195000D01*
X459500D02*Y197000D01*
X459000Y195000D02*X459500D01*
X463500Y237500D02*X467000D01*
X463500D02*X463000Y237000D01*
Y236500D02*Y237000D01*
X465000D02*Y238000D01*
X465500Y235000D02*X467000D01*
X465500D02*X465000Y234500D01*
Y233500D02*Y234500D01*
Y235500D02*X465500Y235000D01*
Y232300D02*X466500D01*
X465500D02*X465000Y231800D01*
Y230800D02*Y231800D01*
Y230800D02*X465500Y230300D01*
X466500D01*
X467000Y230800D02*X466500Y230300D01*
X467000Y230800D02*Y231800D01*
X466500Y232300D02*X467000Y231800D01*
X465500Y228600D02*X467000D01*
X465500D02*X465000Y228100D01*
Y227600D02*Y228100D01*
Y227600D02*X465500Y227100D01*
X467000D01*
X465500D02*X465000Y226600D01*
Y226100D02*Y226600D01*
Y226100D02*X465500Y225600D01*
X467000D01*
X465000Y229100D02*X465500Y228600D01*
X463000Y220600D02*X467000D01*
Y221100D02*X466500Y220600D01*
X467000Y221100D02*Y222100D01*
X466500Y222600D02*X467000Y222100D01*
X465500Y222600D02*X466500D01*
X465500D02*X465000Y222100D01*
Y221100D02*Y222100D01*
Y221100D02*X465500Y220600D01*
X465000Y219400D02*X466500D01*
X467000Y218900D01*
Y217900D02*Y218900D01*
Y217900D02*X466500Y217400D01*
X465000D02*X466500D01*
X465500Y215700D02*X467000D01*
X465500D02*X465000Y215200D01*
Y214700D02*Y215200D01*
Y214700D02*X465500Y214200D01*
X467000D01*
X465500D02*X465000Y213700D01*
Y213200D02*Y213700D01*
Y213200D02*X465500Y212700D01*
X467000D01*
X465000Y216200D02*X465500Y215700D01*
X463000Y211500D02*X467000D01*
X466500D02*X467000Y211000D01*
Y210000D02*Y211000D01*
Y210000D02*X466500Y209500D01*
X465500D02*X466500D01*
X465000Y210000D02*X465500Y209500D01*
X465000Y210000D02*Y211000D01*
X465500Y211500D02*X465000Y211000D01*
Y205000D02*X465500Y204500D01*
X465000Y205000D02*Y206000D01*
X465500Y206500D02*X465000Y206000D01*
X465500Y206500D02*X466500D01*
X467000Y206000D01*
Y205000D02*Y206000D01*
Y205000D02*X466500Y204500D01*
X468000Y206500D02*X468500Y206000D01*
Y205000D02*Y206000D01*
Y205000D02*X468000Y204500D01*
X465000D02*X468000D01*
X465000Y203300D02*X466500D01*
X467000Y202800D01*
Y201800D02*Y202800D01*
Y201800D02*X466500Y201300D01*
X465000D02*X466500D01*
X467000Y198100D02*Y199600D01*
X466500Y200100D02*X467000Y199600D01*
X465500Y200100D02*X466500D01*
X465500D02*X465000Y199600D01*
Y198600D02*Y199600D01*
Y198600D02*X465500Y198100D01*
X466000D02*Y200100D01*
X465500Y198100D02*X466000D01*
X467000Y194900D02*Y196400D01*
Y194900D02*X466500Y194400D01*
X466000Y194900D02*X466500Y194400D01*
X466000Y194900D02*Y196400D01*
X465500Y196900D02*X466000Y196400D01*
X465500Y196900D02*X465000Y196400D01*
Y194900D02*Y196400D01*
Y194900D02*X465500Y194400D01*
X466500Y196900D02*X467000Y196400D01*
Y191200D02*Y192700D01*
Y191200D02*X466500Y190700D01*
X466000Y191200D02*X466500Y190700D01*
X466000Y191200D02*Y192700D01*
X465500Y193200D02*X466000Y192700D01*
X465500Y193200D02*X465000Y192700D01*
Y191200D02*Y192700D01*
Y191200D02*X465500Y190700D01*
X466500Y193200D02*X467000Y192700D01*
X471500Y237500D02*X473000D01*
X473500Y237000D01*
Y236500D02*Y237000D01*
Y236500D02*X473000Y236000D01*
X471500D02*X473000D01*
X473500Y235500D01*
Y235000D02*Y235500D01*
Y235000D02*X473000Y234500D01*
X471500D02*X473000D01*
X472000Y233300D02*X473000D01*
X472000D02*X471500Y232800D01*
Y231800D02*Y232800D01*
Y231800D02*X472000Y231300D01*
X473000D01*
X473500Y231800D02*X473000Y231300D01*
X473500Y231800D02*Y232800D01*
X473000Y233300D02*X473500Y232800D01*
X472000Y229600D02*X473500D01*
X472000D02*X471500Y229100D01*
Y228100D02*Y229100D01*
Y230100D02*X472000Y229600D01*
X469500Y226900D02*X473500D01*
X472000D02*X473500Y225400D01*
X472000Y226900D02*X471000Y225900D01*
X319000Y199000D02*Y201000D01*
Y199000D02*X319500Y198500D01*
X320500D01*
X321000Y199000D02*X320500Y198500D01*
X321000Y199000D02*Y200500D01*
X319000D02*X323000D01*
X321000Y199700D02*X323000Y198500D01*
Y197300D02*X319000Y194800D01*
Y197300D02*X323000Y194800D01*
X329000Y200500D02*X333000D01*
X329000Y199200D02*X329700Y198500D01*
X332300D01*
X333000Y199200D02*X332300Y198500D01*
X333000Y199200D02*Y201000D01*
X329000Y199200D02*Y201000D01*
X329800Y197300D02*X329000Y196500D01*
X333000D01*
Y195800D02*Y197300D01*
X339000Y200500D02*X343000D01*
X339000Y199200D02*X339700Y198500D01*
X342300D01*
X343000Y199200D02*X342300Y198500D01*
X343000Y199200D02*Y201000D01*
X339000Y199200D02*Y201000D01*
X339500Y197300D02*X339000Y196800D01*
Y195800D02*Y196800D01*
Y195800D02*X339500Y195300D01*
X343000Y195800D02*X342500Y195300D01*
X343000Y195800D02*Y196800D01*
X342500Y197300D02*X343000Y196800D01*
X340800Y195800D02*Y196800D01*
X339500Y195300D02*X340300D01*
X341300D02*X342500D01*
X341300D02*X340800Y195800D01*
X340300Y195300D02*X340800Y195800D01*
X349000Y200500D02*X353000D01*
X349000Y199200D02*X349700Y198500D01*
X352300D01*
X353000Y199200D02*X352300Y198500D01*
X353000Y199200D02*Y201000D01*
X349000Y199200D02*Y201000D01*
Y195300D02*Y197300D01*
X351000D01*
X350500Y196800D01*
Y195800D02*Y196800D01*
Y195800D02*X351000Y195300D01*
X352500D01*
X353000Y195800D02*X352500Y195300D01*
X353000Y195800D02*Y196800D01*
X352500Y197300D02*X353000Y196800D01*
X289000Y199000D02*X289500Y198500D01*
X289000Y199000D02*Y200500D01*
X289500Y201000D02*X289000Y200500D01*
X289500Y201000D02*X292500D01*
X293000Y200500D01*
Y199000D02*Y200500D01*
Y199000D02*X292500Y198500D01*
X291500D02*X292500D01*
X291000Y199000D02*X291500Y198500D01*
X291000Y199000D02*Y200000D01*
X289000Y197300D02*X293000D01*
X289000D02*X293000Y194800D01*
X289000D02*X293000D01*
X289000Y193100D02*X293000D01*
X289000Y191800D02*X289700Y191100D01*
X292300D01*
X293000Y191800D02*X292300Y191100D01*
X293000Y191800D02*Y193600D01*
X289000Y191800D02*Y193600D01*
Y189400D02*X293000D01*
X289000Y188100D02*X289700Y187400D01*
X292300D01*
X293000Y188100D02*X292300Y187400D01*
X293000Y188100D02*Y189900D01*
X289000Y188100D02*Y189900D01*
X299000Y199000D02*Y201000D01*
Y199000D02*X299500Y198500D01*
X300500D01*
X301000Y199000D02*X300500Y198500D01*
X301000Y199000D02*Y200500D01*
X299000D02*X303000D01*
X301000Y199700D02*X303000Y198500D01*
X302500Y197300D02*X299500Y194300D01*
X299000Y193100D02*X301000D01*
X303000Y192600D01*
X301000Y191600D01*
X303000Y190600D01*
X301000Y190100D01*
X299000D02*X301000D01*
X312500Y201000D02*X309500Y198000D01*
X309000Y194800D02*Y196800D01*
Y194800D02*X309500Y194300D01*
X310500D01*
X311000Y194800D02*X310500Y194300D01*
X311000Y194800D02*Y196300D01*
X309000D02*X313000D01*
X311000Y195500D02*X313000Y194300D01*
X310800Y191600D02*Y193100D01*
X313000Y191100D02*Y193100D01*
X309000D02*X313000D01*
X309000Y191100D02*Y193100D01*
Y187900D02*X309500Y187400D01*
X309000Y187900D02*Y189400D01*
X309500Y189900D02*X309000Y189400D01*
X309500Y189900D02*X310500D01*
X311000Y189400D01*
Y187900D02*Y189400D01*
Y187900D02*X311500Y187400D01*
X312500D01*
X313000Y187900D02*X312500Y187400D01*
X313000Y187900D02*Y189400D01*
X312500Y189900D02*X313000Y189400D01*
X310800Y184700D02*Y186200D01*
X313000Y184200D02*Y186200D01*
X309000D02*X313000D01*
X309000Y184200D02*Y186200D01*
Y181000D02*Y183000D01*
Y182000D02*X313000D01*
X112500Y242500D02*X112000Y242000D01*
Y240500D02*Y242000D01*
Y240500D02*X112500Y240000D01*
X113500D01*
X116000Y242500D02*X113500Y240000D01*
X116000D02*Y242500D01*
X115500Y238800D02*X116000Y238300D01*
X112500Y238800D02*X115500D01*
X112500D02*X112000Y238300D01*
Y237300D02*Y238300D01*
Y237300D02*X112500Y236800D01*
X115500D01*
X116000Y237300D02*X115500Y236800D01*
X116000Y237300D02*Y238300D01*
X115000Y238800D02*X113000Y236800D01*
X112800Y235600D02*X112000Y234800D01*
X116000D01*
Y234100D02*Y235600D01*
X114500Y232900D02*X112000Y230900D01*
X114500Y230400D02*Y232900D01*
X112000Y230900D02*X116000D01*
Y228700D02*Y229200D01*
X112800Y227500D02*X112000Y226700D01*
X116000D01*
Y226000D02*Y227500D01*
X112500Y224800D02*X112000Y224300D01*
Y222800D02*Y224300D01*
Y222800D02*X112500Y222300D01*
X113500D01*
X116000Y224800D02*X113500Y222300D01*
X116000D02*Y224800D01*
Y220600D02*Y221100D01*
X112800Y219400D02*X112000Y218600D01*
X116000D01*
Y217900D02*Y219400D01*
Y216200D02*X114000Y214700D01*
X112500D02*X114000D01*
X112000Y215200D02*X112500Y214700D01*
X112000Y215200D02*Y216200D01*
X112500Y216700D02*X112000Y216200D01*
X112500Y216700D02*X113500D01*
X114000Y216200D01*
Y214700D02*Y216200D01*
X99000Y242000D02*X103000D01*
X99000Y240700D02*X99700Y240000D01*
X102300D01*
X103000Y240700D02*X102300Y240000D01*
X103000Y240700D02*Y242500D01*
X99000Y240700D02*Y242500D01*
X100800Y237300D02*Y238800D01*
X103000Y236800D02*Y238800D01*
X99000D02*X103000D01*
X99000Y236800D02*Y238800D01*
Y233600D02*X99500Y233100D01*
X99000Y233600D02*Y235100D01*
X99500Y235600D02*X99000Y235100D01*
X99500Y235600D02*X100500D01*
X101000Y235100D01*
Y233600D02*Y235100D01*
Y233600D02*X101500Y233100D01*
X102500D01*
X103000Y233600D02*X102500Y233100D01*
X103000Y233600D02*Y235100D01*
X102500Y235600D02*X103000Y235100D01*
X99000Y230900D02*Y231900D01*
Y231400D02*X103000D01*
Y230900D02*Y231900D01*
X99000Y227700D02*X99500Y227200D01*
X99000Y227700D02*Y229200D01*
X99500Y229700D02*X99000Y229200D01*
X99500Y229700D02*X102500D01*
X103000Y229200D01*
Y227700D02*Y229200D01*
Y227700D02*X102500Y227200D01*
X101500D02*X102500D01*
X101000Y227700D02*X101500Y227200D01*
X101000Y227700D02*Y228700D01*
X99000Y226000D02*X103000D01*
X99000D02*X103000Y223500D01*
X99000D02*X103000D01*
X100800Y220800D02*Y222300D01*
X103000Y220300D02*Y222300D01*
X99000D02*X103000D01*
X99000Y220300D02*Y222300D01*
Y218600D02*X103000D01*
X99000Y217300D02*X99700Y216600D01*
X102300D01*
X103000Y217300D02*X102300Y216600D01*
X103000Y217300D02*Y219100D01*
X99000Y217300D02*Y219100D01*
X103000Y211600D02*Y213600D01*
Y211600D02*X102500Y211100D01*
X101300D02*X102500D01*
X100800Y211600D02*X101300Y211100D01*
X100800Y211600D02*Y213100D01*
X99000D02*X103000D01*
X99000Y211600D02*Y213600D01*
Y211600D02*X99500Y211100D01*
X100300D01*
X100800Y211600D02*X100300Y211100D01*
X99000Y209900D02*X101000Y208900D01*
X99000Y207900D01*
X101000Y208900D02*X103000D01*
X100800Y203400D02*Y204900D01*
X103000Y202900D02*Y204900D01*
X99000D02*X103000D01*
X99000Y202900D02*Y204900D01*
Y201700D02*X103000Y200700D01*
X99000Y199700D01*
X100000Y198500D02*X103000D01*
X100000D02*X99000Y197800D01*
Y196700D02*Y197800D01*
Y196700D02*X100000Y196000D01*
X103000D01*
X101000D02*Y198500D01*
X99000Y194800D02*X103000D01*
X99000D02*X103000Y192300D01*
X99000D02*X103000D01*
X99000Y189300D02*X103000D01*
X99000Y187300D02*Y189300D01*
X100800Y187800D02*Y189300D01*
X99500Y186100D02*X102500D01*
X99500D02*X99000Y185600D01*
Y184600D02*Y185600D01*
Y184600D02*X99500Y184100D01*
X102500D01*
X103000Y184600D02*X102500Y184100D01*
X103000Y184600D02*Y185600D01*
X102500Y186100D02*X103000Y185600D01*
X99000Y180900D02*X99500Y180400D01*
X99000Y180900D02*Y182400D01*
X99500Y182900D02*X99000Y182400D01*
X99500Y182900D02*X100500D01*
X101000Y182400D01*
Y180900D02*Y182400D01*
Y180900D02*X101500Y180400D01*
X102500D01*
X103000Y180900D02*X102500Y180400D01*
X103000Y180900D02*Y182400D01*
X102500Y182900D02*X103000Y182400D01*
X99000Y177200D02*X99500Y176700D01*
X99000Y177200D02*Y178700D01*
X99500Y179200D02*X99000Y178700D01*
X99500Y179200D02*X100500D01*
X101000Y178700D01*
Y177200D02*Y178700D01*
Y177200D02*X101500Y176700D01*
X102500D01*
X103000Y177200D02*X102500Y176700D01*
X103000Y177200D02*Y178700D01*
X102500Y179200D02*X103000Y178700D01*
X92500Y240500D02*X93000Y240000D01*
X92500Y240500D02*Y242000D01*
X93000Y242500D02*X92500Y242000D01*
X93000Y242500D02*X94000D01*
X94500Y242000D01*
Y240500D02*Y242000D01*
Y240500D02*X95000Y240000D01*
X96000D01*
X96500Y240500D02*X96000Y240000D01*
X96500Y240500D02*Y242000D01*
X96000Y242500D02*X96500Y242000D01*
X92500Y238800D02*X96000D01*
X96500Y238300D01*
Y237300D02*Y238300D01*
Y237300D02*X96000Y236800D01*
X92500D02*X96000D01*
X96500Y233600D02*Y235600D01*
Y233600D02*X96000Y233100D01*
X94800D02*X96000D01*
X94300Y233600D02*X94800Y233100D01*
X94300Y233600D02*Y235100D01*
X92500D02*X96500D01*
X92500Y233600D02*Y235600D01*
Y233600D02*X93000Y233100D01*
X93800D01*
X94300Y233600D02*X93800Y233100D01*
X92500Y229900D02*Y231900D01*
Y229900D02*X93000Y229400D01*
X94000D01*
X94500Y229900D02*X94000Y229400D01*
X94500Y229900D02*Y231400D01*
X92500D02*X96500D01*
X94500Y230600D02*X96500Y229400D01*
X93500Y228200D02*X96500D01*
X93500D02*X92500Y227500D01*
Y226400D02*Y227500D01*
Y226400D02*X93500Y225700D01*
X96500D01*
X94500D02*Y228200D01*
X96500Y222500D02*Y223800D01*
X95800Y224500D02*X96500Y223800D01*
X93200Y224500D02*X95800D01*
X93200D02*X92500Y223800D01*
Y222500D02*Y223800D01*
Y221300D02*X96500D01*
X94500D02*X92500Y219300D01*
X94500Y221300D02*X96500Y219300D01*
X94300Y214800D02*Y216300D01*
X96500Y214300D02*Y216300D01*
X92500D02*X96500D01*
X92500Y214300D02*Y216300D01*
Y212600D02*X96500D01*
X92500Y211300D02*X93200Y210600D01*
X95800D01*
X96500Y211300D02*X95800Y210600D01*
X96500Y211300D02*Y213100D01*
X92500Y211300D02*Y213100D01*
Y207400D02*X93000Y206900D01*
X92500Y207400D02*Y208900D01*
X93000Y209400D02*X92500Y208900D01*
X93000Y209400D02*X96000D01*
X96500Y208900D01*
Y207400D02*Y208900D01*
Y207400D02*X96000Y206900D01*
X95000D02*X96000D01*
X94500Y207400D02*X95000Y206900D01*
X94500Y207400D02*Y208400D01*
X94300Y204200D02*Y205700D01*
X96500Y203700D02*Y205700D01*
X92500D02*X96500D01*
X92500Y203700D02*Y205700D01*
X96500Y200500D02*Y201800D01*
X95800Y202500D02*X96500Y201800D01*
X93200Y202500D02*X95800D01*
X93200D02*X92500Y201800D01*
Y200500D02*Y201800D01*
X93500Y199300D02*X96500D01*
X93500D02*X92500Y198600D01*
Y197500D02*Y198600D01*
Y197500D02*X93500Y196800D01*
X96500D01*
X94500D02*Y199300D01*
X92500Y193600D02*Y195600D01*
Y193600D02*X93000Y193100D01*
X94000D01*
X94500Y193600D02*X94000Y193100D01*
X94500Y193600D02*Y195100D01*
X92500D02*X96500D01*
X94500Y194300D02*X96500Y193100D01*
X92500Y191400D02*X96500D01*
X92500Y190100D02*X93200Y189400D01*
X95800D01*
X96500Y190100D02*X95800Y189400D01*
X96500Y190100D02*Y191900D01*
X92500Y190100D02*Y191900D01*
X107300Y241000D02*Y242500D01*
X109500Y240500D02*Y242500D01*
X105500D02*X109500D01*
X105500Y240500D02*Y242500D01*
X106500Y239300D02*X109500D01*
X106500D02*X105500Y238600D01*
Y237500D02*Y238600D01*
Y237500D02*X106500Y236800D01*
X109500D01*
X107500D02*Y239300D01*
X105500Y233600D02*Y235600D01*
Y234600D02*X109500D01*
X106000Y232400D02*X109000D01*
X106000D02*X105500Y231900D01*
Y230900D02*Y231900D01*
Y230900D02*X106000Y230400D01*
X109000D01*
X109500Y230900D02*X109000Y230400D01*
X109500Y230900D02*Y231900D01*
X109000Y232400D02*X109500Y231900D01*
X105500Y229200D02*X109500D01*
X105500D02*X109500Y226700D01*
X105500D02*X109500D01*
X105500Y223200D02*X109500D01*
X105500Y221700D02*Y223700D01*
Y221700D02*X106000Y221200D01*
X107000D01*
X107500Y221700D02*X107000Y221200D01*
X107500Y221700D02*Y223200D01*
X107300Y218500D02*Y220000D01*
X109500Y218000D02*Y220000D01*
X105500D02*X109500D01*
X105500Y218000D02*Y220000D01*
X106500Y216800D02*X109500D01*
X106500D02*X105500Y216100D01*
Y215000D02*Y216100D01*
Y215000D02*X106500Y214300D01*
X109500D01*
X107500D02*Y216800D01*
X109500Y211100D02*Y213100D01*
Y211100D02*X109000Y210600D01*
X107800D02*X109000D01*
X107300Y211100D02*X107800Y210600D01*
X107300Y211100D02*Y212600D01*
X105500D02*X109500D01*
X105500Y211100D02*Y213100D01*
Y211100D02*X106000Y210600D01*
X106800D01*
X107300Y211100D02*X106800Y210600D01*
X106000Y209400D02*X109000D01*
X106000D02*X105500Y208900D01*
Y207900D02*Y208900D01*
Y207900D02*X106000Y207400D01*
X109000D01*
X109500Y207900D02*X109000Y207400D01*
X109500Y207900D02*Y208900D01*
X109000Y209400D02*X109500Y208900D01*
X105500Y205700D02*X109500D01*
X105500Y204400D02*X106200Y203700D01*
X108800D01*
X109500Y204400D02*X108800Y203700D01*
X109500Y204400D02*Y206200D01*
X105500Y204400D02*Y206200D01*
Y202500D02*X107500Y201500D01*
X105500Y200500D01*
X107500Y201500D02*X109500D01*
X105500Y197500D02*X109500D01*
Y195500D02*Y197500D01*
X106500Y194300D02*X109500D01*
X106500D02*X105500Y193600D01*
Y192500D02*Y193600D01*
Y192500D02*X106500Y191800D01*
X109500D01*
X107500D02*Y194300D01*
X109500Y188600D02*Y190600D01*
Y188600D02*X109000Y188100D01*
X107800D02*X109000D01*
X107300Y188600D02*X107800Y188100D01*
X107300Y188600D02*Y190100D01*
X105500D02*X109500D01*
X105500Y188600D02*Y190600D01*
Y188600D02*X106000Y188100D01*
X106800D01*
X107300Y188600D02*X106800Y188100D01*
X141000Y215500D02*X142500D01*
X143000Y215000D01*
Y214500D02*Y215000D01*
Y214500D02*X142500Y214000D01*
X141000D02*X142500D01*
X143000Y213500D01*
Y213000D02*Y213500D01*
Y213000D02*X142500Y212500D01*
X141000D02*X142500D01*
X139000Y211300D02*X143000D01*
X141500D02*X141000Y210800D01*
Y209800D02*Y210800D01*
Y209800D02*X141500Y209300D01*
X143000D01*
X140000Y208100D02*X140100D01*
X141500D02*X143000D01*
X139000Y206600D02*X142500D01*
X143000Y206100D01*
X140500D02*Y207100D01*
X143000Y203100D02*Y204600D01*
X142500Y205100D02*X143000Y204600D01*
X141500Y205100D02*X142500D01*
X141500D02*X141000Y204600D01*
Y203600D02*Y204600D01*
Y203600D02*X141500Y203100D01*
X142000D02*Y205100D01*
X141500Y203100D02*X142000D01*
X181000Y218500D02*X182500D01*
X183000Y218000D01*
X181000Y216500D02*X184000D01*
X184500Y217000D02*X184000Y216500D01*
X184500Y217000D02*Y218000D01*
X184000Y218500D02*X184500Y218000D01*
X183000Y217000D02*Y218000D01*
Y217000D02*X182500Y216500D01*
X183000Y213300D02*Y214800D01*
X182500Y215300D02*X183000Y214800D01*
X181500Y215300D02*X182500D01*
X181500D02*X181000Y214800D01*
Y213800D02*Y214800D01*
Y213800D02*X181500Y213300D01*
X182000D02*Y215300D01*
X181500Y213300D02*X182000D01*
X179000Y212100D02*X182500D01*
X183000Y211600D01*
X179000Y210600D02*X182500D01*
X183000Y210100D01*
X181500Y209100D02*X182500D01*
X181500D02*X181000Y208600D01*
Y207600D02*Y208600D01*
Y207600D02*X181500Y207100D01*
X182500D01*
X183000Y207600D02*X182500Y207100D01*
X183000Y207600D02*Y208600D01*
X182500Y209100D02*X183000Y208600D01*
X181000Y205900D02*X182500D01*
X183000Y205400D01*
Y204900D02*Y205400D01*
Y204900D02*X182500Y204400D01*
X181000D02*X182500D01*
X183000Y203900D01*
Y203400D02*Y203900D01*
Y203400D02*X182500Y202900D01*
X181000D02*X182500D01*
X149500Y213000D02*X153500D01*
X153000D02*X153500Y212500D01*
Y211500D02*Y212500D01*
Y211500D02*X153000Y211000D01*
X152000D02*X153000D01*
X151500Y211500D02*X152000Y211000D01*
X151500Y211500D02*Y212500D01*
X152000Y213000D02*X151500Y212500D01*
X149500Y209800D02*X153000D01*
X153500Y209300D01*
X151500Y208300D02*X153000D01*
X153500Y207800D01*
Y206800D02*Y207800D01*
Y206800D02*X153000Y206300D01*
X151500D02*X153000D01*
X153500Y203100D02*Y204600D01*
X153000Y205100D02*X153500Y204600D01*
X152000Y205100D02*X153000D01*
X152000D02*X151500Y204600D01*
Y203600D02*Y204600D01*
Y203600D02*X152000Y203100D01*
X152500D02*Y205100D01*
X152000Y203100D02*X152500D01*
X170000Y216500D02*X170500Y216000D01*
X170000Y216500D02*Y217500D01*
X170500Y218000D02*X170000Y217500D01*
X170500Y218000D02*X171500D01*
X172000Y217500D01*
Y216500D02*Y217500D01*
Y216500D02*X171500Y216000D01*
X173000Y218000D02*X173500Y217500D01*
Y216500D02*Y217500D01*
Y216500D02*X173000Y216000D01*
X170000D02*X173000D01*
X170500Y214300D02*X172000D01*
X170500D02*X170000Y213800D01*
Y212800D02*Y213800D01*
Y214800D02*X170500Y214300D01*
X172000Y209600D02*Y211100D01*
X171500Y211600D02*X172000Y211100D01*
X170500Y211600D02*X171500D01*
X170500D02*X170000Y211100D01*
Y210100D02*Y211100D01*
Y210100D02*X170500Y209600D01*
X171000D02*Y211600D01*
X170500Y209600D02*X171000D01*
X172000Y206400D02*Y207900D01*
X171500Y208400D02*X172000Y207900D01*
X170500Y208400D02*X171500D01*
X170500D02*X170000Y207900D01*
Y206900D02*Y207900D01*
Y206900D02*X170500Y206400D01*
X171000D02*Y208400D01*
X170500Y206400D02*X171000D01*
X170500Y204700D02*X172000D01*
X170500D02*X170000Y204200D01*
Y203700D02*Y204200D01*
Y203700D02*X170500Y203200D01*
X172000D01*
X170000Y205200D02*X170500Y204700D01*
X329000Y241000D02*X333000D01*
X329000Y239700D02*X329700Y239000D01*
X332300D01*
X333000Y239700D02*X332300Y239000D01*
X333000Y239700D02*Y241500D01*
X329000Y239700D02*Y241500D01*
X332500Y237800D02*X333000Y237300D01*
X329500Y237800D02*X332500D01*
X329500D02*X329000Y237300D01*
Y236300D02*Y237300D01*
Y236300D02*X329500Y235800D01*
X332500D01*
X333000Y236300D02*X332500Y235800D01*
X333000Y236300D02*Y237300D01*
X332000Y237800D02*X330000Y235800D01*
X319000Y239500D02*Y241500D01*
Y240500D02*X323000D01*
Y238300D02*X319000Y235800D01*
Y238300D02*X323000Y235800D01*
X309000Y241500D02*X313000D01*
X309000Y239500D02*Y241500D01*
X310800Y240000D02*Y241500D01*
X310000Y238300D02*X313000D01*
X310000D02*X309000Y237600D01*
Y236500D02*Y237600D01*
Y236500D02*X310000Y235800D01*
X313000D01*
X311000D02*Y238300D01*
X309000Y234600D02*X312500D01*
X313000Y234100D01*
Y233100D02*Y234100D01*
Y233100D02*X312500Y232600D01*
X309000D02*X312500D01*
X309000Y231400D02*X313000D01*
Y229400D02*Y231400D01*
X309000Y226200D02*Y228200D01*
Y227200D02*X313000D01*
X303000Y239500D02*Y240800D01*
X302300Y241500D02*X303000Y240800D01*
X299700Y241500D02*X302300D01*
X299700D02*X299000Y240800D01*
Y239500D02*Y240800D01*
Y238300D02*X303000D01*
Y236300D02*Y238300D01*
X299500Y235100D02*X302500D01*
X299500D02*X299000Y234600D01*
Y233600D02*Y234600D01*
Y233600D02*X299500Y233100D01*
X302500D01*
X303000Y233600D02*X302500Y233100D01*
X303000Y233600D02*Y234600D01*
X302500Y235100D02*X303000Y234600D01*
Y229900D02*Y231200D01*
X302300Y231900D02*X303000Y231200D01*
X299700Y231900D02*X302300D01*
X299700D02*X299000Y231200D01*
Y229900D02*Y231200D01*
Y228700D02*X303000D01*
X301000D02*X299000Y226700D01*
X301000Y228700D02*X303000Y226700D01*
X289000Y239500D02*X289500Y239000D01*
X289000Y239500D02*Y241000D01*
X289500Y241500D02*X289000Y241000D01*
X289500Y241500D02*X292500D01*
X293000Y241000D01*
Y239500D02*Y241000D01*
Y239500D02*X292500Y239000D01*
X291500D02*X292500D01*
X291000Y239500D02*X291500Y239000D01*
X291000Y239500D02*Y240500D01*
X289000Y237800D02*X293000D01*
X289000D02*X293000Y235300D01*
X289000D02*X293000D01*
X289000Y233600D02*X293000D01*
X289000Y232300D02*X289700Y231600D01*
X292300D01*
X293000Y232300D02*X292300Y231600D01*
X293000Y232300D02*Y234100D01*
X289000Y232300D02*Y234100D01*
Y229900D02*X293000D01*
X289000Y228600D02*X289700Y227900D01*
X292300D01*
X293000Y228600D02*X292300Y227900D01*
X293000Y228600D02*Y230400D01*
X289000Y228600D02*Y230400D01*
X226500Y240500D02*Y242500D01*
X225500Y241500D02*X227500D01*
X224500Y237300D02*Y239300D01*
X226500D01*
X226000Y238800D01*
Y237800D02*Y238800D01*
Y237800D02*X226500Y237300D01*
X228000D01*
X228500Y237800D02*X228000Y237300D01*
X228500Y237800D02*Y238800D01*
X228000Y239300D02*X228500Y238800D01*
X224500Y236100D02*X228500Y235100D01*
X224500Y234100D01*
Y232400D02*X228500D01*
X224500Y231100D02*X225200Y230400D01*
X227800D01*
X228500Y231100D02*X227800Y230400D01*
X228500Y231100D02*Y232900D01*
X224500Y231100D02*Y232900D01*
X234500Y240500D02*X235000Y240000D01*
X234500Y240500D02*Y242000D01*
X235000Y242500D02*X234500Y242000D01*
X235000Y242500D02*X238000D01*
X238500Y242000D01*
Y240500D02*Y242000D01*
Y240500D02*X238000Y240000D01*
X237000D02*X238000D01*
X236500Y240500D02*X237000Y240000D01*
X236500Y240500D02*Y241500D01*
X234500Y238800D02*X238500D01*
X234500D02*X238500Y236300D01*
X234500D02*X238500D01*
X234500Y234600D02*X238500D01*
X234500Y233300D02*X235200Y232600D01*
X237800D01*
X238500Y233300D02*X237800Y232600D01*
X238500Y233300D02*Y235100D01*
X234500Y233300D02*Y235100D01*
Y230900D02*X238500D01*
X234500Y229600D02*X235200Y228900D01*
X237800D01*
X238500Y229600D02*X237800Y228900D01*
X238500Y229600D02*Y231400D01*
X234500Y229600D02*Y231400D01*
X246500Y240500D02*Y242500D01*
X245500Y241500D02*X247500D01*
X245300Y239300D02*X244500Y238500D01*
X248500D01*
Y237800D02*Y239300D01*
X245000Y236600D02*X244500Y236100D01*
Y234600D02*Y236100D01*
Y234600D02*X245000Y234100D01*
X246000D01*
X248500Y236600D02*X246000Y234100D01*
X248500D02*Y236600D01*
X244500Y232900D02*X248500Y231900D01*
X244500Y230900D01*
Y229200D02*X248500D01*
X244500Y227900D02*X245200Y227200D01*
X247800D01*
X248500Y227900D02*X247800Y227200D01*
X248500Y227900D02*Y229700D01*
X244500Y227900D02*Y229700D01*
X227000Y212500D02*X228500D01*
X227000D02*X226500Y212000D01*
Y211000D02*Y212000D01*
Y213000D02*X227000Y212500D01*
X228500Y207800D02*Y209300D01*
X228000Y209800D02*X228500Y209300D01*
X227000Y209800D02*X228000D01*
X227000D02*X226500Y209300D01*
Y208300D02*Y209300D01*
Y208300D02*X227000Y207800D01*
X227500D02*Y209800D01*
X227000Y207800D02*X227500D01*
X224500Y204600D02*X228500D01*
Y205100D02*X228000Y204600D01*
X228500Y205100D02*Y206100D01*
X228000Y206600D02*X228500Y206100D01*
X227000Y206600D02*X228000D01*
X227000D02*X226500Y206100D01*
Y205100D02*Y206100D01*
Y205100D02*X227000Y204600D01*
X234500Y217500D02*X238500D01*
X238000D02*X238500Y217000D01*
Y216000D02*Y217000D01*
Y216000D02*X238000Y215500D01*
X237000D02*X238000D01*
X236500Y216000D02*X237000Y215500D01*
X236500Y216000D02*Y217000D01*
X237000Y217500D02*X236500Y217000D01*
X234500Y214300D02*X238000D01*
X238500Y213800D01*
X236500Y211300D02*X237000Y210800D01*
X236500Y211300D02*Y212300D01*
X237000Y212800D02*X236500Y212300D01*
X237000Y212800D02*X238000D01*
X238500Y212300D01*
X236500Y210800D02*X238000D01*
X238500Y210300D01*
Y211300D02*Y212300D01*
Y211300D02*X238000Y210800D01*
X236500Y207100D02*Y208600D01*
X237000Y209100D02*X236500Y208600D01*
X237000Y209100D02*X238000D01*
X238500Y208600D01*
Y207100D02*Y208600D01*
X234500Y205900D02*X238500D01*
X237000D02*X238500Y204400D01*
X237000Y205900D02*X236000Y204900D01*
X247000Y221000D02*X250000D01*
X246500Y221500D02*X247000Y221000D01*
X246500Y220500D01*
Y219500D02*Y220500D01*
Y219500D02*X247000Y219000D01*
X248000D01*
X248500Y219500D02*X248000Y219000D01*
X248500Y219500D02*Y220500D01*
X248000Y221000D02*X248500Y220500D01*
X246500Y217800D02*X248000D01*
X248500Y217300D01*
Y216300D02*Y217300D01*
Y216300D02*X248000Y215800D01*
X246500D02*X248000D01*
X247000Y214100D02*X248500D01*
X247000D02*X246500Y213600D01*
Y212600D02*Y213600D01*
Y214600D02*X247000Y214100D01*
Y210900D02*X250000D01*
X246500Y211400D02*X247000Y210900D01*
X246500Y210400D01*
Y209400D02*Y210400D01*
Y209400D02*X247000Y208900D01*
X248000D01*
X248500Y209400D02*X248000Y208900D01*
X248500Y209400D02*Y210400D01*
X248000Y210900D02*X248500Y210400D01*
X244500Y207700D02*X248000D01*
X248500Y207200D01*
Y204200D02*Y205700D01*
X248000Y206200D02*X248500Y205700D01*
X247000Y206200D02*X248000D01*
X247000D02*X246500Y205700D01*
Y204700D02*Y205700D01*
Y204700D02*X247000Y204200D01*
X247500D02*Y206200D01*
X247000Y204200D02*X247500D01*
X191000Y240500D02*Y242500D01*
X190000Y241500D02*X192000D01*
X189800Y239300D02*X189000Y238500D01*
X193000D01*
Y237800D02*Y239300D01*
Y236100D02*X189000Y234100D01*
Y236600D01*
Y232900D02*X193000Y231900D01*
X189000Y230900D01*
X181000Y240500D02*Y242500D01*
X180000Y241500D02*X182000D01*
X179800Y239300D02*X179000Y238500D01*
X183000D01*
Y237800D02*Y239300D01*
X179000Y234600D02*Y236600D01*
X181000D01*
X180500Y236100D01*
Y235100D02*Y236100D01*
Y235100D02*X181000Y234600D01*
X182500D01*
X183000Y235100D02*X182500Y234600D01*
X183000Y235100D02*Y236100D01*
X182500Y236600D02*X183000Y236100D01*
X179000Y233400D02*X183000Y232400D01*
X179000Y231400D01*
X171000Y240500D02*Y242500D01*
X169800Y239300D02*X169000Y238500D01*
X173000D01*
Y237800D02*Y239300D01*
X169000Y234600D02*Y236600D01*
X171000D01*
X170500Y236100D01*
Y235100D02*Y236100D01*
Y235100D02*X171000Y234600D01*
X172500D01*
X173000Y235100D02*X172500Y234600D01*
X173000Y235100D02*Y236100D01*
X172500Y236600D02*X173000Y236100D01*
X169000Y233400D02*X173000Y232400D01*
X169000Y231400D01*
X161000Y240500D02*Y242500D01*
X159800Y239300D02*X159000Y238500D01*
X163000D01*
Y237800D02*Y239300D01*
Y236100D02*X159000Y234100D01*
Y236600D01*
Y232900D02*X163000Y231900D01*
X159000Y230900D01*
X153000Y240500D02*Y241800D01*
X152300Y242500D02*X153000Y241800D01*
X149700Y242500D02*X152300D01*
X149700D02*X149000Y241800D01*
Y240500D02*Y241800D01*
X149500Y239300D02*X152500D01*
X149500D02*X149000Y238800D01*
Y237800D02*Y238800D01*
Y237800D02*X149500Y237300D01*
X152500D01*
X153000Y237800D02*X152500Y237300D01*
X153000Y237800D02*Y238800D01*
X152500Y239300D02*X153000Y238800D01*
X149000Y236100D02*X153000D01*
X149000D02*X151000Y234600D01*
X149000Y233100D01*
X153000D01*
X149000Y231900D02*X153000D01*
X149000D02*X151000Y230400D01*
X149000Y228900D01*
X153000D01*
X149500Y227700D02*X152500D01*
X149500D02*X149000Y227200D01*
Y226200D02*Y227200D01*
Y226200D02*X149500Y225700D01*
X152500D01*
X153000Y226200D02*X152500Y225700D01*
X153000Y226200D02*Y227200D01*
X152500Y227700D02*X153000Y227200D01*
X149000Y224500D02*X153000D01*
X149000D02*X153000Y222000D01*
X149000D02*X153000D01*
X143000Y240500D02*Y241800D01*
X142300Y242500D02*X143000Y241800D01*
X139700Y242500D02*X142300D01*
X139700D02*X139000Y241800D01*
Y240500D02*Y241800D01*
Y239300D02*X143000D01*
X139000Y236800D02*X143000D01*
X141000D02*Y239300D01*
X140000Y235600D02*X143000D01*
X140000D02*X139000Y234900D01*
Y233800D02*Y234900D01*
Y233800D02*X140000Y233100D01*
X143000D01*
X141000D02*Y235600D01*
X139000Y229900D02*X139500Y229400D01*
X139000Y229900D02*Y231400D01*
X139500Y231900D02*X139000Y231400D01*
X139500Y231900D02*X140500D01*
X141000Y231400D01*
Y229900D02*Y231400D01*
Y229900D02*X141500Y229400D01*
X142500D01*
X143000Y229900D02*X142500Y229400D01*
X143000Y229900D02*Y231400D01*
X142500Y231900D02*X143000Y231400D01*
X139000Y226200D02*X139500Y225700D01*
X139000Y226200D02*Y227700D01*
X139500Y228200D02*X139000Y227700D01*
X139500Y228200D02*X140500D01*
X141000Y227700D01*
Y226200D02*Y227700D01*
Y226200D02*X141500Y225700D01*
X142500D01*
X143000Y226200D02*X142500Y225700D01*
X143000Y226200D02*Y227700D01*
X142500Y228200D02*X143000Y227700D01*
X139000Y223500D02*Y224500D01*
Y224000D02*X143000D01*
Y223500D02*Y224500D01*
X139000Y220300D02*X139500Y219800D01*
X139000Y220300D02*Y221800D01*
X139500Y222300D02*X139000Y221800D01*
X139500Y222300D02*X140500D01*
X141000Y221800D01*
Y220300D02*Y221800D01*
Y220300D02*X141500Y219800D01*
X142500D01*
X143000Y220300D02*X142500Y219800D01*
X143000Y220300D02*Y221800D01*
X142500Y222300D02*X143000Y221800D01*
M02*
