G04 start of page 3 for group 1 idx 1 *
G04 Title: (unknown), bottom *
G04 Creator: pcb 20110918 *
G04 CreationDate: Mon Dec 22 17:10:58 2014 UTC *
G04 For: fosse *
G04 Format: Gerber/RS-274X *
G04 PCB-Dimensions: 600000 500000 *
G04 PCB-Coordinate-Origin: lower left *
%MOIN*%
%FSLAX25Y25*%
%LNBOTTOM*%
%ADD26C,0.0380*%
%ADD25C,0.0420*%
%ADD24R,0.0800X0.0800*%
%ADD23C,0.0600*%
%ADD22C,0.0700*%
%ADD21C,0.0250*%
%ADD20C,0.0800*%
%ADD19C,0.0001*%
G54D19*G36*
X370993Y196825D02*X374550Y193268D01*
Y170993D01*
X372643Y170991D01*
X372490Y170954D01*
X372345Y170894D01*
X372210Y170812D01*
X372091Y170709D01*
X371988Y170590D01*
X371906Y170455D01*
X371846Y170310D01*
X371809Y170157D01*
X371800Y170000D01*
X370993D01*
Y196825D01*
G37*
G36*
X380993D02*X390150Y187668D01*
Y170993D01*
X388243Y170991D01*
X388090Y170954D01*
X387945Y170894D01*
X387810Y170812D01*
X387691Y170709D01*
X387588Y170590D01*
X387506Y170455D01*
X387446Y170310D01*
X387409Y170157D01*
X387400Y170000D01*
X381791D01*
X381791Y170157D01*
X381754Y170310D01*
X381694Y170455D01*
X381612Y170590D01*
X381509Y170709D01*
X381390Y170812D01*
X381255Y170894D01*
X381110Y170954D01*
X380993Y170982D01*
Y196825D01*
G37*
G36*
X390993Y196325D02*X405750Y181568D01*
Y170993D01*
X403843Y170991D01*
X403690Y170954D01*
X403545Y170894D01*
X403410Y170812D01*
X403291Y170709D01*
X403188Y170590D01*
X403106Y170455D01*
X403046Y170310D01*
X403009Y170157D01*
X403000Y170000D01*
X397391D01*
X397391Y170157D01*
X397354Y170310D01*
X397294Y170455D01*
X397212Y170590D01*
X397109Y170709D01*
X396990Y170812D01*
X396855Y170894D01*
X396710Y170954D01*
X396557Y170991D01*
X396400Y171000D01*
X394650Y170998D01*
Y188512D01*
X394657Y188600D01*
X394629Y188953D01*
X394629Y188953D01*
X394546Y189297D01*
X394411Y189625D01*
X394226Y189927D01*
X393996Y190196D01*
X393929Y190253D01*
X390993Y193189D01*
Y196325D01*
G37*
G36*
X400993Y198825D02*X421350Y178468D01*
Y170993D01*
X419443Y170991D01*
X419290Y170954D01*
X419145Y170894D01*
X419010Y170812D01*
X418891Y170709D01*
X418788Y170590D01*
X418706Y170455D01*
X418646Y170310D01*
X418609Y170157D01*
X418600Y170000D01*
X412991D01*
X412991Y170157D01*
X412954Y170310D01*
X412894Y170455D01*
X412812Y170590D01*
X412709Y170709D01*
X412590Y170812D01*
X412455Y170894D01*
X412310Y170954D01*
X412157Y170991D01*
X412000Y171000D01*
X410250Y170998D01*
Y182412D01*
X410257Y182500D01*
X410229Y182853D01*
X410146Y183197D01*
X410107Y183293D01*
X410011Y183525D01*
X409896Y183712D01*
X409826Y183827D01*
X409826Y183827D01*
X409596Y184096D01*
X409529Y184153D01*
X400993Y192689D01*
Y198825D01*
G37*
G36*
X410993Y199325D02*X436950Y173368D01*
Y170993D01*
X435043Y170991D01*
X434890Y170954D01*
X434745Y170894D01*
X434610Y170812D01*
X434491Y170709D01*
X434388Y170590D01*
X434306Y170455D01*
X434246Y170310D01*
X434209Y170157D01*
X434200Y170000D01*
X428591D01*
X428591Y170157D01*
X428554Y170310D01*
X428494Y170455D01*
X428412Y170590D01*
X428309Y170709D01*
X428190Y170812D01*
X428055Y170894D01*
X427910Y170954D01*
X427757Y170991D01*
X427600Y171000D01*
X425850Y170998D01*
Y179312D01*
X425857Y179400D01*
X425829Y179753D01*
X425746Y180097D01*
X425707Y180193D01*
X425611Y180425D01*
X425496Y180612D01*
X425426Y180727D01*
X425426Y180727D01*
X425196Y180996D01*
X425129Y181053D01*
X410993Y195189D01*
Y199325D01*
G37*
G36*
X431002Y189316D02*X449893Y170425D01*
X449846Y170310D01*
X449809Y170157D01*
X449800Y170000D01*
X444191D01*
X444191Y170157D01*
X444154Y170310D01*
X444094Y170455D01*
X444012Y170590D01*
X443909Y170709D01*
X443790Y170812D01*
X443655Y170894D01*
X443510Y170954D01*
X443357Y170991D01*
X443200Y171000D01*
X441450Y170998D01*
Y174212D01*
X441457Y174300D01*
X441429Y174653D01*
X441346Y174997D01*
X441307Y175093D01*
X441211Y175325D01*
X441096Y175512D01*
X441026Y175627D01*
X441026Y175627D01*
X440796Y175896D01*
X440729Y175953D01*
X431002Y185680D01*
Y189316D01*
G37*
G36*
X434613Y245000D02*X459000D01*
Y170980D01*
X458957Y170991D01*
X458800Y171000D01*
X455686Y170996D01*
X434613Y192069D01*
Y206853D01*
X434656Y206860D01*
X434768Y206897D01*
X434873Y206952D01*
X434968Y207022D01*
X435051Y207106D01*
X435119Y207202D01*
X435170Y207308D01*
X435318Y207716D01*
X435422Y208137D01*
X435484Y208567D01*
X435505Y209000D01*
X435484Y209433D01*
X435422Y209863D01*
X435318Y210284D01*
X435175Y210694D01*
X435122Y210800D01*
X435053Y210896D01*
X434970Y210981D01*
X434875Y211051D01*
X434769Y211106D01*
X434657Y211143D01*
X434613Y211151D01*
Y216853D01*
X434656Y216860D01*
X434768Y216897D01*
X434873Y216952D01*
X434968Y217022D01*
X435051Y217106D01*
X435119Y217202D01*
X435170Y217308D01*
X435318Y217716D01*
X435422Y218137D01*
X435484Y218567D01*
X435505Y219000D01*
X435484Y219433D01*
X435422Y219863D01*
X435318Y220284D01*
X435175Y220694D01*
X435122Y220800D01*
X435053Y220896D01*
X434970Y220981D01*
X434875Y221051D01*
X434769Y221106D01*
X434657Y221143D01*
X434613Y221151D01*
Y245000D01*
G37*
G36*
X431002D02*X434613D01*
Y221151D01*
X434540Y221163D01*
X434421Y221164D01*
X434304Y221146D01*
X434191Y221110D01*
X434085Y221057D01*
X433988Y220988D01*
X433904Y220905D01*
X433833Y220809D01*
X433779Y220704D01*
X433741Y220592D01*
X433722Y220475D01*
X433721Y220356D01*
X433739Y220239D01*
X433777Y220126D01*
X433876Y219855D01*
X433944Y219575D01*
X433986Y219289D01*
X434000Y219000D01*
X433986Y218711D01*
X433944Y218425D01*
X433876Y218145D01*
X433780Y217872D01*
X433742Y217761D01*
X433725Y217644D01*
X433725Y217526D01*
X433745Y217409D01*
X433782Y217297D01*
X433836Y217193D01*
X433906Y217098D01*
X433991Y217015D01*
X434087Y216946D01*
X434192Y216893D01*
X434305Y216857D01*
X434421Y216840D01*
X434539Y216841D01*
X434613Y216853D01*
Y211151D01*
X434540Y211163D01*
X434421Y211164D01*
X434304Y211146D01*
X434191Y211110D01*
X434085Y211057D01*
X433988Y210988D01*
X433904Y210905D01*
X433833Y210809D01*
X433779Y210704D01*
X433741Y210592D01*
X433722Y210475D01*
X433721Y210356D01*
X433739Y210239D01*
X433777Y210126D01*
X433876Y209855D01*
X433944Y209575D01*
X433986Y209289D01*
X434000Y209000D01*
X433986Y208711D01*
X433944Y208425D01*
X433876Y208145D01*
X433780Y207872D01*
X433742Y207761D01*
X433725Y207644D01*
X433725Y207526D01*
X433745Y207409D01*
X433782Y207297D01*
X433836Y207193D01*
X433906Y207098D01*
X433991Y207015D01*
X434087Y206946D01*
X434192Y206893D01*
X434305Y206857D01*
X434421Y206840D01*
X434539Y206841D01*
X434613Y206853D01*
Y192069D01*
X431002Y195680D01*
Y204495D01*
X431433Y204516D01*
X431863Y204578D01*
X432284Y204682D01*
X432694Y204825D01*
X432800Y204878D01*
X432896Y204947D01*
X432981Y205030D01*
X433051Y205125D01*
X433106Y205231D01*
X433143Y205343D01*
X433163Y205460D01*
X433164Y205579D01*
X433146Y205696D01*
X433110Y205809D01*
X433057Y205915D01*
X432988Y206012D01*
X432905Y206096D01*
X432809Y206167D01*
X432704Y206221D01*
X432592Y206259D01*
X432475Y206278D01*
X432356Y206279D01*
X432239Y206261D01*
X432126Y206223D01*
X431855Y206124D01*
X431575Y206056D01*
X431289Y206014D01*
X431002Y206000D01*
Y212000D01*
X431289Y211986D01*
X431575Y211944D01*
X431855Y211876D01*
X432128Y211780D01*
X432239Y211742D01*
X432356Y211725D01*
X432474Y211725D01*
X432591Y211745D01*
X432703Y211782D01*
X432807Y211836D01*
X432902Y211906D01*
X432985Y211991D01*
X433054Y212087D01*
X433107Y212192D01*
X433143Y212305D01*
X433160Y212421D01*
X433159Y212539D01*
X433140Y212656D01*
X433103Y212768D01*
X433048Y212873D01*
X432978Y212968D01*
X432894Y213051D01*
X432798Y213119D01*
X432692Y213170D01*
X432284Y213318D01*
X431863Y213422D01*
X431433Y213484D01*
X431002Y213505D01*
Y214495D01*
X431433Y214516D01*
X431863Y214578D01*
X432284Y214682D01*
X432694Y214825D01*
X432800Y214878D01*
X432896Y214947D01*
X432981Y215030D01*
X433051Y215125D01*
X433106Y215231D01*
X433143Y215343D01*
X433163Y215460D01*
X433164Y215579D01*
X433146Y215696D01*
X433110Y215809D01*
X433057Y215915D01*
X432988Y216012D01*
X432905Y216096D01*
X432809Y216167D01*
X432704Y216221D01*
X432592Y216259D01*
X432475Y216278D01*
X432356Y216279D01*
X432239Y216261D01*
X432126Y216223D01*
X431855Y216124D01*
X431575Y216056D01*
X431289Y216014D01*
X431002Y216000D01*
Y222000D01*
X431289Y221986D01*
X431575Y221944D01*
X431855Y221876D01*
X432128Y221780D01*
X432239Y221742D01*
X432356Y221725D01*
X432474Y221725D01*
X432591Y221745D01*
X432703Y221782D01*
X432807Y221836D01*
X432902Y221906D01*
X432985Y221991D01*
X433054Y222087D01*
X433107Y222192D01*
X433143Y222305D01*
X433160Y222421D01*
X433159Y222539D01*
X433140Y222656D01*
X433103Y222768D01*
X433048Y222873D01*
X432978Y222968D01*
X432894Y223051D01*
X432798Y223119D01*
X432692Y223170D01*
X432284Y223318D01*
X431863Y223422D01*
X431433Y223484D01*
X431002Y223505D01*
Y245000D01*
G37*
G36*
X427387Y192931D02*X431002Y189316D01*
Y185680D01*
X427387Y189295D01*
Y192931D01*
G37*
G36*
Y245000D02*X431002D01*
Y223505D01*
X431000Y223505D01*
X430567Y223484D01*
X430137Y223422D01*
X429716Y223318D01*
X429306Y223175D01*
X429200Y223122D01*
X429104Y223053D01*
X429019Y222970D01*
X428949Y222875D01*
X428894Y222769D01*
X428857Y222657D01*
X428837Y222540D01*
X428836Y222421D01*
X428854Y222304D01*
X428890Y222191D01*
X428943Y222085D01*
X429012Y221988D01*
X429095Y221904D01*
X429191Y221833D01*
X429296Y221779D01*
X429408Y221741D01*
X429525Y221722D01*
X429644Y221721D01*
X429761Y221739D01*
X429874Y221777D01*
X430145Y221876D01*
X430425Y221944D01*
X430711Y221986D01*
X431000Y222000D01*
X431002Y222000D01*
Y216000D01*
X431000Y216000D01*
X430711Y216014D01*
X430425Y216056D01*
X430145Y216124D01*
X429872Y216220D01*
X429761Y216258D01*
X429644Y216275D01*
X429526Y216275D01*
X429409Y216255D01*
X429297Y216218D01*
X429193Y216164D01*
X429098Y216094D01*
X429015Y216009D01*
X428946Y215913D01*
X428893Y215808D01*
X428857Y215695D01*
X428840Y215579D01*
X428841Y215461D01*
X428860Y215344D01*
X428897Y215232D01*
X428952Y215127D01*
X429022Y215032D01*
X429106Y214949D01*
X429202Y214881D01*
X429308Y214830D01*
X429716Y214682D01*
X430137Y214578D01*
X430567Y214516D01*
X431000Y214495D01*
X431002Y214495D01*
Y213505D01*
X431000Y213505D01*
X430567Y213484D01*
X430137Y213422D01*
X429716Y213318D01*
X429306Y213175D01*
X429200Y213122D01*
X429104Y213053D01*
X429019Y212970D01*
X428949Y212875D01*
X428894Y212769D01*
X428857Y212657D01*
X428837Y212540D01*
X428836Y212421D01*
X428854Y212304D01*
X428890Y212191D01*
X428943Y212085D01*
X429012Y211988D01*
X429095Y211904D01*
X429191Y211833D01*
X429296Y211779D01*
X429408Y211741D01*
X429525Y211722D01*
X429644Y211721D01*
X429761Y211739D01*
X429874Y211777D01*
X430145Y211876D01*
X430425Y211944D01*
X430711Y211986D01*
X431000Y212000D01*
X431002Y212000D01*
Y206000D01*
X431000Y206000D01*
X430711Y206014D01*
X430425Y206056D01*
X430145Y206124D01*
X429872Y206220D01*
X429761Y206258D01*
X429644Y206275D01*
X429526Y206275D01*
X429409Y206255D01*
X429297Y206218D01*
X429193Y206164D01*
X429098Y206094D01*
X429015Y206009D01*
X428946Y205913D01*
X428893Y205808D01*
X428857Y205695D01*
X428840Y205579D01*
X428841Y205461D01*
X428860Y205344D01*
X428897Y205232D01*
X428952Y205127D01*
X429022Y205032D01*
X429106Y204949D01*
X429202Y204881D01*
X429308Y204830D01*
X429716Y204682D01*
X430137Y204578D01*
X430567Y204516D01*
X431000Y204495D01*
X431002Y204495D01*
Y195680D01*
X427387Y199295D01*
Y206849D01*
X427460Y206837D01*
X427579Y206836D01*
X427696Y206854D01*
X427809Y206890D01*
X427915Y206943D01*
X428012Y207012D01*
X428096Y207095D01*
X428167Y207191D01*
X428221Y207296D01*
X428259Y207408D01*
X428278Y207525D01*
X428279Y207644D01*
X428261Y207761D01*
X428223Y207874D01*
X428124Y208145D01*
X428056Y208425D01*
X428014Y208711D01*
X428000Y209000D01*
X428014Y209289D01*
X428056Y209575D01*
X428124Y209855D01*
X428220Y210128D01*
X428258Y210239D01*
X428275Y210356D01*
X428275Y210474D01*
X428255Y210591D01*
X428218Y210703D01*
X428164Y210807D01*
X428094Y210902D01*
X428009Y210985D01*
X427913Y211054D01*
X427808Y211107D01*
X427695Y211143D01*
X427579Y211160D01*
X427461Y211159D01*
X427387Y211147D01*
Y216849D01*
X427460Y216837D01*
X427579Y216836D01*
X427696Y216854D01*
X427809Y216890D01*
X427915Y216943D01*
X428012Y217012D01*
X428096Y217095D01*
X428167Y217191D01*
X428221Y217296D01*
X428259Y217408D01*
X428278Y217525D01*
X428279Y217644D01*
X428261Y217761D01*
X428223Y217874D01*
X428124Y218145D01*
X428056Y218425D01*
X428014Y218711D01*
X428000Y219000D01*
X428014Y219289D01*
X428056Y219575D01*
X428124Y219855D01*
X428220Y220128D01*
X428258Y220239D01*
X428275Y220356D01*
X428275Y220474D01*
X428255Y220591D01*
X428218Y220703D01*
X428164Y220807D01*
X428094Y220902D01*
X428009Y220985D01*
X427913Y221054D01*
X427808Y221107D01*
X427695Y221143D01*
X427579Y221160D01*
X427461Y221159D01*
X427387Y221147D01*
Y245000D01*
G37*
G36*
X420993Y199325D02*X427387Y192931D01*
Y189295D01*
X420993Y195689D01*
Y199325D01*
G37*
G36*
Y245000D02*X427387D01*
Y221147D01*
X427344Y221140D01*
X427232Y221103D01*
X427127Y221048D01*
X427032Y220978D01*
X426949Y220894D01*
X426881Y220798D01*
X426830Y220692D01*
X426682Y220284D01*
X426578Y219863D01*
X426516Y219433D01*
X426495Y219000D01*
X426516Y218567D01*
X426578Y218137D01*
X426682Y217716D01*
X426825Y217306D01*
X426878Y217200D01*
X426947Y217104D01*
X427030Y217019D01*
X427125Y216949D01*
X427231Y216894D01*
X427343Y216857D01*
X427387Y216849D01*
Y211147D01*
X427344Y211140D01*
X427232Y211103D01*
X427127Y211048D01*
X427032Y210978D01*
X426949Y210894D01*
X426881Y210798D01*
X426830Y210692D01*
X426682Y210284D01*
X426578Y209863D01*
X426516Y209433D01*
X426495Y209000D01*
X426516Y208567D01*
X426578Y208137D01*
X426682Y207716D01*
X426825Y207306D01*
X426878Y207200D01*
X426947Y207104D01*
X427030Y207019D01*
X427125Y206949D01*
X427231Y206894D01*
X427343Y206857D01*
X427387Y206849D01*
Y199295D01*
X423250Y203432D01*
Y205101D01*
X423653Y205348D01*
X424192Y205808D01*
X424652Y206347D01*
X425022Y206951D01*
X425293Y207605D01*
X425458Y208294D01*
X425500Y209000D01*
X425458Y209706D01*
X425293Y210395D01*
X425022Y211049D01*
X424652Y211653D01*
X424192Y212192D01*
X423653Y212652D01*
X423049Y213022D01*
X422395Y213293D01*
X421706Y213458D01*
X421000Y213514D01*
X420993Y213513D01*
Y214487D01*
X421000Y214486D01*
X421706Y214542D01*
X422395Y214707D01*
X423049Y214978D01*
X423653Y215348D01*
X424192Y215808D01*
X424652Y216347D01*
X425022Y216951D01*
X425293Y217605D01*
X425458Y218294D01*
X425500Y219000D01*
X425458Y219706D01*
X425293Y220395D01*
X425022Y221049D01*
X424652Y221653D01*
X424192Y222192D01*
X423653Y222652D01*
X423049Y223022D01*
X422395Y223293D01*
X421706Y223458D01*
X421000Y223514D01*
X420993Y223513D01*
Y245000D01*
G37*
G36*
X410993D02*X420993D01*
Y223513D01*
X420294Y223458D01*
X419605Y223293D01*
X418951Y223022D01*
X418347Y222652D01*
X417808Y222192D01*
X417348Y221653D01*
X416978Y221049D01*
X416707Y220395D01*
X416542Y219706D01*
X416486Y219000D01*
X416542Y218294D01*
X416707Y217605D01*
X416978Y216951D01*
X417348Y216347D01*
X417808Y215808D01*
X418347Y215348D01*
X418951Y214978D01*
X419605Y214707D01*
X420294Y214542D01*
X420993Y214487D01*
Y213513D01*
X420294Y213458D01*
X419605Y213293D01*
X418951Y213022D01*
X418347Y212652D01*
X417808Y212192D01*
X417348Y211653D01*
X416978Y211049D01*
X416707Y210395D01*
X416542Y209706D01*
X416486Y209000D01*
X416542Y208294D01*
X416707Y207605D01*
X416978Y206951D01*
X417348Y206347D01*
X417808Y205808D01*
X418347Y205348D01*
X418750Y205101D01*
Y202588D01*
X418743Y202500D01*
X418771Y202147D01*
X418854Y201803D01*
X418989Y201475D01*
X419174Y201173D01*
X419174Y201173D01*
X419404Y200904D01*
X419471Y200847D01*
X420993Y199325D01*
Y195689D01*
X413250Y203432D01*
Y205101D01*
X413653Y205348D01*
X414192Y205808D01*
X414652Y206347D01*
X415022Y206951D01*
X415293Y207605D01*
X415458Y208294D01*
X415500Y209000D01*
X415458Y209706D01*
X415293Y210395D01*
X415022Y211049D01*
X414652Y211653D01*
X414192Y212192D01*
X413653Y212652D01*
X413049Y213022D01*
X412395Y213293D01*
X411706Y213458D01*
X411000Y213514D01*
X410993Y213513D01*
Y214487D01*
X411000Y214486D01*
X411706Y214542D01*
X412395Y214707D01*
X413049Y214978D01*
X413653Y215348D01*
X414192Y215808D01*
X414652Y216347D01*
X415022Y216951D01*
X415293Y217605D01*
X415458Y218294D01*
X415500Y219000D01*
X415458Y219706D01*
X415293Y220395D01*
X415022Y221049D01*
X414652Y221653D01*
X414192Y222192D01*
X413653Y222652D01*
X413049Y223022D01*
X412395Y223293D01*
X411706Y223458D01*
X411000Y223514D01*
X410993Y223513D01*
Y245000D01*
G37*
G36*
X400993D02*X410993D01*
Y223513D01*
X410294Y223458D01*
X409605Y223293D01*
X408951Y223022D01*
X408347Y222652D01*
X407808Y222192D01*
X407348Y221653D01*
X406978Y221049D01*
X406707Y220395D01*
X406542Y219706D01*
X406486Y219000D01*
X406542Y218294D01*
X406707Y217605D01*
X406978Y216951D01*
X407348Y216347D01*
X407808Y215808D01*
X408347Y215348D01*
X408951Y214978D01*
X409605Y214707D01*
X410294Y214542D01*
X410993Y214487D01*
Y213513D01*
X410294Y213458D01*
X409605Y213293D01*
X408951Y213022D01*
X408347Y212652D01*
X407808Y212192D01*
X407348Y211653D01*
X406978Y211049D01*
X406707Y210395D01*
X406542Y209706D01*
X406486Y209000D01*
X406542Y208294D01*
X406707Y207605D01*
X406978Y206951D01*
X407348Y206347D01*
X407808Y205808D01*
X408347Y205348D01*
X408750Y205101D01*
Y202588D01*
X408743Y202500D01*
X408771Y202147D01*
X408854Y201803D01*
X408989Y201475D01*
X409174Y201173D01*
X409174Y201173D01*
X409404Y200904D01*
X409471Y200847D01*
X410993Y199325D01*
Y195189D01*
X403250Y202932D01*
Y205101D01*
X403653Y205348D01*
X404192Y205808D01*
X404652Y206347D01*
X405022Y206951D01*
X405293Y207605D01*
X405458Y208294D01*
X405500Y209000D01*
X405458Y209706D01*
X405293Y210395D01*
X405022Y211049D01*
X404652Y211653D01*
X404192Y212192D01*
X403653Y212652D01*
X403049Y213022D01*
X402395Y213293D01*
X401706Y213458D01*
X401000Y213514D01*
X400993Y213513D01*
Y214487D01*
X401000Y214486D01*
X401706Y214542D01*
X402395Y214707D01*
X403049Y214978D01*
X403653Y215348D01*
X404192Y215808D01*
X404652Y216347D01*
X405022Y216951D01*
X405293Y217605D01*
X405458Y218294D01*
X405500Y219000D01*
X405458Y219706D01*
X405293Y220395D01*
X405022Y221049D01*
X404652Y221653D01*
X404192Y222192D01*
X403653Y222652D01*
X403049Y223022D01*
X402395Y223293D01*
X401706Y223458D01*
X401000Y223514D01*
X400993Y223513D01*
Y245000D01*
G37*
G36*
X390993D02*X400993D01*
Y223513D01*
X400294Y223458D01*
X399605Y223293D01*
X398951Y223022D01*
X398347Y222652D01*
X397808Y222192D01*
X397348Y221653D01*
X396978Y221049D01*
X396707Y220395D01*
X396542Y219706D01*
X396486Y219000D01*
X396542Y218294D01*
X396707Y217605D01*
X396978Y216951D01*
X397348Y216347D01*
X397808Y215808D01*
X398347Y215348D01*
X398951Y214978D01*
X399605Y214707D01*
X400294Y214542D01*
X400993Y214487D01*
Y213513D01*
X400294Y213458D01*
X399605Y213293D01*
X398951Y213022D01*
X398347Y212652D01*
X397808Y212192D01*
X397348Y211653D01*
X396978Y211049D01*
X396707Y210395D01*
X396542Y209706D01*
X396486Y209000D01*
X396542Y208294D01*
X396707Y207605D01*
X396978Y206951D01*
X397348Y206347D01*
X397808Y205808D01*
X398347Y205348D01*
X398750Y205101D01*
Y202088D01*
X398743Y202000D01*
X398771Y201647D01*
Y201647D01*
X398854Y201303D01*
X398989Y200975D01*
X399059Y200861D01*
X399174Y200673D01*
X399174Y200673D01*
X399404Y200404D01*
X399471Y200347D01*
X400993Y198825D01*
Y192689D01*
X393250Y200432D01*
Y205101D01*
X393653Y205348D01*
X394192Y205808D01*
X394652Y206347D01*
X395022Y206951D01*
X395293Y207605D01*
X395458Y208294D01*
X395500Y209000D01*
X395458Y209706D01*
X395293Y210395D01*
X395022Y211049D01*
X394652Y211653D01*
X394192Y212192D01*
X393653Y212652D01*
X393049Y213022D01*
X392395Y213293D01*
X391706Y213458D01*
X391000Y213514D01*
X390993Y213513D01*
Y214487D01*
X391000Y214486D01*
X391706Y214542D01*
X392395Y214707D01*
X393049Y214978D01*
X393653Y215348D01*
X394192Y215808D01*
X394652Y216347D01*
X395022Y216951D01*
X395293Y217605D01*
X395458Y218294D01*
X395500Y219000D01*
X395458Y219706D01*
X395293Y220395D01*
X395022Y221049D01*
X394652Y221653D01*
X394192Y222192D01*
X393653Y222652D01*
X393049Y223022D01*
X392395Y223293D01*
X391706Y223458D01*
X391000Y223514D01*
X390993Y223513D01*
Y245000D01*
G37*
G36*
X380993D02*X390993D01*
Y223513D01*
X390294Y223458D01*
X389605Y223293D01*
X388951Y223022D01*
X388347Y222652D01*
X387808Y222192D01*
X387348Y221653D01*
X386978Y221049D01*
X386707Y220395D01*
X386542Y219706D01*
X386486Y219000D01*
X386542Y218294D01*
X386707Y217605D01*
X386978Y216951D01*
X387348Y216347D01*
X387808Y215808D01*
X388347Y215348D01*
X388951Y214978D01*
X389605Y214707D01*
X390294Y214542D01*
X390993Y214487D01*
Y213513D01*
X390294Y213458D01*
X389605Y213293D01*
X388951Y213022D01*
X388347Y212652D01*
X387808Y212192D01*
X387348Y211653D01*
X386978Y211049D01*
X386707Y210395D01*
X386542Y209706D01*
X386486Y209000D01*
X386542Y208294D01*
X386707Y207605D01*
X386978Y206951D01*
X387348Y206347D01*
X387808Y205808D01*
X388347Y205348D01*
X388750Y205101D01*
Y199588D01*
X388743Y199500D01*
X388771Y199147D01*
Y199147D01*
X388854Y198803D01*
X388989Y198475D01*
X389059Y198361D01*
X389174Y198173D01*
X389174Y198173D01*
X389404Y197904D01*
X389471Y197847D01*
X390993Y196325D01*
Y193189D01*
X383250Y200932D01*
Y205101D01*
X383653Y205348D01*
X384192Y205808D01*
X384652Y206347D01*
X385022Y206951D01*
X385293Y207605D01*
X385458Y208294D01*
X385500Y209000D01*
X385458Y209706D01*
X385293Y210395D01*
X385022Y211049D01*
X384652Y211653D01*
X384192Y212192D01*
X383653Y212652D01*
X383049Y213022D01*
X382395Y213293D01*
X381706Y213458D01*
X381000Y213514D01*
X380993Y213513D01*
Y214487D01*
X381000Y214486D01*
X381706Y214542D01*
X382395Y214707D01*
X383049Y214978D01*
X383653Y215348D01*
X384192Y215808D01*
X384652Y216347D01*
X385022Y216951D01*
X385293Y217605D01*
X385458Y218294D01*
X385500Y219000D01*
X385458Y219706D01*
X385293Y220395D01*
X385022Y221049D01*
X384652Y221653D01*
X384192Y222192D01*
X383653Y222652D01*
X383049Y223022D01*
X382395Y223293D01*
X381706Y223458D01*
X381000Y223514D01*
X380993Y223513D01*
Y245000D01*
G37*
G36*
X370993D02*X380993D01*
Y223513D01*
X380294Y223458D01*
X379605Y223293D01*
X378951Y223022D01*
X378347Y222652D01*
X377808Y222192D01*
X377348Y221653D01*
X376978Y221049D01*
X376707Y220395D01*
X376542Y219706D01*
X376486Y219000D01*
X376542Y218294D01*
X376707Y217605D01*
X376978Y216951D01*
X377348Y216347D01*
X377808Y215808D01*
X378347Y215348D01*
X378951Y214978D01*
X379605Y214707D01*
X380294Y214542D01*
X380993Y214487D01*
Y213513D01*
X380294Y213458D01*
X379605Y213293D01*
X378951Y213022D01*
X378347Y212652D01*
X377808Y212192D01*
X377348Y211653D01*
X376978Y211049D01*
X376707Y210395D01*
X376542Y209706D01*
X376486Y209000D01*
X376542Y208294D01*
X376707Y207605D01*
X376978Y206951D01*
X377348Y206347D01*
X377808Y205808D01*
X378347Y205348D01*
X378750Y205101D01*
Y200088D01*
X378743Y200000D01*
X378771Y199647D01*
X378854Y199303D01*
X378989Y198975D01*
X379174Y198673D01*
X379174Y198673D01*
X379404Y198404D01*
X379471Y198347D01*
X380993Y196825D01*
Y170982D01*
X380957Y170991D01*
X380800Y171000D01*
X379050Y170998D01*
Y194112D01*
X379057Y194200D01*
X379029Y194553D01*
X379029Y194553D01*
X378946Y194897D01*
X378811Y195225D01*
X378626Y195527D01*
X378396Y195796D01*
X378329Y195853D01*
X373250Y200932D01*
Y205101D01*
X373653Y205348D01*
X374192Y205808D01*
X374652Y206347D01*
X375022Y206951D01*
X375293Y207605D01*
X375458Y208294D01*
X375500Y209000D01*
X375458Y209706D01*
X375293Y210395D01*
X375022Y211049D01*
X374652Y211653D01*
X374192Y212192D01*
X373653Y212652D01*
X373049Y213022D01*
X372395Y213293D01*
X371706Y213458D01*
X371000Y213514D01*
X370993Y213513D01*
Y214487D01*
X371000Y214486D01*
X371706Y214542D01*
X372395Y214707D01*
X373049Y214978D01*
X373653Y215348D01*
X374192Y215808D01*
X374652Y216347D01*
X375022Y216951D01*
X375293Y217605D01*
X375458Y218294D01*
X375500Y219000D01*
X375458Y219706D01*
X375293Y220395D01*
X375022Y221049D01*
X374652Y221653D01*
X374192Y222192D01*
X373653Y222652D01*
X373049Y223022D01*
X372395Y223293D01*
X371706Y223458D01*
X371000Y223514D01*
X370993Y223513D01*
Y245000D01*
G37*
G36*
X360993D02*X370993D01*
Y223513D01*
X370294Y223458D01*
X369605Y223293D01*
X368951Y223022D01*
X368347Y222652D01*
X367808Y222192D01*
X367348Y221653D01*
X366978Y221049D01*
X366707Y220395D01*
X366542Y219706D01*
X366486Y219000D01*
X366542Y218294D01*
X366707Y217605D01*
X366978Y216951D01*
X367348Y216347D01*
X367808Y215808D01*
X368347Y215348D01*
X368951Y214978D01*
X369605Y214707D01*
X370294Y214542D01*
X370993Y214487D01*
Y213513D01*
X370294Y213458D01*
X369605Y213293D01*
X368951Y213022D01*
X368347Y212652D01*
X367808Y212192D01*
X367348Y211653D01*
X366978Y211049D01*
X366707Y210395D01*
X366542Y209706D01*
X366486Y209000D01*
X366542Y208294D01*
X366707Y207605D01*
X366978Y206951D01*
X367348Y206347D01*
X367808Y205808D01*
X368347Y205348D01*
X368750Y205101D01*
Y200088D01*
X368743Y200000D01*
X368771Y199647D01*
X368854Y199303D01*
X368989Y198975D01*
X369174Y198673D01*
X369174Y198673D01*
X369404Y198404D01*
X369471Y198347D01*
X370993Y196825D01*
Y170000D01*
X366191D01*
X366191Y170157D01*
X366154Y170310D01*
X366094Y170455D01*
X366012Y170590D01*
X365909Y170709D01*
X365790Y170812D01*
X365655Y170894D01*
X365510Y170954D01*
X365357Y170991D01*
X365200Y171000D01*
X363450Y170998D01*
Y205224D01*
X363653Y205348D01*
X364192Y205808D01*
X364652Y206347D01*
X365022Y206951D01*
X365293Y207605D01*
X365458Y208294D01*
X365500Y209000D01*
X365458Y209706D01*
X365293Y210395D01*
X365022Y211049D01*
X364652Y211653D01*
X364192Y212192D01*
X363653Y212652D01*
X363049Y213022D01*
X362395Y213293D01*
X361706Y213458D01*
X361000Y213514D01*
X360993Y213513D01*
Y214487D01*
X361000Y214486D01*
X361706Y214542D01*
X362395Y214707D01*
X363049Y214978D01*
X363653Y215348D01*
X364192Y215808D01*
X364652Y216347D01*
X365022Y216951D01*
X365293Y217605D01*
X365458Y218294D01*
X365500Y219000D01*
X365458Y219706D01*
X365293Y220395D01*
X365022Y221049D01*
X364652Y221653D01*
X364192Y222192D01*
X363653Y222652D01*
X363049Y223022D01*
X362395Y223293D01*
X361706Y223458D01*
X361000Y223514D01*
X360993Y223513D01*
Y245000D01*
G37*
G36*
X350993D02*X360993D01*
Y223513D01*
X360294Y223458D01*
X359605Y223293D01*
X358951Y223022D01*
X358347Y222652D01*
X357808Y222192D01*
X357348Y221653D01*
X356978Y221049D01*
X356707Y220395D01*
X356542Y219706D01*
X356486Y219000D01*
X356542Y218294D01*
X356707Y217605D01*
X356978Y216951D01*
X357348Y216347D01*
X357808Y215808D01*
X358347Y215348D01*
X358951Y214978D01*
X359605Y214707D01*
X360294Y214542D01*
X360993Y214487D01*
Y213513D01*
X360294Y213458D01*
X359605Y213293D01*
X358951Y213022D01*
X358347Y212652D01*
X357808Y212192D01*
X357348Y211653D01*
X356978Y211049D01*
X356707Y210395D01*
X356542Y209706D01*
X356486Y209000D01*
X356542Y208294D01*
X356707Y207605D01*
X356978Y206951D01*
X357348Y206347D01*
X357808Y205808D01*
X358347Y205348D01*
X358950Y204979D01*
Y170993D01*
X357043Y170991D01*
X356890Y170954D01*
X356745Y170894D01*
X356610Y170812D01*
X356491Y170709D01*
X356388Y170590D01*
X356306Y170455D01*
X356246Y170310D01*
X356209Y170157D01*
X356200Y170000D01*
X350993D01*
Y198811D01*
X352529Y200347D01*
X352596Y200404D01*
X352826Y200673D01*
X352826Y200673D01*
X353011Y200975D01*
X353146Y201303D01*
X353229Y201647D01*
X353257Y202000D01*
X353250Y202088D01*
Y205101D01*
X353653Y205348D01*
X354192Y205808D01*
X354652Y206347D01*
X355022Y206951D01*
X355293Y207605D01*
X355458Y208294D01*
X355500Y209000D01*
X355458Y209706D01*
X355293Y210395D01*
X355022Y211049D01*
X354652Y211653D01*
X354192Y212192D01*
X353653Y212652D01*
X353049Y213022D01*
X352395Y213293D01*
X351706Y213458D01*
X351000Y213514D01*
X350993Y213513D01*
Y214487D01*
X351000Y214486D01*
X351706Y214542D01*
X352395Y214707D01*
X353049Y214978D01*
X353653Y215348D01*
X354192Y215808D01*
X354652Y216347D01*
X355022Y216951D01*
X355293Y217605D01*
X355458Y218294D01*
X355500Y219000D01*
X355458Y219706D01*
X355293Y220395D01*
X355022Y221049D01*
X354652Y221653D01*
X354192Y222192D01*
X353653Y222652D01*
X353049Y223022D01*
X352395Y223293D01*
X351706Y223458D01*
X351000Y223514D01*
X350993Y223513D01*
Y245000D01*
G37*
G36*
Y170000D02*X350591D01*
X350591Y170157D01*
X350554Y170310D01*
X350494Y170455D01*
X350412Y170590D01*
X350309Y170709D01*
X350190Y170812D01*
X350055Y170894D01*
X349910Y170954D01*
X349757Y170991D01*
X349600Y171000D01*
X347850Y170998D01*
Y195668D01*
X350993Y198811D01*
Y170000D01*
G37*
G36*
X344004Y198196D02*X343774Y197927D01*
X343589Y197625D01*
X343454Y197297D01*
X343371Y196953D01*
X343371Y196953D01*
X343343Y196600D01*
X343350Y196512D01*
Y170993D01*
X341443Y170991D01*
X341290Y170954D01*
X341145Y170894D01*
X341010Y170812D01*
X340993Y170797D01*
Y198311D01*
X342529Y199847D01*
X342596Y199904D01*
X342826Y200173D01*
X342826Y200173D01*
X343011Y200475D01*
X343146Y200803D01*
X343229Y201147D01*
X343257Y201500D01*
X343250Y201588D01*
Y205101D01*
X343653Y205348D01*
X344192Y205808D01*
X344652Y206347D01*
X345022Y206951D01*
X345293Y207605D01*
X345458Y208294D01*
X345500Y209000D01*
X345458Y209706D01*
X345293Y210395D01*
X345022Y211049D01*
X344652Y211653D01*
X344192Y212192D01*
X343653Y212652D01*
X343049Y213022D01*
X342395Y213293D01*
X341706Y213458D01*
X341000Y213514D01*
X340993Y213513D01*
Y214487D01*
X341000Y214486D01*
X341706Y214542D01*
X342395Y214707D01*
X343049Y214978D01*
X343653Y215348D01*
X344192Y215808D01*
X344652Y216347D01*
X345022Y216951D01*
X345293Y217605D01*
X345458Y218294D01*
X345500Y219000D01*
X345458Y219706D01*
X345293Y220395D01*
X345022Y221049D01*
X344652Y221653D01*
X344192Y222192D01*
X343653Y222652D01*
X343049Y223022D01*
X342395Y223293D01*
X341706Y223458D01*
X341000Y223514D01*
X340993Y223513D01*
Y245000D01*
X350993D01*
Y223513D01*
X350294Y223458D01*
X349605Y223293D01*
X348951Y223022D01*
X348347Y222652D01*
X347808Y222192D01*
X347348Y221653D01*
X346978Y221049D01*
X346707Y220395D01*
X346542Y219706D01*
X346486Y219000D01*
X346542Y218294D01*
X346707Y217605D01*
X346978Y216951D01*
X347348Y216347D01*
X347808Y215808D01*
X348347Y215348D01*
X348951Y214978D01*
X349605Y214707D01*
X350294Y214542D01*
X350993Y214487D01*
Y213513D01*
X350294Y213458D01*
X349605Y213293D01*
X348951Y213022D01*
X348347Y212652D01*
X347808Y212192D01*
X347348Y211653D01*
X346978Y211049D01*
X346707Y210395D01*
X346542Y209706D01*
X346486Y209000D01*
X346542Y208294D01*
X346707Y207605D01*
X346978Y206951D01*
X347348Y206347D01*
X347808Y205808D01*
X348347Y205348D01*
X348750Y205101D01*
Y202932D01*
X344071Y198253D01*
X344004Y198196D01*
G37*
G36*
X340993Y213513D02*X340294Y213458D01*
X339605Y213293D01*
X338951Y213022D01*
X338347Y212652D01*
X337808Y212192D01*
X337348Y211653D01*
X336978Y211049D01*
X336707Y210395D01*
X336542Y209706D01*
X336486Y209000D01*
X336542Y208294D01*
X336707Y207605D01*
X336978Y206951D01*
X337348Y206347D01*
X337808Y205808D01*
X338347Y205348D01*
X338750Y205101D01*
Y202432D01*
X330993Y194675D01*
Y198311D01*
X332529Y199847D01*
X332596Y199904D01*
X332826Y200173D01*
X332826Y200173D01*
X333011Y200475D01*
X333146Y200803D01*
X333229Y201147D01*
X333257Y201500D01*
X333250Y201588D01*
Y205101D01*
X333653Y205348D01*
X334192Y205808D01*
X334652Y206347D01*
X335022Y206951D01*
X335293Y207605D01*
X335458Y208294D01*
X335500Y209000D01*
X335458Y209706D01*
X335293Y210395D01*
X335022Y211049D01*
X334652Y211653D01*
X334192Y212192D01*
X333653Y212652D01*
X333049Y213022D01*
X332395Y213293D01*
X331706Y213458D01*
X331000Y213514D01*
X330993Y213513D01*
Y214487D01*
X331000Y214486D01*
X331706Y214542D01*
X332395Y214707D01*
X333049Y214978D01*
X333653Y215348D01*
X334192Y215808D01*
X334652Y216347D01*
X335022Y216951D01*
X335293Y217605D01*
X335458Y218294D01*
X335500Y219000D01*
X335458Y219706D01*
X335293Y220395D01*
X335022Y221049D01*
X334652Y221653D01*
X334192Y222192D01*
X333653Y222652D01*
X333049Y223022D01*
X332395Y223293D01*
X331706Y223458D01*
X331000Y223514D01*
X330993Y223513D01*
Y245000D01*
X340993D01*
Y223513D01*
X340294Y223458D01*
X339605Y223293D01*
X338951Y223022D01*
X338347Y222652D01*
X337808Y222192D01*
X337348Y221653D01*
X336978Y221049D01*
X336707Y220395D01*
X336542Y219706D01*
X336486Y219000D01*
X336542Y218294D01*
X336707Y217605D01*
X336978Y216951D01*
X337348Y216347D01*
X337808Y215808D01*
X338347Y215348D01*
X338951Y214978D01*
X339605Y214707D01*
X340294Y214542D01*
X340993Y214487D01*
Y213513D01*
G37*
G36*
Y170797D02*X340891Y170709D01*
X340788Y170590D01*
X340706Y170455D01*
X340646Y170310D01*
X340609Y170157D01*
X340600Y170000D01*
X334991D01*
X334991Y170157D01*
X334954Y170310D01*
X334894Y170455D01*
X334812Y170590D01*
X334709Y170709D01*
X334590Y170812D01*
X334455Y170894D01*
X334310Y170954D01*
X334157Y170991D01*
X334000Y171000D01*
X332250Y170998D01*
Y189568D01*
X340993Y198311D01*
Y170797D01*
G37*
G36*
X330993Y213513D02*X330294Y213458D01*
X329605Y213293D01*
X328951Y213022D01*
X328347Y212652D01*
X327808Y212192D01*
X327348Y211653D01*
X326978Y211049D01*
X326707Y210395D01*
X326542Y209706D01*
X326486Y209000D01*
X326542Y208294D01*
X326707Y207605D01*
X326978Y206951D01*
X327348Y206347D01*
X327808Y205808D01*
X328347Y205348D01*
X328750Y205101D01*
Y202432D01*
X320993Y194675D01*
Y198811D01*
X322529Y200347D01*
X322596Y200404D01*
X322826Y200673D01*
X322826Y200673D01*
X323011Y200975D01*
X323146Y201303D01*
X323229Y201647D01*
X323257Y202000D01*
X323250Y202088D01*
Y205101D01*
X323653Y205348D01*
X324192Y205808D01*
X324652Y206347D01*
X325022Y206951D01*
X325293Y207605D01*
X325458Y208294D01*
X325500Y209000D01*
X325458Y209706D01*
X325293Y210395D01*
X325022Y211049D01*
X324652Y211653D01*
X324192Y212192D01*
X323653Y212652D01*
X323049Y213022D01*
X322395Y213293D01*
X321706Y213458D01*
X321000Y213514D01*
X320993Y213513D01*
Y214487D01*
X321000Y214486D01*
X321706Y214542D01*
X322395Y214707D01*
X323049Y214978D01*
X323653Y215348D01*
X324192Y215808D01*
X324652Y216347D01*
X325022Y216951D01*
X325293Y217605D01*
X325458Y218294D01*
X325500Y219000D01*
X325458Y219706D01*
X325293Y220395D01*
X325022Y221049D01*
X324652Y221653D01*
X324192Y222192D01*
X323653Y222652D01*
X323049Y223022D01*
X322395Y223293D01*
X321706Y223458D01*
X321000Y223514D01*
X320993Y223513D01*
Y245000D01*
X330993D01*
Y223513D01*
X330294Y223458D01*
X329605Y223293D01*
X328951Y223022D01*
X328347Y222652D01*
X327808Y222192D01*
X327348Y221653D01*
X326978Y221049D01*
X326707Y220395D01*
X326542Y219706D01*
X326486Y219000D01*
X326542Y218294D01*
X326707Y217605D01*
X326978Y216951D01*
X327348Y216347D01*
X327808Y215808D01*
X328347Y215348D01*
X328951Y214978D01*
X329605Y214707D01*
X330294Y214542D01*
X330993Y214487D01*
Y213513D01*
G37*
G36*
Y194675D02*X328471Y192153D01*
X328404Y192096D01*
X328174Y191827D01*
X327989Y191525D01*
X327854Y191197D01*
X327771Y190853D01*
X327771Y190853D01*
X327743Y190500D01*
X327750Y190412D01*
Y170993D01*
X325843Y170991D01*
X325690Y170954D01*
X325545Y170894D01*
X325410Y170812D01*
X325291Y170709D01*
X325188Y170590D01*
X325106Y170455D01*
X325046Y170310D01*
X325009Y170157D01*
X325000Y170000D01*
X320993D01*
Y188311D01*
X330993Y198311D01*
Y194675D01*
G37*
G36*
X320993Y213513D02*X320294Y213458D01*
X319605Y213293D01*
X318951Y213022D01*
X318347Y212652D01*
X317808Y212192D01*
X317348Y211653D01*
X316978Y211049D01*
X316707Y210395D01*
X316542Y209706D01*
X316486Y209000D01*
X316542Y208294D01*
X316707Y207605D01*
X316978Y206951D01*
X317348Y206347D01*
X317808Y205808D01*
X318347Y205348D01*
X318750Y205101D01*
Y202932D01*
X310993Y195175D01*
Y198311D01*
X312529Y199847D01*
X312596Y199904D01*
X312826Y200173D01*
X312826Y200173D01*
X313011Y200475D01*
X313146Y200803D01*
X313229Y201147D01*
X313257Y201500D01*
X313250Y201588D01*
Y205101D01*
X313653Y205348D01*
X314192Y205808D01*
X314652Y206347D01*
X315022Y206951D01*
X315293Y207605D01*
X315458Y208294D01*
X315500Y209000D01*
X315458Y209706D01*
X315293Y210395D01*
X315022Y211049D01*
X314652Y211653D01*
X314192Y212192D01*
X313653Y212652D01*
X313049Y213022D01*
X312395Y213293D01*
X311706Y213458D01*
X311000Y213514D01*
X310993Y213513D01*
Y214487D01*
X311000Y214486D01*
X311706Y214542D01*
X312395Y214707D01*
X313049Y214978D01*
X313653Y215348D01*
X314192Y215808D01*
X314652Y216347D01*
X315022Y216951D01*
X315293Y217605D01*
X315458Y218294D01*
X315500Y219000D01*
X315458Y219706D01*
X315293Y220395D01*
X315022Y221049D01*
X314652Y221653D01*
X314192Y222192D01*
X313653Y222652D01*
X313049Y223022D01*
X312395Y223293D01*
X311706Y223458D01*
X311000Y223514D01*
X310993Y223513D01*
Y245000D01*
X320993D01*
Y223513D01*
X320294Y223458D01*
X319605Y223293D01*
X318951Y223022D01*
X318347Y222652D01*
X317808Y222192D01*
X317348Y221653D01*
X316978Y221049D01*
X316707Y220395D01*
X316542Y219706D01*
X316486Y219000D01*
X316542Y218294D01*
X316707Y217605D01*
X316978Y216951D01*
X317348Y216347D01*
X317808Y215808D01*
X318347Y215348D01*
X318951Y214978D01*
X319605Y214707D01*
X320294Y214542D01*
X320993Y214487D01*
Y213513D01*
G37*
G36*
Y194675D02*X312871Y186553D01*
X312804Y186496D01*
X312574Y186227D01*
X312389Y185925D01*
X312254Y185597D01*
X312171Y185253D01*
X312171Y185253D01*
X312143Y184900D01*
X312150Y184812D01*
Y170993D01*
X310993Y170992D01*
Y188811D01*
X320993Y198811D01*
Y194675D01*
G37*
G36*
Y170000D02*X319391D01*
X319391Y170157D01*
X319354Y170310D01*
X319294Y170455D01*
X319212Y170590D01*
X319109Y170709D01*
X318990Y170812D01*
X318855Y170894D01*
X318710Y170954D01*
X318557Y170991D01*
X318400Y171000D01*
X316650Y170998D01*
Y183968D01*
X320993Y188311D01*
Y170000D01*
G37*
G36*
X310993Y213513D02*X310294Y213458D01*
X309605Y213293D01*
X308951Y213022D01*
X308347Y212652D01*
X307808Y212192D01*
X307348Y211653D01*
X306978Y211049D01*
X306707Y210395D01*
X306542Y209706D01*
X306486Y209000D01*
X306542Y208294D01*
X306707Y207605D01*
X306978Y206951D01*
X307348Y206347D01*
X307808Y205808D01*
X308347Y205348D01*
X308750Y205101D01*
Y202432D01*
X300993Y194675D01*
Y198811D01*
X302529Y200347D01*
X302596Y200404D01*
X302826Y200673D01*
X302826Y200673D01*
X303011Y200975D01*
X303146Y201303D01*
X303229Y201647D01*
X303257Y202000D01*
X303250Y202088D01*
Y205101D01*
X303653Y205348D01*
X304192Y205808D01*
X304652Y206347D01*
X305022Y206951D01*
X305293Y207605D01*
X305458Y208294D01*
X305500Y209000D01*
X305458Y209706D01*
X305293Y210395D01*
X305022Y211049D01*
X304652Y211653D01*
X304192Y212192D01*
X303653Y212652D01*
X303049Y213022D01*
X302395Y213293D01*
X301706Y213458D01*
X301000Y213514D01*
X300993Y213513D01*
Y214487D01*
X301000Y214486D01*
X301706Y214542D01*
X302395Y214707D01*
X303049Y214978D01*
X303653Y215348D01*
X304192Y215808D01*
X304652Y216347D01*
X305022Y216951D01*
X305293Y217605D01*
X305458Y218294D01*
X305500Y219000D01*
X305458Y219706D01*
X305293Y220395D01*
X305022Y221049D01*
X304652Y221653D01*
X304192Y222192D01*
X303653Y222652D01*
X303049Y223022D01*
X302395Y223293D01*
X301706Y223458D01*
X301000Y223514D01*
X300993Y223513D01*
Y245000D01*
X310993D01*
Y223513D01*
X310294Y223458D01*
X309605Y223293D01*
X308951Y223022D01*
X308347Y222652D01*
X307808Y222192D01*
X307348Y221653D01*
X306978Y221049D01*
X306707Y220395D01*
X306542Y219706D01*
X306486Y219000D01*
X306542Y218294D01*
X306707Y217605D01*
X306978Y216951D01*
X307348Y216347D01*
X307808Y215808D01*
X308347Y215348D01*
X308951Y214978D01*
X309605Y214707D01*
X310294Y214542D01*
X310993Y214487D01*
Y213513D01*
G37*
G36*
Y195175D02*X300993Y185175D01*
Y188311D01*
X310993Y198311D01*
Y195175D01*
G37*
G36*
Y170992D02*X310243Y170991D01*
X310090Y170954D01*
X309945Y170894D01*
X309810Y170812D01*
X309691Y170709D01*
X309588Y170590D01*
X309506Y170455D01*
X309446Y170310D01*
X309409Y170157D01*
X309400Y170000D01*
X303791D01*
X303791Y170157D01*
X303754Y170310D01*
X303694Y170455D01*
X303612Y170590D01*
X303509Y170709D01*
X303390Y170812D01*
X303255Y170894D01*
X303110Y170954D01*
X302957Y170991D01*
X302800Y171000D01*
X301050Y170998D01*
Y178868D01*
X310993Y188811D01*
Y170992D01*
G37*
G36*
X300993Y213513D02*X300294Y213458D01*
X299605Y213293D01*
X298951Y213022D01*
X298347Y212652D01*
X297808Y212192D01*
X297348Y211653D01*
X296978Y211049D01*
X296707Y210395D01*
X296542Y209706D01*
X296486Y209000D01*
X296542Y208294D01*
X296707Y207605D01*
X296978Y206951D01*
X297348Y206347D01*
X297808Y205808D01*
X298347Y205348D01*
X298750Y205101D01*
Y202932D01*
X294750Y198932D01*
Y206748D01*
X294868Y206757D01*
X294982Y206785D01*
X295092Y206830D01*
X295192Y206891D01*
X295282Y206968D01*
X295359Y207058D01*
X295420Y207158D01*
X295465Y207268D01*
X295493Y207382D01*
X295500Y207500D01*
Y210500D01*
X295493Y210618D01*
X295465Y210732D01*
X295420Y210842D01*
X295359Y210942D01*
X295282Y211032D01*
X295192Y211109D01*
X295092Y211170D01*
X294982Y211215D01*
X294868Y211243D01*
X294750Y211252D01*
Y216891D01*
X294768Y216897D01*
X294873Y216952D01*
X294968Y217022D01*
X295051Y217106D01*
X295119Y217202D01*
X295170Y217308D01*
X295318Y217716D01*
X295422Y218137D01*
X295484Y218567D01*
X295505Y219000D01*
X295484Y219433D01*
X295422Y219863D01*
X295318Y220284D01*
X295175Y220694D01*
X295122Y220800D01*
X295053Y220896D01*
X294970Y220981D01*
X294875Y221051D01*
X294769Y221106D01*
X294750Y221112D01*
Y245000D01*
X300993D01*
Y223513D01*
X300294Y223458D01*
X299605Y223293D01*
X298951Y223022D01*
X298347Y222652D01*
X297808Y222192D01*
X297348Y221653D01*
X296978Y221049D01*
X296707Y220395D01*
X296542Y219706D01*
X296486Y219000D01*
X296542Y218294D01*
X296707Y217605D01*
X296978Y216951D01*
X297348Y216347D01*
X297808Y215808D01*
X298347Y215348D01*
X298951Y214978D01*
X299605Y214707D01*
X300294Y214542D01*
X300993Y214487D01*
Y213513D01*
G37*
G36*
Y194675D02*X294750Y188432D01*
Y192568D01*
X300993Y198811D01*
Y194675D01*
G37*
G36*
Y185175D02*X297271Y181453D01*
X297204Y181396D01*
X296974Y181127D01*
X296789Y180825D01*
X296654Y180497D01*
X296571Y180153D01*
X296571Y180153D01*
X296543Y179800D01*
X296550Y179712D01*
Y170993D01*
X294750Y170991D01*
Y182068D01*
X300993Y188311D01*
Y185175D01*
G37*
G36*
X294750Y198932D02*X291000Y195182D01*
Y204500D01*
X292500D01*
X292618Y204507D01*
X292732Y204535D01*
X292842Y204580D01*
X292942Y204641D01*
X293032Y204718D01*
X293109Y204808D01*
X293170Y204908D01*
X293215Y205018D01*
X293243Y205132D01*
X293252Y205250D01*
X293243Y205368D01*
X293215Y205482D01*
X293170Y205592D01*
X293109Y205692D01*
X293032Y205782D01*
X292942Y205859D01*
X292842Y205920D01*
X292732Y205965D01*
X292618Y205993D01*
X292500Y206000D01*
X291000D01*
Y212000D01*
X292500D01*
X292618Y212007D01*
X292732Y212035D01*
X292842Y212080D01*
X292942Y212141D01*
X293032Y212218D01*
X293109Y212308D01*
X293170Y212408D01*
X293215Y212518D01*
X293243Y212632D01*
X293252Y212750D01*
X293243Y212868D01*
X293215Y212982D01*
X293170Y213092D01*
X293109Y213192D01*
X293032Y213282D01*
X292942Y213359D01*
X292842Y213420D01*
X292732Y213465D01*
X292618Y213493D01*
X292500Y213500D01*
X291000D01*
Y214495D01*
X291433Y214516D01*
X291863Y214578D01*
X292284Y214682D01*
X292694Y214825D01*
X292800Y214878D01*
X292896Y214947D01*
X292981Y215030D01*
X293051Y215125D01*
X293106Y215231D01*
X293143Y215343D01*
X293163Y215460D01*
X293164Y215579D01*
X293146Y215696D01*
X293110Y215809D01*
X293057Y215915D01*
X292988Y216012D01*
X292905Y216096D01*
X292809Y216167D01*
X292704Y216221D01*
X292592Y216259D01*
X292475Y216278D01*
X292356Y216279D01*
X292239Y216261D01*
X292126Y216223D01*
X291855Y216124D01*
X291575Y216056D01*
X291289Y216014D01*
X291000Y216000D01*
Y222000D01*
X291289Y221986D01*
X291575Y221944D01*
X291855Y221876D01*
X292128Y221780D01*
X292239Y221742D01*
X292356Y221725D01*
X292474Y221725D01*
X292591Y221745D01*
X292703Y221782D01*
X292807Y221836D01*
X292902Y221906D01*
X292985Y221991D01*
X293054Y222087D01*
X293107Y222192D01*
X293143Y222305D01*
X293160Y222421D01*
X293159Y222539D01*
X293140Y222656D01*
X293103Y222768D01*
X293048Y222873D01*
X292978Y222968D01*
X292894Y223051D01*
X292798Y223119D01*
X292692Y223170D01*
X292284Y223318D01*
X291863Y223422D01*
X291433Y223484D01*
X291000Y223505D01*
Y245000D01*
X294750D01*
Y221112D01*
X294657Y221143D01*
X294540Y221163D01*
X294421Y221164D01*
X294304Y221146D01*
X294191Y221110D01*
X294085Y221057D01*
X293988Y220988D01*
X293904Y220905D01*
X293833Y220809D01*
X293779Y220704D01*
X293741Y220592D01*
X293722Y220475D01*
X293721Y220356D01*
X293739Y220239D01*
X293777Y220126D01*
X293876Y219855D01*
X293944Y219575D01*
X293986Y219289D01*
X294000Y219000D01*
X293986Y218711D01*
X293944Y218425D01*
X293876Y218145D01*
X293780Y217872D01*
X293742Y217761D01*
X293725Y217644D01*
X293725Y217526D01*
X293745Y217409D01*
X293782Y217297D01*
X293836Y217193D01*
X293906Y217098D01*
X293991Y217015D01*
X294087Y216946D01*
X294192Y216893D01*
X294305Y216857D01*
X294421Y216840D01*
X294539Y216841D01*
X294656Y216860D01*
X294750Y216891D01*
Y211252D01*
X294632Y211243D01*
X294518Y211215D01*
X294408Y211170D01*
X294308Y211109D01*
X294218Y211032D01*
X294141Y210942D01*
X294080Y210842D01*
X294035Y210732D01*
X294007Y210618D01*
X294000Y210500D01*
Y207500D01*
X294007Y207382D01*
X294035Y207268D01*
X294080Y207158D01*
X294141Y207058D01*
X294218Y206968D01*
X294308Y206891D01*
X294408Y206830D01*
X294518Y206785D01*
X294632Y206757D01*
X294750Y206748D01*
Y198932D01*
G37*
G36*
Y188432D02*X291000Y184682D01*
Y188818D01*
X294750Y192568D01*
Y188432D01*
G37*
G36*
Y170991D02*X294643Y170991D01*
X294490Y170954D01*
X294345Y170894D01*
X294210Y170812D01*
X294091Y170709D01*
X293988Y170590D01*
X293906Y170455D01*
X293846Y170310D01*
X293809Y170157D01*
X293800Y170000D01*
X291000D01*
Y178318D01*
X294750Y182068D01*
Y170991D01*
G37*
G36*
X291000Y195182D02*X287250Y191432D01*
Y206748D01*
X287368Y206757D01*
X287482Y206785D01*
X287592Y206830D01*
X287692Y206891D01*
X287782Y206968D01*
X287859Y207058D01*
X287920Y207158D01*
X287965Y207268D01*
X287993Y207382D01*
X288000Y207500D01*
Y210500D01*
X287993Y210618D01*
X287965Y210732D01*
X287920Y210842D01*
X287859Y210942D01*
X287782Y211032D01*
X287692Y211109D01*
X287592Y211170D01*
X287482Y211215D01*
X287368Y211243D01*
X287250Y211252D01*
Y216888D01*
X287343Y216857D01*
X287460Y216837D01*
X287579Y216836D01*
X287696Y216854D01*
X287809Y216890D01*
X287915Y216943D01*
X288012Y217012D01*
X288096Y217095D01*
X288167Y217191D01*
X288221Y217296D01*
X288259Y217408D01*
X288278Y217525D01*
X288279Y217644D01*
X288261Y217761D01*
X288223Y217874D01*
X288124Y218145D01*
X288056Y218425D01*
X288014Y218711D01*
X288000Y219000D01*
X288014Y219289D01*
X288056Y219575D01*
X288124Y219855D01*
X288220Y220128D01*
X288258Y220239D01*
X288275Y220356D01*
X288275Y220474D01*
X288255Y220591D01*
X288218Y220703D01*
X288164Y220807D01*
X288094Y220902D01*
X288009Y220985D01*
X287913Y221054D01*
X287808Y221107D01*
X287695Y221143D01*
X287579Y221160D01*
X287461Y221159D01*
X287344Y221140D01*
X287250Y221109D01*
Y245000D01*
X291000D01*
Y223505D01*
X291000D01*
X290567Y223484D01*
X290137Y223422D01*
X289716Y223318D01*
X289306Y223175D01*
X289200Y223122D01*
X289104Y223053D01*
X289019Y222970D01*
X288949Y222875D01*
X288894Y222769D01*
X288857Y222657D01*
X288837Y222540D01*
X288836Y222421D01*
X288854Y222304D01*
X288890Y222191D01*
X288943Y222085D01*
X289012Y221988D01*
X289095Y221904D01*
X289191Y221833D01*
X289296Y221779D01*
X289408Y221741D01*
X289525Y221722D01*
X289644Y221721D01*
X289761Y221739D01*
X289874Y221777D01*
X290145Y221876D01*
X290425Y221944D01*
X290711Y221986D01*
X291000Y222000D01*
X291000D01*
Y216000D01*
X291000D01*
X290711Y216014D01*
X290425Y216056D01*
X290145Y216124D01*
X289872Y216220D01*
X289761Y216258D01*
X289644Y216275D01*
X289526Y216275D01*
X289409Y216255D01*
X289297Y216218D01*
X289193Y216164D01*
X289098Y216094D01*
X289015Y216009D01*
X288946Y215913D01*
X288893Y215808D01*
X288857Y215695D01*
X288840Y215579D01*
X288841Y215461D01*
X288860Y215344D01*
X288897Y215232D01*
X288952Y215127D01*
X289022Y215032D01*
X289106Y214949D01*
X289202Y214881D01*
X289308Y214830D01*
X289716Y214682D01*
X290137Y214578D01*
X290567Y214516D01*
X291000Y214495D01*
X291000D01*
Y213500D01*
X289500D01*
X289382Y213493D01*
X289268Y213465D01*
X289158Y213420D01*
X289058Y213359D01*
X288968Y213282D01*
X288891Y213192D01*
X288830Y213092D01*
X288785Y212982D01*
X288757Y212868D01*
X288748Y212750D01*
X288757Y212632D01*
X288785Y212518D01*
X288830Y212408D01*
X288891Y212308D01*
X288968Y212218D01*
X289058Y212141D01*
X289158Y212080D01*
X289268Y212035D01*
X289382Y212007D01*
X289500Y212000D01*
X291000D01*
Y206000D01*
X289500D01*
X289382Y205993D01*
X289268Y205965D01*
X289158Y205920D01*
X289058Y205859D01*
X288968Y205782D01*
X288891Y205692D01*
X288830Y205592D01*
X288785Y205482D01*
X288757Y205368D01*
X288748Y205250D01*
X288757Y205132D01*
X288785Y205018D01*
X288830Y204908D01*
X288891Y204808D01*
X288968Y204718D01*
X289058Y204641D01*
X289158Y204580D01*
X289268Y204535D01*
X289382Y204507D01*
X289500Y204500D01*
X291000D01*
Y195182D01*
G37*
G36*
X287250Y191432D02*X266813Y170995D01*
X263443Y170991D01*
X263290Y170954D01*
X263145Y170894D01*
X263010Y170812D01*
X262891Y170709D01*
X262788Y170590D01*
X262706Y170455D01*
X262646Y170310D01*
X262609Y170157D01*
X262600Y170000D01*
X257000D01*
Y190304D01*
X257015Y190500D01*
X256954Y191285D01*
X256770Y192050D01*
X256469Y192777D01*
X256313Y193032D01*
X256058Y193448D01*
X255546Y194046D01*
X255397Y194174D01*
X250036Y199536D01*
X249448Y200058D01*
X248777Y200469D01*
X248050Y200770D01*
X247285Y200954D01*
X246500Y201015D01*
X245715Y200954D01*
X244950Y200770D01*
X244223Y200469D01*
X243552Y200058D01*
X242954Y199546D01*
X242442Y198948D01*
X242031Y198277D01*
X241730Y197550D01*
X241546Y196785D01*
X241500Y196196D01*
X241454Y196785D01*
X241270Y197550D01*
X240969Y198277D01*
X240558Y198948D01*
X240046Y199546D01*
X239448Y200058D01*
X238777Y200469D01*
X238050Y200770D01*
X237285Y200954D01*
X236500Y201015D01*
X235715Y200954D01*
X234950Y200770D01*
X234223Y200469D01*
X233552Y200058D01*
X233128Y199681D01*
X232854Y199446D01*
X232342Y198848D01*
X231931Y198177D01*
X231630Y197450D01*
X231458Y196732D01*
X231454Y196785D01*
X231270Y197550D01*
X230969Y198277D01*
X230558Y198948D01*
X230491Y199026D01*
X230491Y199157D01*
X230454Y199310D01*
X230394Y199455D01*
X230312Y199590D01*
X230209Y199709D01*
X230090Y199812D01*
X229955Y199894D01*
X229810Y199954D01*
X229657Y199991D01*
X229517Y199999D01*
X229448Y200058D01*
X228777Y200469D01*
X228050Y200770D01*
X227285Y200954D01*
X226500Y201015D01*
X225715Y200954D01*
X224950Y200770D01*
X224223Y200469D01*
X223552Y200058D01*
X223477Y199991D01*
X223343Y199991D01*
X223190Y199954D01*
X223045Y199894D01*
X222910Y199812D01*
X222791Y199709D01*
X222688Y199590D01*
X222606Y199455D01*
X222546Y199310D01*
X222509Y199157D01*
X222504Y199076D01*
X217403Y193974D01*
X217254Y193846D01*
X217000Y193550D01*
Y245000D01*
X287250D01*
Y221109D01*
X287232Y221103D01*
X287127Y221048D01*
X287032Y220978D01*
X286949Y220894D01*
X286881Y220798D01*
X286830Y220692D01*
X286682Y220284D01*
X286578Y219863D01*
X286516Y219433D01*
X286495Y219000D01*
X286516Y218567D01*
X286578Y218137D01*
X286682Y217716D01*
X286825Y217306D01*
X286878Y217200D01*
X286947Y217104D01*
X287030Y217019D01*
X287125Y216949D01*
X287231Y216894D01*
X287250Y216888D01*
Y211252D01*
X287132Y211243D01*
X287018Y211215D01*
X286908Y211170D01*
X286808Y211109D01*
X286718Y211032D01*
X286641Y210942D01*
X286580Y210842D01*
X286535Y210732D01*
X286507Y210618D01*
X286500Y210500D01*
Y207500D01*
X286507Y207382D01*
X286535Y207268D01*
X286580Y207158D01*
X286641Y207058D01*
X286718Y206968D01*
X286808Y206891D01*
X286908Y206830D01*
X287018Y206785D01*
X287132Y206757D01*
X287250Y206748D01*
Y191432D01*
G37*
G36*
X291000Y184682D02*X281671Y175353D01*
X281604Y175296D01*
X281374Y175027D01*
X281189Y174725D01*
X281054Y174397D01*
X280971Y174053D01*
X280971Y174053D01*
X280943Y173700D01*
X280950Y173612D01*
Y170993D01*
X279043Y170991D01*
X278890Y170954D01*
X278745Y170894D01*
X278610Y170812D01*
X278491Y170709D01*
X278388Y170590D01*
X278306Y170455D01*
X278246Y170310D01*
X278209Y170157D01*
X278200Y170000D01*
X272591D01*
X272591Y170157D01*
X272554Y170310D01*
X272536Y170354D01*
X291000Y188818D01*
Y184682D01*
G37*
G36*
Y170000D02*X288191D01*
X288191Y170157D01*
X288154Y170310D01*
X288094Y170455D01*
X288012Y170590D01*
X287909Y170709D01*
X287790Y170812D01*
X287655Y170894D01*
X287510Y170954D01*
X287357Y170991D01*
X287200Y171000D01*
X285450Y170998D01*
Y172768D01*
X291000Y178318D01*
Y170000D01*
G37*
G36*
X231500Y206500D02*X241500D01*
Y192500D01*
X231500D01*
Y206500D01*
G37*
G54D20*X127200Y175800D02*Y152500D01*
X142800Y175800D02*Y152500D01*
X158400Y175800D02*Y152500D01*
X127200Y176000D02*Y182200D01*
X158400Y176000D02*Y184900D01*
X142800Y176000D02*Y183300D01*
X151000Y191500D01*
Y196000D01*
X127200Y182200D02*X141000Y196000D01*
X158400Y184900D02*X161000Y187500D01*
Y196000D01*
X174000Y152500D02*Y182500D01*
X171000Y185500D01*
Y196000D01*
X189600Y152500D02*Y182400D01*
X181000Y191000D01*
Y196000D01*
X252000Y175800D02*Y152500D01*
Y175500D02*Y190500D01*
X246500Y196000D01*
X220800Y152500D02*Y190300D01*
X226500Y196000D01*
X205200Y152500D02*Y181800D01*
X191000Y196000D01*
X236400Y152500D02*Y195900D01*
X236500Y196000D01*
G54D21*X267600Y152500D02*Y168600D01*
X301000Y202000D01*
X283200Y173700D02*X311000Y201500D01*
X298800Y179800D02*X321000Y202000D01*
X314400Y184900D02*X331000Y201500D01*
X330000Y190500D02*X341000Y201500D01*
X345600Y196600D02*X351000Y202000D01*
X301000D02*Y209000D01*
X311000Y201500D02*Y209000D01*
X321000Y202000D02*Y209000D01*
X331000Y201500D02*Y209000D01*
X341000Y201500D02*Y209000D01*
X351000Y202000D02*Y209000D01*
X283200Y152500D02*Y173700D01*
X298800Y152500D02*Y179800D01*
X314400Y152500D02*Y184900D01*
X330000Y152500D02*Y190500D01*
X345600Y152500D02*Y196600D01*
X361200Y152500D02*Y208800D01*
X361000Y209000D01*
X376800Y152500D02*Y194200D01*
X371000Y200000D01*
Y209000D01*
X392400Y188600D02*X381000Y200000D01*
Y209000D01*
X391000Y199500D02*Y209000D01*
X392400Y152500D02*Y188600D01*
X408000Y152500D02*Y182500D01*
X391000Y199500D01*
X423600Y152500D02*Y179400D01*
X439200Y152500D02*Y174300D01*
X454750Y168750D02*Y155250D01*
X454000Y154500D01*
X423600Y179400D02*X401000Y202000D01*
Y209000D01*
X439200Y174300D02*X411000Y202500D01*
Y209000D01*
X454800Y168700D02*X421000Y202500D01*
Y209000D01*
G54D22*X246500Y196000D03*
G54D19*G36*
X288000Y212000D02*Y206000D01*
X294000D01*
Y212000D01*
X288000D01*
G37*
G54D23*X301000Y209000D03*
X311000D03*
X291000Y219000D03*
X301000D03*
X311000D03*
X321000D03*
X331000D03*
X341000D03*
G54D22*X181000Y196000D03*
G54D20*X191000D03*
G54D19*G36*
X223500Y199000D02*Y193000D01*
X229500D01*
Y199000D01*
X223500D01*
G37*
G36*
X138000D02*Y193000D01*
X144000D01*
Y199000D01*
X138000D01*
G37*
G54D22*X151000Y196000D03*
X161000D03*
X171000D03*
X236500D03*
G54D23*X321000Y209000D03*
X331000D03*
X341000D03*
X351000D03*
Y219000D03*
X361000D03*
X371000D03*
X361000Y209000D03*
X371000D03*
X381000D03*
X391000D03*
X401000D03*
X411000D03*
X381000Y219000D03*
X391000D03*
X401000D03*
X411000D03*
X421000Y209000D03*
X431000D03*
X421000Y219000D03*
X431000D03*
G54D24*X252000Y166000D02*Y139000D01*
X267600Y166000D02*Y139000D01*
X283200Y166000D02*Y139000D01*
X298800Y166000D02*Y139000D01*
X314400Y166000D02*Y139000D01*
X174000Y166000D02*Y139000D01*
X189600Y166000D02*Y139000D01*
X127200Y166000D02*Y139000D01*
X142800Y166000D02*Y139000D01*
X158400Y166000D02*Y139000D01*
X236400Y166000D02*Y139000D01*
X205200Y166000D02*Y139000D01*
X220800Y166000D02*Y139000D01*
X330000Y166000D02*Y139000D01*
X345600Y166000D02*Y139000D01*
X392400Y166000D02*Y139000D01*
X408000Y166000D02*Y139000D01*
X423600Y166000D02*Y139000D01*
X361200Y166000D02*Y139000D01*
X376800Y166000D02*Y139000D01*
X439200Y166000D02*Y139000D01*
X454800Y166000D02*Y139000D01*
G54D25*G54D26*G54D25*G54D26*M02*
