G04 start of page 7 for group -4062 idx -4062 *
G04 Title: (unknown), soldermask *
G04 Creator: pcb 20110918 *
G04 CreationDate: Tue Jan 20 20:48:38 2015 UTC *
G04 For: fosse *
G04 Format: Gerber/RS-274X *
G04 PCB-Dimensions: 600000 500000 *
G04 PCB-Coordinate-Origin: lower left *
%MOIN*%
%FSLAX25Y25*%
%LNBOTTOMMASK*%
%ADD39R,0.0900X0.0900*%
%ADD38C,0.0860*%
%ADD37C,0.0760*%
%ADD36C,0.0001*%
%ADD35C,0.0660*%
G54D35*X341000Y209000D03*
X351000D03*
X361000D03*
X341000Y219000D03*
X351000D03*
X361000D03*
X371000D03*
X381000D03*
X391000D03*
X371000Y209000D03*
X381000D03*
X391000D03*
X401000D03*
Y219000D03*
X411000Y209000D03*
X421000D03*
X431000D03*
X411000Y219000D03*
X421000D03*
X431000D03*
X311000Y209000D03*
Y219000D03*
X321000Y209000D03*
Y219000D03*
G54D36*G36*
X287700Y212300D02*Y205700D01*
X294300D01*
Y212300D01*
X287700D01*
G37*
G54D35*X291000Y219000D03*
X301000Y209000D03*
Y219000D03*
X331000Y209000D03*
Y219000D03*
G54D36*G36*
X223200Y199300D02*Y192700D01*
X229800D01*
Y199300D01*
X223200D01*
G37*
G54D37*X236500Y196000D03*
X246500D03*
G54D36*G36*
X137700Y199300D02*Y192700D01*
X144300D01*
Y199300D01*
X137700D01*
G37*
G54D37*X151000Y196000D03*
X161000D03*
X171000D03*
X181000D03*
G54D38*X191000D03*
G54D39*X252000Y166000D02*Y139000D01*
X267600Y166000D02*Y139000D01*
X283200Y166000D02*Y139000D01*
X298800Y166000D02*Y139000D01*
X314400Y166000D02*Y139000D01*
X174000Y166000D02*Y139000D01*
X189600Y166000D02*Y139000D01*
X127200Y166000D02*Y139000D01*
X142800Y166000D02*Y139000D01*
X158400Y166000D02*Y139000D01*
X236400Y166000D02*Y139000D01*
X205200Y166000D02*Y139000D01*
X220800Y166000D02*Y139000D01*
X330000Y166000D02*Y139000D01*
X345600Y166000D02*Y139000D01*
X392400Y166000D02*Y139000D01*
X408000Y166000D02*Y139000D01*
X423600Y166000D02*Y139000D01*
X361200Y166000D02*Y139000D01*
X376800Y166000D02*Y139000D01*
X439200Y166000D02*Y139000D01*
X454800Y166000D02*Y139000D01*
M02*
