G04 start of page 8 for group -4079 idx -4079 *
G04 Title: (unknown), topsilk *
G04 Creator: pcb 20110918 *
G04 CreationDate: Mon Dec 22 17:10:58 2014 UTC *
G04 For: fosse *
G04 Format: Gerber/RS-274X *
G04 PCB-Dimensions: 600000 500000 *
G04 PCB-Coordinate-Origin: lower left *
%MOIN*%
%FSLAX25Y25*%
%LNTOPSILK*%
%ADD42C,0.0150*%
%ADD41C,0.0400*%
%ADD40C,0.0100*%
G54D40*X303000Y229000D02*Y227700D01*
X302300Y227000D02*X303000Y227700D01*
X299700Y227000D02*X302300D01*
X299700D02*X299000Y227700D01*
Y229000D02*Y227700D01*
Y230200D02*X303000D01*
Y232200D02*Y230200D01*
X299500Y233400D02*X302500D01*
X299500D02*X299000Y233900D01*
Y234900D02*Y233900D01*
Y234900D02*X299500Y235400D01*
X302500D01*
X303000Y234900D02*X302500Y235400D01*
X303000Y234900D02*Y233900D01*
X302500Y233400D02*X303000Y233900D01*
Y238600D02*Y237300D01*
X302300Y236600D02*X303000Y237300D01*
X299700Y236600D02*X302300D01*
X299700D02*X299000Y237300D01*
Y238600D02*Y237300D01*
Y239800D02*X303000D01*
X301000D02*X299000Y241800D01*
X301000Y239800D02*X303000Y241800D01*
X309000Y227000D02*X313000D01*
X309000Y229000D02*Y227000D01*
X310800Y228500D02*Y227000D01*
X310000Y230200D02*X313000D01*
X310000D02*X309000Y230900D01*
Y232000D02*Y230900D01*
Y232000D02*X310000Y232700D01*
X313000D01*
X311000D02*Y230200D01*
X309000Y233900D02*X312500D01*
X313000Y234400D01*
Y235400D02*Y234400D01*
Y235400D02*X312500Y235900D01*
X309000D02*X312500D01*
X309000Y237100D02*X313000D01*
Y239100D02*Y237100D01*
X309000Y242300D02*Y240300D01*
Y241300D02*X313000D01*
X289000Y229000D02*X289500Y229500D01*
X289000Y229000D02*Y227500D01*
X289500Y227000D02*X289000Y227500D01*
X289500Y227000D02*X292500D01*
X293000Y227500D01*
Y229000D02*Y227500D01*
Y229000D02*X292500Y229500D01*
X291500D02*X292500D01*
X291000Y229000D02*X291500Y229500D01*
X291000Y229000D02*Y228000D01*
X289000Y230700D02*X293000D01*
X289000D02*X293000Y233200D01*
X289000D02*X293000D01*
X289000Y234900D02*X293000D01*
X289000Y236200D02*X289700Y236900D01*
X292300D01*
X293000Y236200D02*X292300Y236900D01*
X293000Y236200D02*Y234400D01*
X289000Y236200D02*Y234400D01*
Y238600D02*X293000D01*
X289000Y239900D02*X289700Y240600D01*
X292300D01*
X293000Y239900D02*X292300Y240600D01*
X293000Y239900D02*Y238100D01*
X289000Y239900D02*Y238100D01*
X319000Y229000D02*Y227000D01*
Y228000D02*X323000D01*
Y230200D02*X319000Y232700D01*
Y230200D02*X323000Y232700D01*
X329000Y227500D02*X333000D01*
X329000Y228800D02*X329700Y229500D01*
X332300D01*
X333000Y228800D02*X332300Y229500D01*
X333000Y228800D02*Y227000D01*
X329000Y228800D02*Y227000D01*
X332500Y230700D02*X333000Y231200D01*
X329500Y230700D02*X332500D01*
X329500D02*X329000Y231200D01*
Y232200D02*Y231200D01*
Y232200D02*X329500Y232700D01*
X332500D01*
X333000Y232200D02*X332500Y232700D01*
X333000Y232200D02*Y231200D01*
X332000Y230700D02*X330000Y232700D01*
X107300Y178000D02*Y176500D01*
X109500Y178500D02*Y176500D01*
X105500D02*X109500D01*
X105500Y178500D02*Y176500D01*
X106500Y179700D02*X109500D01*
X106500D02*X105500Y180400D01*
Y181500D02*Y180400D01*
Y181500D02*X106500Y182200D01*
X109500D01*
X107500D02*Y179700D01*
X105500Y185400D02*Y183400D01*
Y184400D02*X109500D01*
X106000Y186600D02*X109000D01*
X106000D02*X105500Y187100D01*
Y188100D02*Y187100D01*
Y188100D02*X106000Y188600D01*
X109000D01*
X109500Y188100D02*X109000Y188600D01*
X109500Y188100D02*Y187100D01*
X109000Y186600D02*X109500Y187100D01*
X105500Y189800D02*X109500D01*
X105500D02*X109500Y192300D01*
X105500D02*X109500D01*
X105500Y195800D02*X109500D01*
X105500Y197300D02*Y195300D01*
Y197300D02*X106000Y197800D01*
X107000D01*
X107500Y197300D02*X107000Y197800D01*
X107500Y197300D02*Y195800D01*
X107300Y200500D02*Y199000D01*
X109500Y201000D02*Y199000D01*
X105500D02*X109500D01*
X105500Y201000D02*Y199000D01*
X106500Y202200D02*X109500D01*
X106500D02*X105500Y202900D01*
Y204000D02*Y202900D01*
Y204000D02*X106500Y204700D01*
X109500D01*
X107500D02*Y202200D01*
X109500Y207900D02*Y205900D01*
Y207900D02*X109000Y208400D01*
X107800D02*X109000D01*
X107300Y207900D02*X107800Y208400D01*
X107300Y207900D02*Y206400D01*
X105500D02*X109500D01*
X105500Y207900D02*Y205900D01*
Y207900D02*X106000Y208400D01*
X106800D01*
X107300Y207900D02*X106800Y208400D01*
X106000Y209600D02*X109000D01*
X106000D02*X105500Y210100D01*
Y211100D02*Y210100D01*
Y211100D02*X106000Y211600D01*
X109000D01*
X109500Y211100D02*X109000Y211600D01*
X109500Y211100D02*Y210100D01*
X109000Y209600D02*X109500Y210100D01*
X105500Y213300D02*X109500D01*
X105500Y214600D02*X106200Y215300D01*
X108800D01*
X109500Y214600D02*X108800Y215300D01*
X109500Y214600D02*Y212800D01*
X105500Y214600D02*Y212800D01*
Y216500D02*X107500Y217500D01*
X105500Y218500D01*
X107500Y217500D02*X109500D01*
X105500Y221500D02*X109500D01*
Y223500D02*Y221500D01*
X106500Y224700D02*X109500D01*
X106500D02*X105500Y225400D01*
Y226500D02*Y225400D01*
Y226500D02*X106500Y227200D01*
X109500D01*
X107500D02*Y224700D01*
X109500Y230400D02*Y228400D01*
Y230400D02*X109000Y230900D01*
X107800D02*X109000D01*
X107300Y230400D02*X107800Y230900D01*
X107300Y230400D02*Y228900D01*
X105500D02*X109500D01*
X105500Y230400D02*Y228400D01*
Y230400D02*X106000Y230900D01*
X106800D01*
X107300Y230400D02*X106800Y230900D01*
X112500Y176500D02*X112000Y177000D01*
Y178500D02*Y177000D01*
Y178500D02*X112500Y179000D01*
X113500D01*
X116000Y176500D02*X113500Y179000D01*
X116000D02*Y176500D01*
X115500Y180200D02*X116000Y180700D01*
X112500Y180200D02*X115500D01*
X112500D02*X112000Y180700D01*
Y181700D02*Y180700D01*
Y181700D02*X112500Y182200D01*
X115500D01*
X116000Y181700D02*X115500Y182200D01*
X116000Y181700D02*Y180700D01*
X115000Y180200D02*X113000Y182200D01*
X112800Y183400D02*X112000Y184200D01*
X116000D01*
Y184900D02*Y183400D01*
X114500Y186100D02*X112000Y188100D01*
X114500Y188600D02*Y186100D01*
X112000Y188100D02*X116000D01*
Y190300D02*Y189800D01*
X112800Y191500D02*X112000Y192300D01*
X116000D01*
Y193000D02*Y191500D01*
X112500Y194200D02*X112000Y194700D01*
Y196200D02*Y194700D01*
Y196200D02*X112500Y196700D01*
X113500D01*
X116000Y194200D02*X113500Y196700D01*
X116000D02*Y194200D01*
Y198400D02*Y197900D01*
X112800Y199600D02*X112000Y200400D01*
X116000D01*
Y201100D02*Y199600D01*
Y202800D02*X114000Y204300D01*
X112500D02*X114000D01*
X112000Y203800D02*X112500Y204300D01*
X112000Y203800D02*Y202800D01*
X112500Y202300D02*X112000Y202800D01*
X112500Y202300D02*X113500D01*
X114000Y202800D01*
Y204300D02*Y202800D01*
X92500Y178500D02*X93000Y179000D01*
X92500Y178500D02*Y177000D01*
X93000Y176500D02*X92500Y177000D01*
X93000Y176500D02*X94000D01*
X94500Y177000D01*
Y178500D02*Y177000D01*
Y178500D02*X95000Y179000D01*
X96000D01*
X96500Y178500D02*X96000Y179000D01*
X96500Y178500D02*Y177000D01*
X96000Y176500D02*X96500Y177000D01*
X92500Y180200D02*X96000D01*
X96500Y180700D01*
Y181700D02*Y180700D01*
Y181700D02*X96000Y182200D01*
X92500D02*X96000D01*
X96500Y185400D02*Y183400D01*
Y185400D02*X96000Y185900D01*
X94800D02*X96000D01*
X94300Y185400D02*X94800Y185900D01*
X94300Y185400D02*Y183900D01*
X92500D02*X96500D01*
X92500Y185400D02*Y183400D01*
Y185400D02*X93000Y185900D01*
X93800D01*
X94300Y185400D02*X93800Y185900D01*
X92500Y189100D02*Y187100D01*
Y189100D02*X93000Y189600D01*
X94000D01*
X94500Y189100D02*X94000Y189600D01*
X94500Y189100D02*Y187600D01*
X92500D02*X96500D01*
X94500Y188400D02*X96500Y189600D01*
X93500Y190800D02*X96500D01*
X93500D02*X92500Y191500D01*
Y192600D02*Y191500D01*
Y192600D02*X93500Y193300D01*
X96500D01*
X94500D02*Y190800D01*
X96500Y196500D02*Y195200D01*
X95800Y194500D02*X96500Y195200D01*
X93200Y194500D02*X95800D01*
X93200D02*X92500Y195200D01*
Y196500D02*Y195200D01*
Y197700D02*X96500D01*
X94500D02*X92500Y199700D01*
X94500Y197700D02*X96500Y199700D01*
X94300Y204200D02*Y202700D01*
X96500Y204700D02*Y202700D01*
X92500D02*X96500D01*
X92500Y204700D02*Y202700D01*
Y206400D02*X96500D01*
X92500Y207700D02*X93200Y208400D01*
X95800D01*
X96500Y207700D02*X95800Y208400D01*
X96500Y207700D02*Y205900D01*
X92500Y207700D02*Y205900D01*
Y211600D02*X93000Y212100D01*
X92500Y211600D02*Y210100D01*
X93000Y209600D02*X92500Y210100D01*
X93000Y209600D02*X96000D01*
X96500Y210100D01*
Y211600D02*Y210100D01*
Y211600D02*X96000Y212100D01*
X95000D02*X96000D01*
X94500Y211600D02*X95000Y212100D01*
X94500Y211600D02*Y210600D01*
X94300Y214800D02*Y213300D01*
X96500Y215300D02*Y213300D01*
X92500D02*X96500D01*
X92500Y215300D02*Y213300D01*
X96500Y218500D02*Y217200D01*
X95800Y216500D02*X96500Y217200D01*
X93200Y216500D02*X95800D01*
X93200D02*X92500Y217200D01*
Y218500D02*Y217200D01*
X93500Y219700D02*X96500D01*
X93500D02*X92500Y220400D01*
Y221500D02*Y220400D01*
Y221500D02*X93500Y222200D01*
X96500D01*
X94500D02*Y219700D01*
X92500Y225400D02*Y223400D01*
Y225400D02*X93000Y225900D01*
X94000D01*
X94500Y225400D02*X94000Y225900D01*
X94500Y225400D02*Y223900D01*
X92500D02*X96500D01*
X94500Y224700D02*X96500Y225900D01*
X92500Y227600D02*X96500D01*
X92500Y228900D02*X93200Y229600D01*
X95800D01*
X96500Y228900D02*X95800Y229600D01*
X96500Y228900D02*Y227100D01*
X92500Y228900D02*Y227100D01*
X99000Y177000D02*X103000D01*
X99000Y178300D02*X99700Y179000D01*
X102300D01*
X103000Y178300D02*X102300Y179000D01*
X103000Y178300D02*Y176500D01*
X99000Y178300D02*Y176500D01*
X100800Y181700D02*Y180200D01*
X103000Y182200D02*Y180200D01*
X99000D02*X103000D01*
X99000Y182200D02*Y180200D01*
Y185400D02*X99500Y185900D01*
X99000Y185400D02*Y183900D01*
X99500Y183400D02*X99000Y183900D01*
X99500Y183400D02*X100500D01*
X101000Y183900D01*
Y185400D02*Y183900D01*
Y185400D02*X101500Y185900D01*
X102500D01*
X103000Y185400D02*X102500Y185900D01*
X103000Y185400D02*Y183900D01*
X102500Y183400D02*X103000Y183900D01*
X99000Y188100D02*Y187100D01*
Y187600D02*X103000D01*
Y188100D02*Y187100D01*
X99000Y191300D02*X99500Y191800D01*
X99000Y191300D02*Y189800D01*
X99500Y189300D02*X99000Y189800D01*
X99500Y189300D02*X102500D01*
X103000Y189800D01*
Y191300D02*Y189800D01*
Y191300D02*X102500Y191800D01*
X101500D02*X102500D01*
X101000Y191300D02*X101500Y191800D01*
X101000Y191300D02*Y190300D01*
X99000Y193000D02*X103000D01*
X99000D02*X103000Y195500D01*
X99000D02*X103000D01*
X100800Y198200D02*Y196700D01*
X103000Y198700D02*Y196700D01*
X99000D02*X103000D01*
X99000Y198700D02*Y196700D01*
Y200400D02*X103000D01*
X99000Y201700D02*X99700Y202400D01*
X102300D01*
X103000Y201700D02*X102300Y202400D01*
X103000Y201700D02*Y199900D01*
X99000Y201700D02*Y199900D01*
X103000Y207400D02*Y205400D01*
Y207400D02*X102500Y207900D01*
X101300D02*X102500D01*
X100800Y207400D02*X101300Y207900D01*
X100800Y207400D02*Y205900D01*
X99000D02*X103000D01*
X99000Y207400D02*Y205400D01*
Y207400D02*X99500Y207900D01*
X100300D01*
X100800Y207400D02*X100300Y207900D01*
X99000Y209100D02*X101000Y210100D01*
X99000Y211100D01*
X101000Y210100D02*X103000D01*
X100800Y215600D02*Y214100D01*
X103000Y216100D02*Y214100D01*
X99000D02*X103000D01*
X99000Y216100D02*Y214100D01*
Y217300D02*X103000Y218300D01*
X99000Y219300D01*
X100000Y220500D02*X103000D01*
X100000D02*X99000Y221200D01*
Y222300D02*Y221200D01*
Y222300D02*X100000Y223000D01*
X103000D01*
X101000D02*Y220500D01*
X99000Y224200D02*X103000D01*
X99000D02*X103000Y226700D01*
X99000D02*X103000D01*
X99000Y229700D02*X103000D01*
X99000Y231700D02*Y229700D01*
X100800Y231200D02*Y229700D01*
X99500Y232900D02*X102500D01*
X99500D02*X99000Y233400D01*
Y234400D02*Y233400D01*
Y234400D02*X99500Y234900D01*
X102500D01*
X103000Y234400D02*X102500Y234900D01*
X103000Y234400D02*Y233400D01*
X102500Y232900D02*X103000Y233400D01*
X99000Y238100D02*X99500Y238600D01*
X99000Y238100D02*Y236600D01*
X99500Y236100D02*X99000Y236600D01*
X99500Y236100D02*X100500D01*
X101000Y236600D01*
Y238100D02*Y236600D01*
Y238100D02*X101500Y238600D01*
X102500D01*
X103000Y238100D02*X102500Y238600D01*
X103000Y238100D02*Y236600D01*
X102500Y236100D02*X103000Y236600D01*
X99000Y241800D02*X99500Y242300D01*
X99000Y241800D02*Y240300D01*
X99500Y239800D02*X99000Y240300D01*
X99500Y239800D02*X100500D01*
X101000Y240300D01*
Y241800D02*Y240300D01*
Y241800D02*X101500Y242300D01*
X102500D01*
X103000Y241800D02*X102500Y242300D01*
X103000Y241800D02*Y240300D01*
X102500Y239800D02*X103000Y240300D01*
X339000Y227500D02*X343000D01*
X339000Y228800D02*X339700Y229500D01*
X342300D01*
X343000Y228800D02*X342300Y229500D01*
X343000Y228800D02*Y227000D01*
X339000Y228800D02*Y227000D01*
X339500Y230700D02*X339000Y231200D01*
Y232700D02*Y231200D01*
Y232700D02*X339500Y233200D01*
X340500D01*
X343000Y230700D02*X340500Y233200D01*
X343000D02*Y230700D01*
X349000Y227500D02*X353000D01*
X349000Y228800D02*X349700Y229500D01*
X352300D01*
X353000Y228800D02*X352300Y229500D01*
X353000Y228800D02*Y227000D01*
X349000Y228800D02*Y227000D01*
X351500Y230700D02*X349000Y232700D01*
X351500Y233200D02*Y230700D01*
X349000Y232700D02*X353000D01*
X359000Y227500D02*X363000D01*
X359000Y228800D02*X359700Y229500D01*
X362300D01*
X363000Y228800D02*X362300Y229500D01*
X363000Y228800D02*Y227000D01*
X359000Y228800D02*Y227000D01*
Y232200D02*X359500Y232700D01*
X359000Y232200D02*Y231200D01*
X359500Y230700D02*X359000Y231200D01*
X359500Y230700D02*X362500D01*
X363000Y231200D01*
X360800Y232200D02*X361300Y232700D01*
X360800Y232200D02*Y230700D01*
X363000Y232200D02*Y231200D01*
Y232200D02*X362500Y232700D01*
X361300D02*X362500D01*
X379000Y228000D02*Y227000D01*
Y227500D02*X383000D01*
Y228000D02*Y227000D01*
X379000Y229200D02*X383000D01*
X379000D02*X383000Y231700D01*
X379000D02*X383000D01*
X379000Y234900D02*Y232900D01*
Y233900D02*X383000D01*
X379500Y236100D02*X379000Y236600D01*
Y238100D02*Y236600D01*
Y238100D02*X379500Y238600D01*
X380500D01*
X383000Y236100D02*X380500Y238600D01*
X383000D02*Y236100D01*
X369000Y228000D02*Y227000D01*
Y227500D02*X373000D01*
Y228000D02*Y227000D01*
X369000Y229200D02*X373000D01*
X369000D02*X373000Y231700D01*
X369000D02*X373000D01*
X369000Y234900D02*Y232900D01*
Y233900D02*X373000D01*
X372500Y236100D02*X373000Y236600D01*
X369500Y236100D02*X372500D01*
X369500D02*X369000Y236600D01*
Y237600D02*Y236600D01*
Y237600D02*X369500Y238100D01*
X372500D01*
X373000Y237600D02*X372500Y238100D01*
X373000Y237600D02*Y236600D01*
X372000Y236100D02*X370000Y238100D01*
X359000Y189000D02*X363000D01*
X359000Y190300D02*X359700Y191000D01*
X362300D01*
X363000Y190300D02*X362300Y191000D01*
X363000Y190300D02*Y188500D01*
X359000Y190300D02*Y188500D01*
X363000Y192700D02*X359000Y194700D01*
Y192200D01*
X349000Y189500D02*X353000D01*
X349000Y190800D02*X349700Y191500D01*
X352300D01*
X353000Y190800D02*X352300Y191500D01*
X353000Y190800D02*Y189000D01*
X349000Y190800D02*Y189000D01*
Y194700D02*Y192700D01*
X351000D01*
X350500Y193200D01*
Y194200D02*Y193200D01*
Y194200D02*X351000Y194700D01*
X352500D01*
X353000Y194200D02*X352500Y194700D01*
X353000Y194200D02*Y193200D01*
X352500Y192700D02*X353000Y193200D01*
X339000Y189500D02*X343000D01*
X339000Y190800D02*X339700Y191500D01*
X342300D01*
X343000Y190800D02*X342300Y191500D01*
X343000Y190800D02*Y189000D01*
X339000Y190800D02*Y189000D01*
X339500Y192700D02*X339000Y193200D01*
Y194200D02*Y193200D01*
Y194200D02*X339500Y194700D01*
X343000Y194200D02*X342500Y194700D01*
X343000Y194200D02*Y193200D01*
X342500Y192700D02*X343000Y193200D01*
X340800Y194200D02*Y193200D01*
X339500Y194700D02*X340300D01*
X341300D02*X342500D01*
X341300D02*X340800Y194200D01*
X340300Y194700D02*X340800Y194200D01*
X329000Y190000D02*X333000D01*
X329000Y191300D02*X329700Y192000D01*
X332300D01*
X333000Y191300D02*X332300Y192000D01*
X333000Y191300D02*Y189500D01*
X329000Y191300D02*Y189500D01*
X329800Y193200D02*X329000Y194000D01*
X333000D01*
Y194700D02*Y193200D01*
X319000Y191000D02*Y189000D01*
Y191000D02*X319500Y191500D01*
X320500D01*
X321000Y191000D02*X320500Y191500D01*
X321000Y191000D02*Y189500D01*
X319000D02*X323000D01*
X321000Y190300D02*X323000Y191500D01*
Y192700D02*X319000Y195200D01*
Y192700D02*X323000Y195200D01*
X299000Y186000D02*Y184000D01*
Y186000D02*X299500Y186500D01*
X300500D01*
X301000Y186000D02*X300500Y186500D01*
X301000Y186000D02*Y184500D01*
X299000D02*X303000D01*
X301000Y185300D02*X303000Y186500D01*
X302500Y187700D02*X299500Y190700D01*
X299000Y191900D02*X301000D01*
X303000Y192400D01*
X301000Y193400D01*
X303000Y194400D01*
X301000Y194900D01*
X299000D02*X301000D01*
X312500Y175000D02*X309500Y178000D01*
X309000Y181200D02*Y179200D01*
Y181200D02*X309500Y181700D01*
X310500D01*
X311000Y181200D02*X310500Y181700D01*
X311000Y181200D02*Y179700D01*
X309000D02*X313000D01*
X311000Y180500D02*X313000Y181700D01*
X310800Y184400D02*Y182900D01*
X313000Y184900D02*Y182900D01*
X309000D02*X313000D01*
X309000Y184900D02*Y182900D01*
Y188100D02*X309500Y188600D01*
X309000Y188100D02*Y186600D01*
X309500Y186100D02*X309000Y186600D01*
X309500Y186100D02*X310500D01*
X311000Y186600D01*
Y188100D02*Y186600D01*
Y188100D02*X311500Y188600D01*
X312500D01*
X313000Y188100D02*X312500Y188600D01*
X313000Y188100D02*Y186600D01*
X312500Y186100D02*X313000Y186600D01*
X310800Y191300D02*Y189800D01*
X313000Y191800D02*Y189800D01*
X309000D02*X313000D01*
X309000Y191800D02*Y189800D01*
Y195000D02*Y193000D01*
Y194000D02*X313000D01*
X289000Y183000D02*X289500Y183500D01*
X289000Y183000D02*Y181500D01*
X289500Y181000D02*X289000Y181500D01*
X289500Y181000D02*X292500D01*
X293000Y181500D01*
Y183000D02*Y181500D01*
Y183000D02*X292500Y183500D01*
X291500D02*X292500D01*
X291000Y183000D02*X291500Y183500D01*
X291000Y183000D02*Y182000D01*
X289000Y184700D02*X293000D01*
X289000D02*X293000Y187200D01*
X289000D02*X293000D01*
X289000Y188900D02*X293000D01*
X289000Y190200D02*X289700Y190900D01*
X292300D01*
X293000Y190200D02*X292300Y190900D01*
X293000Y190200D02*Y188400D01*
X289000Y190200D02*Y188400D01*
Y192600D02*X293000D01*
X289000Y193900D02*X289700Y194600D01*
X292300D01*
X293000Y193900D02*X292300Y194600D01*
X293000Y193900D02*Y192100D01*
X289000Y193900D02*Y192100D01*
X399500Y227000D02*X402500D01*
X399500D02*X398500Y227700D01*
Y228800D02*Y227700D01*
Y228800D02*X399500Y229500D01*
X402500D01*
X400500D02*Y227000D01*
X399000Y230700D02*X398500Y231200D01*
Y232700D02*Y231200D01*
Y232700D02*X399000Y233200D01*
X400000D01*
X402500Y230700D02*X400000Y233200D01*
X402500D02*Y230700D01*
X409500Y227000D02*X412500D01*
X409500D02*X408500Y227700D01*
Y228800D02*Y227700D01*
Y228800D02*X409500Y229500D01*
X412500D01*
X410500D02*Y227000D01*
X412000Y230700D02*X412500Y231200D01*
X409000Y230700D02*X412000D01*
X409000D02*X408500Y231200D01*
Y232200D02*Y231200D01*
Y232200D02*X409000Y232700D01*
X412000D01*
X412500Y232200D02*X412000Y232700D01*
X412500Y232200D02*Y231200D01*
X411500Y230700D02*X409500Y232700D01*
X419000Y229000D02*X419500Y229500D01*
X419000Y229000D02*Y227500D01*
X419500Y227000D02*X419000Y227500D01*
X419500Y227000D02*X420500D01*
X421000Y227500D01*
Y229000D02*Y227500D01*
Y229000D02*X421500Y229500D01*
X422500D01*
X423000Y229000D02*X422500Y229500D01*
X423000Y229000D02*Y227500D01*
X422500Y227000D02*X423000Y227500D01*
X419000Y230700D02*X421000Y231700D01*
X419000Y232700D01*
X421000Y231700D02*X423000D01*
X419000Y233900D02*X423000D01*
X419000D02*X423000Y236400D01*
X419000D02*X423000D01*
Y239600D02*Y238300D01*
X422300Y237600D02*X423000Y238300D01*
X419700Y237600D02*X422300D01*
X419700D02*X419000Y238300D01*
Y239600D02*Y238300D01*
Y241300D02*X423000D01*
X419000Y242800D02*Y240800D01*
Y242800D02*X419500Y243300D01*
X420500D01*
X421000Y242800D02*X420500Y243300D01*
X421000Y242800D02*Y241300D01*
X429000Y229000D02*X429500Y229500D01*
X429000Y229000D02*Y227500D01*
X429500Y227000D02*X429000Y227500D01*
X429500Y227000D02*X432500D01*
X433000Y227500D01*
Y229000D02*Y227500D01*
Y229000D02*X432500Y229500D01*
X431500D02*X432500D01*
X431000Y229000D02*X431500Y229500D01*
X431000Y229000D02*Y228000D01*
X429000Y230700D02*X433000D01*
X429000D02*X433000Y233200D01*
X429000D02*X433000D01*
X429000Y234900D02*X433000D01*
X429000Y236200D02*X429700Y236900D01*
X432300D01*
X433000Y236200D02*X432300Y236900D01*
X433000Y236200D02*Y234400D01*
X429000Y236200D02*Y234400D01*
Y238600D02*X433000D01*
X429000Y239900D02*X429700Y240600D01*
X432300D01*
X433000Y239900D02*X432300Y240600D01*
X433000Y239900D02*Y238100D01*
X429000Y239900D02*Y238100D01*
X389000Y228000D02*Y227000D01*
Y227500D02*X393000D01*
Y228000D02*Y227000D01*
X389000Y229200D02*X393000D01*
X389000D02*X393000Y231700D01*
X389000D02*X393000D01*
X389000Y234900D02*Y232900D01*
Y233900D02*X393000D01*
X391500Y236100D02*X389000Y238100D01*
X391500Y238600D02*Y236100D01*
X389000Y238100D02*X393000D01*
X379000Y184500D02*Y183500D01*
Y184000D02*X383000D01*
Y184500D02*Y183500D01*
X379000Y185700D02*X383000D01*
X379000D02*X383000Y188200D01*
X379000D02*X383000D01*
X379000Y191400D02*Y189400D01*
Y190400D02*X383000D01*
X379500Y192600D02*X379000Y193100D01*
Y194100D02*Y193100D01*
Y194100D02*X379500Y194600D01*
X383000Y194100D02*X382500Y194600D01*
X383000Y194100D02*Y193100D01*
X382500Y192600D02*X383000Y193100D01*
X380800Y194100D02*Y193100D01*
X379500Y194600D02*X380300D01*
X381300D02*X382500D01*
X381300D02*X380800Y194100D01*
X380300Y194600D02*X380800Y194100D01*
X389500Y188500D02*X392500D01*
X389500D02*X388500Y189200D01*
Y190300D02*Y189200D01*
Y190300D02*X389500Y191000D01*
X392500D01*
X390500D02*Y188500D01*
X391000Y192200D02*X388500Y194200D01*
X391000Y194700D02*Y192200D01*
X388500Y194200D02*X392500D01*
X400000Y189000D02*X403000D01*
X400000D02*X399000Y189700D01*
Y190800D02*Y189700D01*
Y190800D02*X400000Y191500D01*
X403000D01*
X401000D02*Y189000D01*
X399500Y192700D02*X399000Y193200D01*
Y194200D02*Y193200D01*
Y194200D02*X399500Y194700D01*
X403000Y194200D02*X402500Y194700D01*
X403000Y194200D02*Y193200D01*
X402500Y192700D02*X403000Y193200D01*
X400800Y194200D02*Y193200D01*
X399500Y194700D02*X400300D01*
X401300D02*X402500D01*
X401300D02*X400800Y194200D01*
X400300Y194700D02*X400800Y194200D01*
X369000Y185000D02*Y184000D01*
Y184500D02*X373000D01*
Y185000D02*Y184000D01*
X369000Y186200D02*X373000D01*
X369000D02*X373000Y188700D01*
X369000D02*X373000D01*
X369000Y191900D02*Y189900D01*
Y190900D02*X373000D01*
X369800Y193100D02*X369000Y193900D01*
X373000D01*
Y194600D02*Y193100D01*
X410000Y189500D02*X413000D01*
X410000D02*X409000Y190200D01*
Y191300D02*Y190200D01*
Y191300D02*X410000Y192000D01*
X413000D01*
X411000D02*Y189500D01*
X409800Y193200D02*X409000Y194000D01*
X413000D01*
Y194700D02*Y193200D01*
X419000Y180500D02*X419500Y181000D01*
X419000Y180500D02*Y179000D01*
X419500Y178500D02*X419000Y179000D01*
X419500Y178500D02*X420500D01*
X421000Y179000D01*
Y180500D02*Y179000D01*
Y180500D02*X421500Y181000D01*
X422500D01*
X423000Y180500D02*X422500Y181000D01*
X423000Y180500D02*Y179000D01*
X422500Y178500D02*X423000Y179000D01*
X419000Y182200D02*X421000Y183200D01*
X419000Y184200D01*
X421000Y183200D02*X423000D01*
X419000Y185400D02*X423000D01*
X419000D02*X423000Y187900D01*
X419000D02*X423000D01*
Y191100D02*Y189800D01*
X422300Y189100D02*X423000Y189800D01*
X419700Y189100D02*X422300D01*
X419700D02*X419000Y189800D01*
Y191100D02*Y189800D01*
Y192300D02*X423000D01*
X419000D02*X423000Y194800D01*
X419000D02*X423000D01*
X429000Y183000D02*X429500Y183500D01*
X429000Y183000D02*Y181500D01*
X429500Y181000D02*X429000Y181500D01*
X429500Y181000D02*X432500D01*
X433000Y181500D01*
Y183000D02*Y181500D01*
Y183000D02*X432500Y183500D01*
X431500D02*X432500D01*
X431000Y183000D02*X431500Y183500D01*
X431000Y183000D02*Y182000D01*
X429000Y184700D02*X433000D01*
X429000D02*X433000Y187200D01*
X429000D02*X433000D01*
X429000Y188900D02*X433000D01*
X429000Y190200D02*X429700Y190900D01*
X432300D01*
X433000Y190200D02*X432300Y190900D01*
X433000Y190200D02*Y188400D01*
X429000Y190200D02*Y188400D01*
Y192600D02*X433000D01*
X429000Y193900D02*X429700Y194600D01*
X432300D01*
X433000Y193900D02*X432300Y194600D01*
X433000Y193900D02*Y192100D01*
X429000Y193900D02*Y192100D01*
X157500Y238700D02*X191000D01*
Y219000D01*
X141000D02*Y238700D01*
X136000Y206500D02*Y219000D01*
X196000D02*Y206500D01*
X136000D02*X196000D01*
Y219000D02*X191000D01*
X136000D02*X141000D01*
X187500D02*X184500D01*
X177500D02*X174500D01*
X167500D02*X164500D01*
X147500D02*X144500D01*
G54D41*X151000Y232400D02*Y230200D01*
X161000Y232400D02*Y230200D01*
X171000Y232400D02*Y230200D01*
X181000Y232400D02*Y230200D01*
X191000Y232400D02*Y230200D01*
X141000Y232400D02*Y230200D01*
X151000Y223400D02*Y221200D01*
X161000Y223400D02*Y221200D01*
X191000Y223400D02*Y221200D01*
X141000Y223400D02*Y221200D01*
X161000Y214400D02*Y212200D01*
X171000Y214400D02*Y212200D01*
X191000Y214400D02*Y212200D01*
X141000Y214400D02*Y212200D01*
X151000Y214400D02*Y212200D01*
X181000Y214400D02*Y212200D01*
Y223400D02*Y221200D01*
X171000Y223400D02*Y221200D01*
X141000Y204500D02*Y196000D01*
X151000Y204500D02*Y196000D01*
X161000Y204500D02*Y196000D01*
X171000Y204500D02*Y196000D01*
X181000Y204500D02*Y196000D01*
X191000Y204500D02*Y196000D01*
G54D40*X154500Y238700D02*Y219000D01*
X157500D02*Y238700D01*
Y219000D02*X154500D01*
Y238700D02*X141000D01*
G54D41*X151000Y240200D02*Y243400D01*
X141000Y240200D02*Y243400D01*
X161000Y240200D02*Y243400D01*
X171000Y240200D02*Y243400D01*
X181000Y240200D02*Y243400D01*
X191000Y240200D02*Y243400D01*
G54D42*X139750Y240400D02*Y219300D01*
X192250Y240700D02*Y219300D01*
G54D40*X226500Y219000D02*Y238700D01*
X221500Y206500D02*Y219000D01*
X226500D01*
X233000D02*X230000D01*
G54D41*X236500Y232400D02*Y230200D01*
X226500Y232400D02*Y230200D01*
X236500Y223400D02*Y221200D01*
X226500Y223400D02*Y221200D01*
Y214400D02*Y212200D01*
X236500Y214400D02*Y212200D01*
X226500Y204500D02*Y196000D01*
X236500Y204500D02*Y196000D01*
Y240200D02*Y243400D01*
X226500Y240200D02*Y243400D01*
G54D42*X225250Y240400D02*Y219300D01*
G54D40*X246500Y238700D02*Y219000D01*
X251500D02*Y206500D01*
Y219000D02*X246500D01*
X243000D02*X240000D01*
G54D41*X246500Y232400D02*Y230200D01*
Y223400D02*Y221200D01*
Y214400D02*Y212200D01*
Y204500D02*Y196000D01*
Y240200D02*Y243400D01*
G54D42*X247750Y240700D02*Y219300D01*
G54D40*X221500Y206500D02*X251500D01*
X226500Y238700D02*X246500D01*
X286000Y204000D02*X436000D01*
Y224000D02*Y204000D01*
X286000Y224000D02*X436000D01*
X286000D02*Y204000D01*
X296000Y214000D02*Y204000D01*
X286000Y214000D02*X296000D01*
X158700Y187500D02*X160000D01*
X158000Y188200D02*X158700Y187500D01*
X158000Y190800D02*Y188200D01*
Y190800D02*X158700Y191500D01*
X160000D01*
X161200Y191000D02*Y188000D01*
Y191000D02*X161700Y191500D01*
X162700D01*
X163200Y191000D01*
Y188000D01*
X162700Y187500D02*X163200Y188000D01*
X161700Y187500D02*X162700D01*
X161200Y188000D02*X161700Y187500D01*
X164400Y191500D02*Y187500D01*
Y191500D02*X166900Y187500D01*
Y191500D02*Y187500D01*
X168100Y191500D02*Y187500D01*
Y191500D02*X170600Y187500D01*
Y191500D02*Y187500D01*
X171800Y191000D02*X172300Y191500D01*
X173800D01*
X174300Y191000D01*
Y190000D01*
X171800Y187500D02*X174300Y190000D01*
X171800Y187500D02*X174300D01*
X229200D02*X230500D01*
X228500Y188200D02*X229200Y187500D01*
X228500Y190800D02*Y188200D01*
Y190800D02*X229200Y191500D01*
X230500D01*
X231700Y191000D02*Y188000D01*
Y191000D02*X232200Y191500D01*
X233200D01*
X233700Y191000D01*
Y188000D01*
X233200Y187500D02*X233700Y188000D01*
X232200Y187500D02*X233200D01*
X231700Y188000D02*X232200Y187500D01*
X234900Y191500D02*Y187500D01*
Y191500D02*X237400Y187500D01*
Y191500D02*Y187500D01*
X238600Y191500D02*Y187500D01*
Y191500D02*X241100Y187500D01*
Y191500D02*Y187500D01*
X242300Y189000D02*X244300Y191500D01*
X242300Y189000D02*X244800D01*
X244300Y191500D02*Y187500D01*
X286700Y199000D02*X288000D01*
X286000Y199700D02*X286700Y199000D01*
X286000Y202300D02*Y199700D01*
Y202300D02*X286700Y203000D01*
X288000D01*
X289200Y202500D02*Y199500D01*
Y202500D02*X289700Y203000D01*
X290700D01*
X291200Y202500D01*
Y199500D01*
X290700Y199000D02*X291200Y199500D01*
X289700Y199000D02*X290700D01*
X289200Y199500D02*X289700Y199000D01*
X292400Y203000D02*Y199000D01*
Y203000D02*X294900Y199000D01*
Y203000D02*Y199000D01*
X296100Y203000D02*Y199000D01*
Y203000D02*X298600Y199000D01*
Y203000D02*Y199000D01*
X299800Y202500D02*X300300Y203000D01*
X301300D01*
X301800Y202500D01*
X301300Y199000D02*X301800Y199500D01*
X300300Y199000D02*X301300D01*
X299800Y199500D02*X300300Y199000D01*
Y201200D02*X301300D01*
X301800Y202500D02*Y201700D01*
Y200700D02*Y199500D01*
Y200700D02*X301300Y201200D01*
X301800Y201700D02*X301300Y201200D01*
X283700Y127500D02*X285000D01*
X283000Y128200D02*X283700Y127500D01*
X283000Y130800D02*Y128200D01*
Y130800D02*X283700Y131500D01*
X285000D01*
X286200Y131000D02*Y128000D01*
Y131000D02*X286700Y131500D01*
X287700D01*
X288200Y131000D01*
Y128000D01*
X287700Y127500D02*X288200Y128000D01*
X286700Y127500D02*X287700D01*
X286200Y128000D02*X286700Y127500D01*
X289400Y131500D02*Y127500D01*
Y131500D02*X291900Y127500D01*
Y131500D02*Y127500D01*
X293100Y131500D02*Y127500D01*
Y131500D02*X295600Y127500D01*
Y131500D02*Y127500D01*
X296800Y130700D02*X297600Y131500D01*
Y127500D01*
X296800D02*X298300D01*
M02*
