M48
INCH
T29C0.042
T28C0.038
%
T28
X034100Y020900
X035100Y020900
X036100Y020900
X034100Y021900
X035100Y021900
X036100Y021900
X037100Y021900
X038100Y021900
X039100Y021900
X037100Y020900
X038100Y020900
X039100Y020900
X040100Y020900
X040100Y021900
X041100Y020900
X042100Y020900
X043100Y020900
X041100Y021900
X042100Y021900
X043100Y021900
X031100Y020900
X031100Y021900
X032100Y020900
X032100Y021900
X029100Y020900
X029100Y021900
X030100Y020900
X030100Y021900
X033100Y020900
X033100Y021900
T29
X022650Y019600
X023650Y019600
X024650Y019600
X014100Y019600
X015100Y019600
X016100Y019600
X017100Y019600
X018100Y019600
X019100Y019600
M30
