G04 start of page 10 for group -4015 idx -4015 *
G04 Title: (unknown), toppaste *
G04 Creator: pcb 20110918 *
G04 CreationDate: Mon Dec 22 17:10:58 2014 UTC *
G04 For: fosse *
G04 Format: Gerber/RS-274X *
G04 PCB-Dimensions: 600000 500000 *
G04 PCB-Coordinate-Origin: lower left *
%MOIN*%
%FSLAX25Y25*%
%LNTOPPASTE*%
%ADD44R,0.0800X0.0800*%
G54D44*X127200Y166000D02*Y139000D01*
X142800Y166000D02*Y139000D01*
X158400Y166000D02*Y139000D01*
X174000Y166000D02*Y139000D01*
X189600Y166000D02*Y139000D01*
X205200Y166000D02*Y139000D01*
X220800Y166000D02*Y139000D01*
X236400Y166000D02*Y139000D01*
X252000Y166000D02*Y139000D01*
X267600Y166000D02*Y139000D01*
X283200Y166000D02*Y139000D01*
X298800Y166000D02*Y139000D01*
X314400Y166000D02*Y139000D01*
X330000Y166000D02*Y139000D01*
X345600Y166000D02*Y139000D01*
X361200Y166000D02*Y139000D01*
X376800Y166000D02*Y139000D01*
X392400Y166000D02*Y139000D01*
X408000Y166000D02*Y139000D01*
X423600Y166000D02*Y139000D01*
X439200Y166000D02*Y139000D01*
X454800Y166000D02*Y139000D01*
M02*
