G04 start of page 2 for group -1 layer_idx 268435459 *
G04 Title: (unknown), <virtual group> *
G04 Creator: pcb-rnd 2.3.0 *
G04 CreationDate: 2021-05-04 01:15:46 UTC *
G04 For:  *
G04 Format: Gerber/RS-274X *
G04 PCB-Dimensions: 600000 500000 *
G04 PCB-Coordinate-Origin: lower left *
%MOIN*%
%FSLAX25Y25*%
%LNTOP_VIRTUAL_ASSY_NONE*%
%ADD56C,0.0070*%
%ADD55C,0.0150*%
%ADD54C,0.0400*%
%ADD53C,0.0100*%
%ADD52C,0.0380*%
%ADD51C,0.0420*%
%ADD50C,0.0600*%
%ADD49C,0.0800*%
%ADD48C,0.0700*%
%ADD47C,0.0001*%
G54D47*G36*
X131200Y170000D02*X123200D01*
Y135000D01*
X131200D01*
Y170000D01*
G37*
G36*
X146800D02*X138800D01*
Y135000D01*
X146800D01*
Y170000D01*
G37*
G36*
X138000Y199000D02*X144000D01*
Y193000D01*
X138000D01*
Y199000D01*
G37*
G36*
X162400Y170000D02*X154400D01*
Y135000D01*
X162400D01*
Y170000D01*
G37*
G54D48*X151000Y196000D03*
X161000D03*
X171000D03*
X181000D03*
G54D49*X191000D03*
G54D47*G36*
X178000Y170000D02*X170000D01*
Y135000D01*
X178000D01*
Y170000D01*
G37*
G36*
X193600D02*X185600D01*
Y135000D01*
X193600D01*
Y170000D01*
G37*
G36*
X209200D02*X201200D01*
Y135000D01*
X209200D01*
Y170000D01*
G37*
G36*
X224800D02*X216800D01*
Y135000D01*
X224800D01*
Y170000D01*
G37*
G36*
X240400D02*X232400D01*
Y135000D01*
X240400D01*
Y170000D01*
G37*
G36*
X223500Y199000D02*X229500D01*
Y193000D01*
X223500D01*
Y199000D01*
G37*
G54D48*X236500Y196000D03*
X246500D03*
G54D47*G36*
X256000Y170000D02*X248000D01*
Y135000D01*
X256000D01*
Y170000D01*
G37*
G36*
X288000Y212000D02*X294000D01*
Y206000D01*
X288000D01*
Y212000D01*
G37*
G54D50*X291000Y219000D03*
X301000D03*
X311000Y209000D03*
Y219000D03*
G54D47*G36*
X271600Y170000D02*X263600D01*
Y135000D01*
X271600D01*
Y170000D01*
G37*
G54D50*X301000Y209000D03*
X321000D03*
Y219000D03*
X331000Y209000D03*
X341000D03*
X351000D03*
X361000D03*
X371000D03*
X381000D03*
X391000D03*
X401000D03*
X411000D03*
X421000D03*
X431000D03*
X331000Y219000D03*
X341000D03*
X351000D03*
X361000D03*
X371000D03*
X381000D03*
X391000D03*
X401000D03*
X411000D03*
X421000D03*
X431000D03*
G54D47*G36*
X287200Y170000D02*X279200D01*
Y135000D01*
X287200D01*
Y170000D01*
G37*
G36*
X302800D02*X294800D01*
Y135000D01*
X302800D01*
Y170000D01*
G37*
G36*
X318400D02*X310400D01*
Y135000D01*
X318400D01*
Y170000D01*
G37*
G36*
X334000D02*X326000D01*
Y135000D01*
X334000D01*
Y170000D01*
G37*
G36*
X349600D02*X341600D01*
Y135000D01*
X349600D01*
Y170000D01*
G37*
G36*
X365200D02*X357200D01*
Y135000D01*
X365200D01*
Y170000D01*
G37*
G36*
X380800D02*X372800D01*
Y135000D01*
X380800D01*
Y170000D01*
G37*
G36*
X396400D02*X388400D01*
Y135000D01*
X396400D01*
Y170000D01*
G37*
G36*
X412000D02*X404000D01*
Y135000D01*
X412000D01*
Y170000D01*
G37*
G36*
X427600D02*X419600D01*
Y135000D01*
X427600D01*
Y170000D01*
G37*
G36*
X443200D02*X435200D01*
Y135000D01*
X443200D01*
Y170000D01*
G37*
G36*
X458800D02*X450800D01*
Y135000D01*
X458800D01*
Y170000D01*
G37*
G54D51*G54D52*G54D53*X286000Y224000D02*X436000D01*
X286000D02*Y204000D01*
Y214000D02*X296000D01*
X226500Y219000D02*Y238700D01*
X233000Y219000D02*X230000D01*
G54D54*X236500Y232400D02*Y230200D01*
Y223400D02*Y221200D01*
G54D53*X226500Y238700D02*X246500D01*
X286000Y204000D02*X436000D01*
Y224000D02*Y204000D01*
X296000Y214000D02*Y204000D01*
G54D54*X236500Y214400D02*Y212200D01*
G54D53*X221500Y206500D02*X251500D01*
X246500Y238700D02*Y219000D01*
G54D54*Y232400D02*Y230200D01*
Y223400D02*Y221200D01*
Y214400D02*Y212200D01*
G54D53*X251500Y219000D02*Y206500D01*
Y219000D02*X246500D01*
X243000D02*X240000D01*
X136000Y206500D02*Y219000D01*
X141000D01*
X147500D02*X144500D01*
G54D54*X141000Y214400D02*Y212200D01*
G54D53*X177500Y219000D02*X174500D01*
G54D54*X161000Y214400D02*Y212200D01*
X171000Y214400D02*Y212200D01*
G54D53*X157500Y219000D02*X154500D01*
G54D54*X151000Y214400D02*Y212200D01*
X141000Y204500D02*Y196000D01*
X151000Y204500D02*Y196000D01*
X161000Y204500D02*Y196000D01*
X171000Y204500D02*Y196000D01*
X181000Y204500D02*Y196000D01*
X191000Y204500D02*Y196000D01*
G54D53*X136000Y206500D02*X196000D01*
Y219000D02*X191000D01*
X187500D02*X184500D01*
X167500D02*X164500D01*
G54D54*X191000Y214400D02*Y212200D01*
X181000Y214400D02*Y212200D01*
G54D53*X221500Y206500D02*Y219000D01*
X196000D02*Y206500D01*
X141000Y219000D02*Y238700D01*
G54D54*X151000Y232400D02*Y230200D01*
X161000Y232400D02*Y230200D01*
G54D53*X154500Y238700D02*X141000D01*
G54D54*X151000Y223400D02*Y221200D01*
X161000Y223400D02*Y221200D01*
G54D53*X154500Y238700D02*Y219000D01*
X157500D02*Y238700D01*
X191000D01*
G54D54*X171000Y232400D02*Y230200D01*
X181000Y232400D02*Y230200D01*
X191000Y223400D02*Y221200D01*
X141000Y223400D02*Y221200D01*
G54D55*X139750Y240400D02*Y219300D01*
G54D54*X181000Y223400D02*Y221200D01*
X171000Y223400D02*Y221200D01*
G54D53*X221500Y219000D02*X226500D01*
G54D55*X225250Y240400D02*Y219300D01*
G54D53*X191000Y238700D02*Y219000D01*
G54D55*X192250Y240700D02*Y219300D01*
G54D54*X191000Y232400D02*Y230200D01*
Y240200D02*Y243400D01*
X141000Y232400D02*Y230200D01*
X151000Y240200D02*Y243400D01*
X141000Y240200D02*Y243400D01*
X161000Y240200D02*Y243400D01*
X171000Y240200D02*Y243400D01*
X181000Y240200D02*Y243400D01*
X226500Y232400D02*Y230200D01*
X236500Y240200D02*Y243400D01*
X226500Y240200D02*Y243400D01*
X246500Y240200D02*Y243400D01*
G54D55*X247750Y240700D02*Y219300D01*
G54D54*X226500Y223400D02*Y221200D01*
Y214400D02*Y212200D01*
Y204500D02*Y196000D01*
X236500Y204500D02*Y196000D01*
X246500Y204500D02*Y196000D01*
G54D56*X456500Y186000D02*Y188000D01*
Y187000D02*X460500D01*
X456500Y189200D02*X460500D01*
X459000D02*X458500Y189700D01*
Y190700D01*
X459000Y191200D01*
X460500D01*
Y192900D02*Y194400D01*
X460000Y192400D02*X460500Y192900D01*
X459000Y192400D02*X460000D01*
X459000D02*X458500Y192900D01*
Y193900D01*
X459000Y194400D01*
X459500Y192400D02*Y194400D01*
X459000D01*
X457500Y197400D02*X457600D01*
X459000D02*X460500D01*
X459000Y198900D02*X460500D01*
X459000D02*X458500Y199400D01*
Y199900D01*
X459000Y200400D01*
X460500D01*
X458500Y198400D02*X459000Y198900D01*
X458500Y201600D02*X460500Y202600D01*
X458500Y203600D02*X460500Y202600D01*
Y205300D02*Y206800D01*
X460000Y204800D02*X460500Y205300D01*
X459000Y204800D02*X460000D01*
X459000D02*X458500Y205300D01*
Y206300D01*
X459000Y206800D01*
X459500Y204800D02*Y206800D01*
X459000D01*
Y208500D02*X460500D01*
X459000D02*X458500Y209000D01*
Y209500D01*
X459000Y210000D01*
X460500D01*
X458500Y208000D02*X459000Y208500D01*
X456500Y211700D02*X460000D01*
X460500Y212200D01*
X458000Y211200D02*Y212200D01*
X459000Y213200D02*X460000D01*
X459000D02*X458500Y213700D01*
Y214700D01*
X459000Y215200D01*
X460000D01*
X460500Y214700D02*X460000Y215200D01*
X460500Y213700D02*Y214700D01*
X460000Y213200D02*X460500Y213700D01*
X459000Y216900D02*X460500D01*
X459000D02*X458500Y217400D01*
Y218400D01*
Y216400D02*X459000Y216900D01*
X460500Y220100D02*Y221600D01*
X460000Y222100D01*
X459500Y221600D02*X460000Y222100D01*
X459500Y220100D02*Y221600D01*
X459000Y219600D02*X459500Y220100D01*
X459000Y219600D02*X458500Y220100D01*
Y221600D01*
X459000Y222100D01*
X460000Y219600D02*X460500Y220100D01*
X459000Y225100D02*X460000D01*
X459000D02*X458500Y225600D01*
Y226600D01*
X459000Y227100D01*
X460000D01*
X460500Y226600D02*X460000Y227100D01*
X460500Y225600D02*Y226600D01*
X460000Y225100D02*X460500Y225600D01*
X457000Y228800D02*X460500D01*
X457000D02*X456500Y229300D01*
Y229800D01*
X458500Y228300D02*Y229300D01*
X456500Y233100D02*X460000D01*
X460500Y233600D01*
X458000Y232600D02*Y233600D01*
X456500Y234600D02*X460500D01*
X459000D02*X458500Y235100D01*
Y236100D01*
X459000Y236600D01*
X460500D01*
Y238300D02*Y239800D01*
X460000Y237800D02*X460500Y238300D01*
X459000Y237800D02*X460000D01*
X459000D02*X458500Y238300D01*
Y239300D01*
X459000Y239800D01*
X459500Y237800D02*Y239800D01*
X459000D01*
X429000Y229000D02*X429500Y229500D01*
X429000Y227500D02*Y229000D01*
X429500Y227000D02*X429000Y227500D01*
X429500Y227000D02*X432500D01*
X433000Y227500D01*
Y229000D01*
X432500Y229500D01*
X431500D02*X432500D01*
X431000Y229000D02*X431500Y229500D01*
X431000Y228000D02*Y229000D01*
X429000Y230700D02*X433000D01*
X429000D02*X433000Y233200D01*
X429000D02*X433000D01*
X429000Y234900D02*X433000D01*
X429000Y236200D02*X429700Y236900D01*
X432300D01*
X433000Y236200D02*X432300Y236900D01*
X433000Y234400D02*Y236200D01*
X429000Y234400D02*Y236200D01*
Y238600D02*X433000D01*
X429000Y239900D02*X429700Y240600D01*
X432300D01*
X433000Y239900D02*X432300Y240600D01*
X433000Y238100D02*Y239900D01*
X429000Y238100D02*Y239900D01*
X419000Y229000D02*X419500Y229500D01*
X419000Y227500D02*Y229000D01*
X419500Y227000D02*X419000Y227500D01*
X419500Y227000D02*X420500D01*
X421000Y227500D01*
Y229000D01*
X421500Y229500D01*
X422500D01*
X423000Y229000D02*X422500Y229500D01*
X423000Y227500D02*Y229000D01*
X422500Y227000D02*X423000Y227500D01*
X419000Y230700D02*X421000Y231700D01*
X419000Y232700D01*
X421000Y231700D02*X423000D01*
X419000Y233900D02*X423000D01*
X419000D02*X423000Y236400D01*
X419000D02*X423000D01*
Y238300D02*Y239600D01*
X422300Y237600D02*X423000Y238300D01*
X419700Y237600D02*X422300D01*
X419700D02*X419000Y238300D01*
Y239600D01*
Y241300D02*X423000D01*
X419000Y240800D02*Y242800D01*
X419500Y243300D01*
X420500D01*
X421000Y242800D02*X420500Y243300D01*
X421000Y241300D02*Y242800D01*
X409500Y227000D02*X412500D01*
X409500D02*X408500Y227700D01*
Y228800D01*
X409500Y229500D01*
X412500D01*
X410500Y227000D02*Y229500D01*
X412000Y230700D02*X412500Y231200D01*
X409000Y230700D02*X412000D01*
X409000D02*X408500Y231200D01*
Y232200D01*
X409000Y232700D01*
X412000D01*
X412500Y232200D02*X412000Y232700D01*
X412500Y231200D02*Y232200D01*
X411500Y230700D02*X409500Y232700D01*
X478500Y186500D02*X480000D01*
X480500Y187000D01*
Y187500D01*
X480000Y188000D01*
X478500D02*X480000D01*
X480500Y188500D01*
Y189000D01*
X480000Y189500D01*
X478500D02*X480000D01*
X477500Y190700D02*X477600D01*
X479000D02*X480500D01*
X479000Y192200D02*X480500D01*
X479000D02*X478500Y192700D01*
Y193200D01*
X479000Y193700D01*
X480500D01*
X478500Y191700D02*X479000Y192200D01*
X478500Y198200D02*X479000Y198700D01*
X478500Y197200D02*Y198200D01*
X479000Y196700D02*X478500Y197200D01*
X479000Y196700D02*X480000D01*
X480500Y197200D01*
X478500Y198700D02*X480000D01*
X480500Y199200D01*
Y197200D02*Y198200D01*
X480000Y198700D01*
X479000Y200900D02*X480500D01*
X479000D02*X478500Y201400D01*
Y201900D01*
X479000Y202400D01*
X480500D01*
X478500Y200400D02*X479000Y200900D01*
X476500Y205400D02*Y206400D01*
Y205900D02*X480500D01*
Y205400D02*Y206400D01*
X478500Y209100D02*X479000Y209600D01*
X478500Y208100D02*Y209100D01*
X479000Y207600D02*X478500Y208100D01*
X479000Y207600D02*X480000D01*
X480500Y208100D01*
Y209100D01*
X480000Y209600D01*
X481500Y207600D02*X482000Y208100D01*
Y209100D01*
X481500Y209600D01*
X478500D02*X481500D01*
X479000Y211300D02*X480500D01*
X479000D02*X478500Y211800D01*
Y212300D01*
X479000Y212800D01*
X480500D01*
X478500Y210800D02*X479000Y211300D01*
Y214000D02*X480000D01*
X479000D02*X478500Y214500D01*
Y215500D01*
X479000Y216000D01*
X480000D01*
X480500Y215500D02*X480000Y216000D01*
X480500Y214500D02*Y215500D01*
X480000Y214000D02*X480500Y214500D01*
X476500Y217200D02*X480500D01*
X480000D02*X480500Y217700D01*
Y218700D01*
X480000Y219200D01*
X479000D02*X480000D01*
X478500Y218700D02*X479000Y219200D01*
X478500Y217700D02*Y218700D01*
X479000Y217200D02*X478500Y217700D01*
X480500Y220900D02*Y222400D01*
X480000Y220400D02*X480500Y220900D01*
X479000Y220400D02*X480000D01*
X479000D02*X478500Y220900D01*
Y221900D01*
X479000Y222400D01*
X479500Y220400D02*Y222400D01*
X479000D01*
X476500Y223600D02*X480000D01*
X480500Y224100D01*
X479000Y226900D02*X480000D01*
X479000D02*X478500Y227400D01*
Y228400D01*
X479000Y228900D01*
X480000D01*
X480500Y228400D02*X480000Y228900D01*
X480500Y227400D02*Y228400D01*
X480000Y226900D02*X480500Y227400D01*
X479000Y230600D02*X480500D01*
X479000D02*X478500Y231100D01*
Y231600D01*
X479000Y232100D01*
X480500D01*
X478500Y230100D02*X479000Y230600D01*
X480500Y233800D02*Y235300D01*
X480000Y233300D02*X480500Y233800D01*
X479000Y233300D02*X480000D01*
X479000D02*X478500Y233800D01*
Y234800D01*
X479000Y235300D01*
X479500Y233300D02*Y235300D01*
X479000D01*
X469500Y186500D02*X473500D01*
X473000D02*X473500Y187000D01*
Y188000D01*
X473000Y188500D01*
X472000D02*X473000D01*
X471500Y188000D02*X472000Y188500D01*
X471500Y187000D02*Y188000D01*
X472000Y186500D02*X471500Y187000D01*
X472000Y190200D02*X473500D01*
X472000D02*X471500Y190700D01*
Y191700D01*
Y189700D02*X472000Y190200D01*
Y192900D02*X473000D01*
X472000D02*X471500Y193400D01*
Y194400D01*
X472000Y194900D01*
X473000D01*
X473500Y194400D02*X473000Y194900D01*
X473500Y193400D02*Y194400D01*
X473000Y192900D02*X473500Y193400D01*
X471500Y196100D02*X473000D01*
X473500Y196600D01*
Y197100D01*
X473000Y197600D01*
X471500D02*X473000D01*
X473500Y198100D01*
Y198600D01*
X473000Y199100D01*
X471500D02*X473000D01*
X472000Y200800D02*X473500D01*
X472000D02*X471500Y201300D01*
Y201800D01*
X472000Y202300D01*
X473500D01*
X471500Y200300D02*X472000Y200800D01*
X471500Y206800D02*X472000Y207300D01*
X471500Y205800D02*Y206800D01*
X472000Y205300D02*X471500Y205800D01*
X472000Y205300D02*X473000D01*
X473500Y205800D01*
X471500Y207300D02*X473000D01*
X473500Y207800D01*
Y205800D02*Y206800D01*
X473000Y207300D01*
X472000Y209500D02*X473500D01*
X472000D02*X471500Y210000D01*
Y211000D01*
Y209000D02*X472000Y209500D01*
X473500Y212700D02*Y214200D01*
X473000Y212200D02*X473500Y212700D01*
X472000Y212200D02*X473000D01*
X472000D02*X471500Y212700D01*
Y213700D01*
X472000Y214200D01*
X472500Y212200D02*Y214200D01*
X472000D01*
X471500Y218700D02*X472000Y219200D01*
X471500Y217700D02*Y218700D01*
X472000Y217200D02*X471500Y217700D01*
X472000Y217200D02*X473000D01*
X473500Y217700D01*
Y218700D01*
X473000Y219200D01*
X474500Y217200D02*X475000Y217700D01*
Y218700D01*
X474500Y219200D01*
X471500D02*X474500D01*
X472000Y220400D02*X473000D01*
X472000D02*X471500Y220900D01*
Y221900D01*
X472000Y222400D01*
X473000D01*
X473500Y221900D02*X473000Y222400D01*
X473500Y220900D02*Y221900D01*
X473000Y220400D02*X473500Y220900D01*
X470500Y223600D02*X470600D01*
X472000D02*X473500D01*
X472000Y225100D02*X473500D01*
X472000D02*X471500Y225600D01*
Y226100D01*
X472000Y226600D01*
X473500D01*
X471500Y224600D02*X472000Y225100D01*
X471500Y229300D02*X472000Y229800D01*
X471500Y228300D02*Y229300D01*
X472000Y227800D02*X471500Y228300D01*
X472000Y227800D02*X473000D01*
X473500Y228300D01*
Y229300D01*
X473000Y229800D01*
X474500Y227800D02*X475000Y228300D01*
Y229300D01*
X474500Y229800D01*
X471500D02*X474500D01*
X469500Y233300D02*X473000D01*
X473500Y233800D01*
X471000Y232800D02*Y233800D01*
X472000Y234800D02*X473000D01*
X472000D02*X471500Y235300D01*
Y236300D01*
X472000Y236800D01*
X473000D01*
X473500Y236300D02*X473000Y236800D01*
X473500Y235300D02*Y236300D01*
X473000Y234800D02*X473500Y235300D01*
X465000Y186500D02*Y188000D01*
X465500Y186000D02*X465000Y186500D01*
X465500Y186000D02*X466500D01*
X467000Y186500D01*
Y188000D01*
X465500Y189200D02*X466500D01*
X465500D02*X465000Y189700D01*
Y190700D01*
X465500Y191200D01*
X466500D01*
X467000Y190700D02*X466500Y191200D01*
X467000Y189700D02*Y190700D01*
X466500Y189200D02*X467000Y189700D01*
X463000Y194400D02*X467000D01*
Y193900D02*X466500Y194400D01*
X467000Y192900D02*Y193900D01*
X466500Y192400D02*X467000Y192900D01*
X465500Y192400D02*X466500D01*
X465500D02*X465000Y192900D01*
Y193900D01*
X465500Y194400D01*
X467000Y196100D02*Y197600D01*
X466500Y195600D02*X467000Y196100D01*
X465500Y195600D02*X466500D01*
X465500D02*X465000Y196100D01*
Y197100D01*
X465500Y197600D01*
X466000Y195600D02*Y197600D01*
X465500D01*
X467000Y199300D02*Y200800D01*
X466500Y201300D01*
X466000Y200800D02*X466500Y201300D01*
X466000Y199300D02*Y200800D01*
X465500Y198800D02*X466000Y199300D01*
X465500Y198800D02*X465000Y199300D01*
Y200800D01*
X465500Y201300D01*
X466500Y198800D02*X467000Y199300D01*
X465000Y205800D02*X465500Y206300D01*
X465000Y204800D02*Y205800D01*
X465500Y204300D02*X465000Y204800D01*
X465500Y204300D02*X466500D01*
X467000Y204800D01*
Y205800D01*
X466500Y206300D01*
X468000Y204300D02*X468500Y204800D01*
Y205800D01*
X468000Y206300D01*
X465000D02*X468000D01*
X465500Y208000D02*X467000D01*
X465500D02*X465000Y208500D01*
Y209500D01*
Y207500D02*X465500Y208000D01*
X467000Y211200D02*Y212700D01*
X466500Y210700D02*X467000Y211200D01*
X465500Y210700D02*X466500D01*
X465500D02*X465000Y211200D01*
Y212200D01*
X465500Y212700D01*
X466000Y210700D02*Y212700D01*
X465500D01*
X467000Y214400D02*Y215900D01*
X466500Y213900D02*X467000Y214400D01*
X465500Y213900D02*X466500D01*
X465500D02*X465000Y214400D01*
Y215400D01*
X465500Y215900D01*
X466000Y213900D02*Y215900D01*
X465500D01*
Y217600D02*X467000D01*
X465500D02*X465000Y218100D01*
Y218600D01*
X465500Y219100D01*
X467000D01*
X465000Y217100D02*X465500Y217600D01*
X465000Y223600D02*X465500Y224100D01*
X465000Y222600D02*Y223600D01*
X465500Y222100D02*X465000Y222600D01*
X465500Y222100D02*X466500D01*
X467000Y222600D01*
X465000Y224100D02*X466500D01*
X467000Y224600D01*
Y222600D02*Y223600D01*
X466500Y224100D01*
X465500Y226300D02*X467000D01*
X465500D02*X465000Y226800D01*
Y227300D01*
X465500Y227800D01*
X467000D01*
X465000Y225800D02*X465500Y226300D01*
X463000Y231000D02*X467000D01*
Y230500D02*X466500Y231000D01*
X467000Y229500D02*Y230500D01*
X466500Y229000D02*X467000Y229500D01*
X465500Y229000D02*X466500D01*
X465500D02*X465000Y229500D01*
Y230500D01*
X465500Y231000D01*
X399500Y227000D02*X402500D01*
X399500D02*X398500Y227700D01*
Y228800D01*
X399500Y229500D01*
X402500D01*
X400500Y227000D02*Y229500D01*
X399000Y230700D02*X398500Y231200D01*
Y232700D01*
X399000Y233200D01*
X400000D01*
X402500Y230700D02*X400000Y233200D01*
X402500Y230700D02*Y233200D01*
X483000Y188500D02*X487000D01*
Y188000D02*X486500Y188500D01*
X487000Y187000D02*Y188000D01*
X486500Y186500D02*X487000Y187000D01*
X485500Y186500D02*X486500D01*
X485500D02*X485000Y187000D01*
Y188000D01*
X485500Y188500D01*
X485000Y191200D02*X485500Y191700D01*
X485000Y190200D02*Y191200D01*
X485500Y189700D02*X485000Y190200D01*
X485500Y189700D02*X486500D01*
X487000Y190200D01*
X485000Y191700D02*X486500D01*
X487000Y192200D01*
Y190200D02*Y191200D01*
X486500Y191700D01*
X485000Y193400D02*X486500D01*
X487000Y193900D01*
X485000Y195400D02*X488000D01*
X488500Y194900D02*X488000Y195400D01*
X488500Y193900D02*Y194900D01*
X488000Y193400D02*X488500Y193900D01*
X487000D02*Y194900D01*
X486500Y195400D01*
X483500Y198900D02*X487000D01*
X483500D02*X483000Y199400D01*
Y199900D01*
X485000Y198400D02*Y199400D01*
X485500Y200900D02*X486500D01*
X485500D02*X485000Y201400D01*
Y202400D01*
X485500Y202900D01*
X486500D01*
X487000Y202400D02*X486500Y202900D01*
X487000Y201400D02*Y202400D01*
X486500Y200900D02*X487000Y201400D01*
X485500Y204600D02*X487000D01*
X485500D02*X485000Y205100D01*
Y206100D01*
Y204100D02*X485500Y204600D01*
X483500Y209600D02*X487000D01*
X483500D02*X483000Y210100D01*
Y210600D01*
X485000Y209100D02*Y210100D01*
X484000Y211600D02*X484100D01*
X485500D02*X487000D01*
X485500Y213100D02*X487000D01*
X485500D02*X485000Y213600D01*
Y214100D01*
X485500Y214600D01*
X487000D01*
X485000Y212600D02*X485500Y213100D01*
X483000Y217800D02*X487000D01*
Y217300D02*X486500Y217800D01*
X487000Y216300D02*Y217300D01*
X486500Y215800D02*X487000Y216300D01*
X485500Y215800D02*X486500D01*
X485500D02*X485000Y216300D01*
Y217300D01*
X485500Y217800D01*
X484000Y219000D02*X484100D01*
X485500D02*X487000D01*
X485500Y220500D02*X487000D01*
X485500D02*X485000Y221000D01*
Y221500D01*
X485500Y222000D01*
X487000D01*
X485000Y220000D02*X485500Y220500D01*
X485000Y224700D02*X485500Y225200D01*
X485000Y223700D02*Y224700D01*
X485500Y223200D02*X485000Y223700D01*
X485500Y223200D02*X486500D01*
X487000Y223700D01*
Y224700D01*
X486500Y225200D01*
X488000Y223200D02*X488500Y223700D01*
Y224700D01*
X488000Y225200D01*
X485000D02*X488000D01*
X483000Y228700D02*X486500D01*
X487000Y229200D01*
X484500Y228200D02*Y229200D01*
X483000Y230200D02*X487000D01*
X485500D02*X485000Y230700D01*
Y231700D01*
X485500Y232200D01*
X487000D01*
Y233900D02*Y235400D01*
X486500Y233400D02*X487000Y233900D01*
X485500Y233400D02*X486500D01*
X485500D02*X485000Y233900D01*
Y234900D01*
X485500Y235400D01*
X486000Y233400D02*Y235400D01*
X485500D01*
X496000Y186500D02*X500000D01*
X498500D02*X498000Y187000D01*
Y188000D01*
X498500Y188500D01*
X500000D01*
X498500Y189700D02*X499500D01*
X498500D02*X498000Y190200D01*
Y191200D01*
X498500Y191700D01*
X499500D01*
X500000Y191200D02*X499500Y191700D01*
X500000Y190200D02*Y191200D01*
X499500Y189700D02*X500000Y190200D01*
Y193400D02*Y194900D01*
X499500Y195400D01*
X499000Y194900D02*X499500Y195400D01*
X499000Y193400D02*Y194900D01*
X498500Y192900D02*X499000Y193400D01*
X498500Y192900D02*X498000Y193400D01*
Y194900D01*
X498500Y195400D01*
X499500Y192900D02*X500000Y193400D01*
X498500Y197100D02*X501500D01*
X498000Y196600D02*X498500Y197100D01*
X498000Y197600D01*
Y198600D01*
X498500Y199100D01*
X499500D01*
X500000Y198600D02*X499500Y199100D01*
X500000Y197600D02*Y198600D01*
X499500Y197100D02*X500000Y197600D01*
X497000Y200300D02*X497100D01*
X498500D02*X500000D01*
X496000Y201800D02*X499500D01*
X500000Y202300D01*
X497500Y201300D02*Y202300D01*
X498000Y204800D02*X498500Y205300D01*
X498000Y203800D02*Y204800D01*
X498500Y203300D02*X498000Y203800D01*
X498500Y203300D02*X499500D01*
X500000Y203800D01*
X498000Y205300D02*X499500D01*
X500000Y205800D01*
Y203800D02*Y204800D01*
X499500Y205300D01*
X496000Y207000D02*X499500D01*
X500000Y207500D01*
Y210800D02*Y212300D01*
X499500Y212800D01*
X499000Y212300D02*X499500Y212800D01*
X499000Y210800D02*Y212300D01*
X498500Y210300D02*X499000Y210800D01*
X498500Y210300D02*X498000Y210800D01*
Y212300D01*
X498500Y212800D01*
X499500Y210300D02*X500000Y210800D01*
X498000Y215500D02*X498500Y216000D01*
X498000Y214500D02*Y215500D01*
X498500Y214000D02*X498000Y214500D01*
X498500Y214000D02*X499500D01*
X500000Y214500D01*
X498000Y216000D02*X499500D01*
X500000Y216500D01*
Y214500D02*Y215500D01*
X499500Y216000D01*
X496500Y218200D02*X500000D01*
X496500D02*X496000Y218700D01*
Y219200D01*
X498000Y217700D02*Y218700D01*
X500000Y220700D02*Y222200D01*
X499500Y220200D02*X500000Y220700D01*
X498500Y220200D02*X499500D01*
X498500D02*X498000Y220700D01*
Y221700D01*
X498500Y222200D01*
X499000Y220200D02*Y222200D01*
X498500D01*
X496000Y223900D02*X499500D01*
X500000Y224400D01*
X497500Y223400D02*Y224400D01*
X498000Y225400D02*X499500D01*
X500000Y225900D01*
X498000Y227400D02*X501000D01*
X501500Y226900D02*X501000Y227400D01*
X501500Y225900D02*Y226900D01*
X501000Y225400D02*X501500Y225900D01*
X500000D02*Y226900D01*
X499500Y227400D01*
X500000Y228600D02*Y229100D01*
X489500Y186500D02*X493000D01*
X493500Y187000D01*
X492000Y188000D02*X493000D01*
X492000D02*X491500Y188500D01*
Y189500D01*
X492000Y190000D01*
X493000D01*
X493500Y189500D02*X493000Y190000D01*
X493500Y188500D02*Y189500D01*
X493000Y188000D02*X493500Y188500D01*
X491500Y191200D02*X493000D01*
X493500Y191700D01*
Y192200D01*
X493000Y192700D01*
X491500D02*X493000D01*
X493500Y193200D01*
Y193700D01*
X493000Y194200D01*
X491500D02*X493000D01*
X493500Y195900D02*Y197400D01*
X493000Y195400D02*X493500Y195900D01*
X492000Y195400D02*X493000D01*
X492000D02*X491500Y195900D01*
Y196900D01*
X492000Y197400D01*
X492500Y195400D02*Y197400D01*
X492000D01*
Y199100D02*X493500D01*
X492000D02*X491500Y199600D01*
Y200600D01*
Y198600D02*X492000Y199100D01*
X489500Y203600D02*X493000D01*
X493500Y204100D01*
X490500Y205100D02*X490600D01*
X492000D02*X493500D01*
X492000Y206600D02*X493500D01*
X492000D02*X491500Y207100D01*
Y207600D01*
X492000Y208100D01*
X493500D01*
X492000D02*X491500Y208600D01*
Y209100D01*
X492000Y209600D01*
X493500D01*
X491500Y206100D02*X492000Y206600D01*
X490500Y210800D02*X490600D01*
X492000D02*X493500D01*
X489500Y212300D02*X493000D01*
X493500Y212800D01*
X491000Y211800D02*Y212800D01*
X492000Y215600D02*X493000D01*
X492000D02*X491500Y216100D01*
Y217100D01*
X492000Y217600D01*
X493000D01*
X493500Y217100D02*X493000Y217600D01*
X493500Y216100D02*Y217100D01*
X493000Y215600D02*X493500Y216100D01*
X490000Y219300D02*X493500D01*
X490000D02*X489500Y219800D01*
Y220300D01*
X491500Y218800D02*Y219800D01*
X429000Y183000D02*X429500Y183500D01*
X429000Y181500D02*Y183000D01*
X429500Y181000D02*X429000Y181500D01*
X429500Y181000D02*X432500D01*
X433000Y181500D01*
Y183000D01*
X432500Y183500D01*
X431500D02*X432500D01*
X431000Y183000D02*X431500Y183500D01*
X431000Y182000D02*Y183000D01*
X429000Y184700D02*X433000D01*
X429000D02*X433000Y187200D01*
X429000D02*X433000D01*
X429000Y188900D02*X433000D01*
X429000Y190200D02*X429700Y190900D01*
X432300D01*
X433000Y190200D02*X432300Y190900D01*
X433000Y188400D02*Y190200D01*
X429000Y188400D02*Y190200D01*
Y192600D02*X433000D01*
X429000Y193900D02*X429700Y194600D01*
X432300D01*
X433000Y193900D02*X432300Y194600D01*
X433000Y192100D02*Y193900D01*
X429000Y192100D02*Y193900D01*
X419000Y180500D02*X419500Y181000D01*
X419000Y179000D02*Y180500D01*
X419500Y178500D02*X419000Y179000D01*
X419500Y178500D02*X420500D01*
X421000Y179000D01*
Y180500D01*
X421500Y181000D01*
X422500D01*
X423000Y180500D02*X422500Y181000D01*
X423000Y179000D02*Y180500D01*
X422500Y178500D02*X423000Y179000D01*
X419000Y182200D02*X421000Y183200D01*
X419000Y184200D01*
X421000Y183200D02*X423000D01*
X419000Y185400D02*X423000D01*
X419000D02*X423000Y187900D01*
X419000D02*X423000D01*
Y189800D02*Y191100D01*
X422300Y189100D02*X423000Y189800D01*
X419700Y189100D02*X422300D01*
X419700D02*X419000Y189800D01*
Y191100D01*
Y192300D02*X423000D01*
X419000D02*X423000Y194800D01*
X419000D02*X423000D01*
X410000Y189500D02*X413000D01*
X410000D02*X409000Y190200D01*
Y191300D01*
X410000Y192000D01*
X413000D01*
X411000Y189500D02*Y192000D01*
X409800Y193200D02*X409000Y194000D01*
X413000D01*
Y193200D02*Y194700D01*
X400000Y189000D02*X403000D01*
X400000D02*X399000Y189700D01*
Y190800D01*
X400000Y191500D01*
X403000D01*
X401000Y189000D02*Y191500D01*
X399500Y192700D02*X399000Y193200D01*
Y194200D01*
X399500Y194700D01*
X403000Y194200D02*X402500Y194700D01*
X403000Y193200D02*Y194200D01*
X402500Y192700D02*X403000Y193200D01*
X400800D02*Y194200D01*
X399500Y194700D02*X400300D01*
X401300D02*X402500D01*
X401300D02*X400800Y194200D01*
X400300Y194700D02*X400800Y194200D01*
X389500Y188500D02*X392500D01*
X389500D02*X388500Y189200D01*
Y190300D01*
X389500Y191000D01*
X392500D01*
X390500Y188500D02*Y191000D01*
X391000Y192200D02*X388500Y194200D01*
X391000Y192200D02*Y194700D01*
X388500Y194200D02*X392500D01*
X379000Y183500D02*Y184500D01*
Y184000D02*X383000D01*
Y183500D02*Y184500D01*
X379000Y185700D02*X383000D01*
X379000D02*X383000Y188200D01*
X379000D02*X383000D01*
X379000Y189400D02*Y191400D01*
Y190400D02*X383000D01*
X379500Y192600D02*X379000Y193100D01*
Y194100D01*
X379500Y194600D01*
X383000Y194100D02*X382500Y194600D01*
X383000Y193100D02*Y194100D01*
X382500Y192600D02*X383000Y193100D01*
X380800D02*Y194100D01*
X379500Y194600D02*X380300D01*
X381300D02*X382500D01*
X381300D02*X380800Y194100D01*
X380300Y194600D02*X380800Y194100D01*
X99000Y177000D02*X103000D01*
X99000Y178300D02*X99700Y179000D01*
X102300D01*
X103000Y178300D02*X102300Y179000D01*
X103000Y176500D02*Y178300D01*
X99000Y176500D02*Y178300D01*
X100800Y180200D02*Y181700D01*
X103000Y180200D02*Y182200D01*
X99000Y180200D02*X103000D01*
X99000D02*Y182200D01*
Y185400D02*X99500Y185900D01*
X99000Y183900D02*Y185400D01*
X99500Y183400D02*X99000Y183900D01*
X99500Y183400D02*X100500D01*
X101000Y183900D01*
Y185400D01*
X101500Y185900D01*
X102500D01*
X103000Y185400D02*X102500Y185900D01*
X103000Y183900D02*Y185400D01*
X102500Y183400D02*X103000Y183900D01*
X99000Y187100D02*Y188100D01*
Y187600D02*X103000D01*
Y187100D02*Y188100D01*
X99000Y191300D02*X99500Y191800D01*
X99000Y189800D02*Y191300D01*
X99500Y189300D02*X99000Y189800D01*
X99500Y189300D02*X102500D01*
X103000Y189800D01*
Y191300D01*
X102500Y191800D01*
X101500D02*X102500D01*
X101000Y191300D02*X101500Y191800D01*
X101000Y190300D02*Y191300D01*
X99000Y193000D02*X103000D01*
X99000D02*X103000Y195500D01*
X99000D02*X103000D01*
X100800Y196700D02*Y198200D01*
X103000Y196700D02*Y198700D01*
X99000Y196700D02*X103000D01*
X99000D02*Y198700D01*
Y200400D02*X103000D01*
X99000Y201700D02*X99700Y202400D01*
X102300D01*
X103000Y201700D02*X102300Y202400D01*
X103000Y199900D02*Y201700D01*
X99000Y199900D02*Y201700D01*
X103000Y205400D02*Y207400D01*
X102500Y207900D01*
X101300D02*X102500D01*
X100800Y207400D02*X101300Y207900D01*
X100800Y205900D02*Y207400D01*
X99000Y205900D02*X103000D01*
X99000Y205400D02*Y207400D01*
X99500Y207900D01*
X100300D01*
X100800Y207400D02*X100300Y207900D01*
X99000Y209100D02*X101000Y210100D01*
X99000Y211100D01*
X101000Y210100D02*X103000D01*
X100800Y214100D02*Y215600D01*
X103000Y214100D02*Y216100D01*
X99000Y214100D02*X103000D01*
X99000D02*Y216100D01*
Y217300D02*X103000Y218300D01*
X99000Y219300D01*
X100000Y220500D02*X103000D01*
X100000D02*X99000Y221200D01*
Y222300D01*
X100000Y223000D01*
X103000D01*
X101000Y220500D02*Y223000D01*
X99000Y224200D02*X103000D01*
X99000D02*X103000Y226700D01*
X99000D02*X103000D01*
X99000Y229700D02*X103000D01*
X99000D02*Y231700D01*
X100800Y229700D02*Y231200D01*
X99500Y232900D02*X102500D01*
X99500D02*X99000Y233400D01*
Y234400D01*
X99500Y234900D01*
X102500D01*
X103000Y234400D02*X102500Y234900D01*
X103000Y233400D02*Y234400D01*
X102500Y232900D02*X103000Y233400D01*
X99000Y238100D02*X99500Y238600D01*
X99000Y236600D02*Y238100D01*
X99500Y236100D02*X99000Y236600D01*
X99500Y236100D02*X100500D01*
X101000Y236600D01*
Y238100D01*
X101500Y238600D01*
X102500D01*
X103000Y238100D02*X102500Y238600D01*
X103000Y236600D02*Y238100D01*
X102500Y236100D02*X103000Y236600D01*
X99000Y241800D02*X99500Y242300D01*
X99000Y240300D02*Y241800D01*
X99500Y239800D02*X99000Y240300D01*
X99500Y239800D02*X100500D01*
X101000Y240300D01*
Y241800D01*
X101500Y242300D01*
X102500D01*
X103000Y241800D02*X102500Y242300D01*
X103000Y240300D02*Y241800D01*
X102500Y239800D02*X103000Y240300D01*
X92500Y178500D02*X93000Y179000D01*
X92500Y177000D02*Y178500D01*
X93000Y176500D02*X92500Y177000D01*
X93000Y176500D02*X94000D01*
X94500Y177000D01*
Y178500D01*
X95000Y179000D01*
X96000D01*
X96500Y178500D02*X96000Y179000D01*
X96500Y177000D02*Y178500D01*
X96000Y176500D02*X96500Y177000D01*
X92500Y180200D02*X96000D01*
X96500Y180700D01*
Y181700D01*
X96000Y182200D01*
X92500D02*X96000D01*
X96500Y183400D02*Y185400D01*
X96000Y185900D01*
X94800D02*X96000D01*
X94300Y185400D02*X94800Y185900D01*
X94300Y183900D02*Y185400D01*
X92500Y183900D02*X96500D01*
X92500Y183400D02*Y185400D01*
X93000Y185900D01*
X93800D01*
X94300Y185400D02*X93800Y185900D01*
X92500Y187100D02*Y189100D01*
X93000Y189600D01*
X94000D01*
X94500Y189100D02*X94000Y189600D01*
X94500Y187600D02*Y189100D01*
X92500Y187600D02*X96500D01*
X94500Y188400D02*X96500Y189600D01*
X93500Y190800D02*X96500D01*
X93500D02*X92500Y191500D01*
Y192600D01*
X93500Y193300D01*
X96500D01*
X94500Y190800D02*Y193300D01*
X96500Y195200D02*Y196500D01*
X95800Y194500D02*X96500Y195200D01*
X93200Y194500D02*X95800D01*
X93200D02*X92500Y195200D01*
Y196500D01*
Y197700D02*X96500D01*
X94500D02*X92500Y199700D01*
X94500Y197700D02*X96500Y199700D01*
X94300Y202700D02*Y204200D01*
X96500Y202700D02*Y204700D01*
X92500Y202700D02*X96500D01*
X92500D02*Y204700D01*
Y206400D02*X96500D01*
X92500Y207700D02*X93200Y208400D01*
X95800D01*
X96500Y207700D02*X95800Y208400D01*
X96500Y205900D02*Y207700D01*
X92500Y205900D02*Y207700D01*
Y211600D02*X93000Y212100D01*
X92500Y210100D02*Y211600D01*
X93000Y209600D02*X92500Y210100D01*
X93000Y209600D02*X96000D01*
X96500Y210100D01*
Y211600D01*
X96000Y212100D01*
X95000D02*X96000D01*
X94500Y211600D02*X95000Y212100D01*
X94500Y210600D02*Y211600D01*
X94300Y213300D02*Y214800D01*
X96500Y213300D02*Y215300D01*
X92500Y213300D02*X96500D01*
X92500D02*Y215300D01*
X96500Y217200D02*Y218500D01*
X95800Y216500D02*X96500Y217200D01*
X93200Y216500D02*X95800D01*
X93200D02*X92500Y217200D01*
Y218500D01*
X93500Y219700D02*X96500D01*
X93500D02*X92500Y220400D01*
Y221500D01*
X93500Y222200D01*
X96500D01*
X94500Y219700D02*Y222200D01*
X92500Y223400D02*Y225400D01*
X93000Y225900D01*
X94000D01*
X94500Y225400D02*X94000Y225900D01*
X94500Y223900D02*Y225400D01*
X92500Y223900D02*X96500D01*
X94500Y224700D02*X96500Y225900D01*
X92500Y227600D02*X96500D01*
X92500Y228900D02*X93200Y229600D01*
X95800D01*
X96500Y228900D02*X95800Y229600D01*
X96500Y227100D02*Y228900D01*
X92500Y227100D02*Y228900D01*
X107300Y176500D02*Y178000D01*
X109500Y176500D02*Y178500D01*
X105500Y176500D02*X109500D01*
X105500D02*Y178500D01*
X106500Y179700D02*X109500D01*
X106500D02*X105500Y180400D01*
Y181500D01*
X106500Y182200D01*
X109500D01*
X107500Y179700D02*Y182200D01*
X105500Y183400D02*Y185400D01*
Y184400D02*X109500D01*
X106000Y186600D02*X109000D01*
X106000D02*X105500Y187100D01*
Y188100D01*
X106000Y188600D01*
X109000D01*
X109500Y188100D02*X109000Y188600D01*
X109500Y187100D02*Y188100D01*
X109000Y186600D02*X109500Y187100D01*
X105500Y189800D02*X109500D01*
X105500D02*X109500Y192300D01*
X105500D02*X109500D01*
X105500Y195800D02*X109500D01*
X105500Y195300D02*Y197300D01*
X106000Y197800D01*
X107000D01*
X107500Y197300D02*X107000Y197800D01*
X107500Y195800D02*Y197300D01*
X107300Y199000D02*Y200500D01*
X109500Y199000D02*Y201000D01*
X105500Y199000D02*X109500D01*
X105500D02*Y201000D01*
X106500Y202200D02*X109500D01*
X106500D02*X105500Y202900D01*
Y204000D01*
X106500Y204700D01*
X109500D01*
X107500Y202200D02*Y204700D01*
X109500Y205900D02*Y207900D01*
X109000Y208400D01*
X107800D02*X109000D01*
X107300Y207900D02*X107800Y208400D01*
X107300Y206400D02*Y207900D01*
X105500Y206400D02*X109500D01*
X105500Y205900D02*Y207900D01*
X106000Y208400D01*
X106800D01*
X107300Y207900D02*X106800Y208400D01*
X106000Y209600D02*X109000D01*
X106000D02*X105500Y210100D01*
Y211100D01*
X106000Y211600D01*
X109000D01*
X109500Y211100D02*X109000Y211600D01*
X109500Y210100D02*Y211100D01*
X109000Y209600D02*X109500Y210100D01*
X105500Y213300D02*X109500D01*
X105500Y214600D02*X106200Y215300D01*
X108800D01*
X109500Y214600D02*X108800Y215300D01*
X109500Y212800D02*Y214600D01*
X105500Y212800D02*Y214600D01*
Y216500D02*X107500Y217500D01*
X105500Y218500D01*
X107500Y217500D02*X109500D01*
X105500Y221500D02*X109500D01*
Y223500D01*
X106500Y224700D02*X109500D01*
X106500D02*X105500Y225400D01*
Y226500D01*
X106500Y227200D01*
X109500D01*
X107500Y224700D02*Y227200D01*
X109500Y228400D02*Y230400D01*
X109000Y230900D01*
X107800D02*X109000D01*
X107300Y230400D02*X107800Y230900D01*
X107300Y228900D02*Y230400D01*
X105500Y228900D02*X109500D01*
X105500Y228400D02*Y230400D01*
X106000Y230900D01*
X106800D01*
X107300Y230400D02*X106800Y230900D01*
X289000Y183000D02*X289500Y183500D01*
X289000Y181500D02*Y183000D01*
X289500Y181000D02*X289000Y181500D01*
X289500Y181000D02*X292500D01*
X293000Y181500D01*
Y183000D01*
X292500Y183500D01*
X291500D02*X292500D01*
X291000Y183000D02*X291500Y183500D01*
X291000Y182000D02*Y183000D01*
X289000Y184700D02*X293000D01*
X289000D02*X293000Y187200D01*
X289000D02*X293000D01*
X289000Y188900D02*X293000D01*
X289000Y190200D02*X289700Y190900D01*
X292300D01*
X293000Y190200D02*X292300Y190900D01*
X293000Y188400D02*Y190200D01*
X289000Y188400D02*Y190200D01*
Y192600D02*X293000D01*
X289000Y193900D02*X289700Y194600D01*
X292300D01*
X293000Y193900D02*X292300Y194600D01*
X293000Y192100D02*Y193900D01*
X289000Y192100D02*Y193900D01*
Y229000D02*X289500Y229500D01*
X289000Y227500D02*Y229000D01*
X289500Y227000D02*X289000Y227500D01*
X289500Y227000D02*X292500D01*
X293000Y227500D01*
Y229000D01*
X292500Y229500D01*
X291500D02*X292500D01*
X291000Y229000D02*X291500Y229500D01*
X291000Y228000D02*Y229000D01*
X289000Y230700D02*X293000D01*
X289000D02*X293000Y233200D01*
X289000D02*X293000D01*
X289000Y234900D02*X293000D01*
X289000Y236200D02*X289700Y236900D01*
X292300D01*
X293000Y236200D02*X292300Y236900D01*
X293000Y234400D02*Y236200D01*
X289000Y234400D02*Y236200D01*
Y238600D02*X293000D01*
X289000Y239900D02*X289700Y240600D01*
X292300D01*
X293000Y239900D02*X292300Y240600D01*
X293000Y238100D02*Y239900D01*
X289000Y238100D02*Y239900D01*
X112500Y176500D02*X112000Y177000D01*
Y178500D01*
X112500Y179000D01*
X113500D01*
X116000Y176500D02*X113500Y179000D01*
X116000Y176500D02*Y179000D01*
X115500Y180200D02*X116000Y180700D01*
X112500Y180200D02*X115500D01*
X112500D02*X112000Y180700D01*
Y181700D01*
X112500Y182200D01*
X115500D01*
X116000Y181700D02*X115500Y182200D01*
X116000Y180700D02*Y181700D01*
X115000Y180200D02*X113000Y182200D01*
X112800Y183400D02*X112000Y184200D01*
X116000D01*
Y183400D02*Y184900D01*
X114500Y186100D02*X112000Y188100D01*
X114500Y186100D02*Y188600D01*
X112000Y188100D02*X116000D01*
Y189800D02*Y190300D01*
X112800Y191500D02*X112000Y192300D01*
X116000D01*
Y191500D02*Y193000D01*
X112500Y194200D02*X112000Y194700D01*
Y196200D01*
X112500Y196700D01*
X113500D01*
X116000Y194200D02*X113500Y196700D01*
X116000Y194200D02*Y196700D01*
Y197900D02*Y198400D01*
X112800Y199600D02*X112000Y200400D01*
X116000D01*
Y199600D02*Y201100D01*
Y202800D02*X114000Y204300D01*
X112500D02*X114000D01*
X112000Y203800D02*X112500Y204300D01*
X112000Y202800D02*Y203800D01*
X112500Y202300D02*X112000Y202800D01*
X112500Y202300D02*X113500D01*
X114000Y202800D01*
Y204300D01*
X229200Y187500D02*X230500D01*
X228500Y188200D02*X229200Y187500D01*
X228500Y190800D02*Y188200D01*
Y190800D02*X229200Y191500D01*
X230500D01*
X231700Y191000D02*Y188000D01*
Y191000D02*X232200Y191500D01*
X233200D01*
X233700Y191000D01*
Y188000D01*
X233200Y187500D02*X233700Y188000D01*
X232200Y187500D02*X233200D01*
X231700Y188000D02*X232200Y187500D01*
X234900Y191500D02*Y187500D01*
Y191500D02*X237400Y187500D01*
Y191500D02*Y187500D01*
X238600Y191500D02*Y187500D01*
Y191500D02*X241100Y187500D01*
Y191500D02*Y187500D01*
X242300Y189000D02*X244300Y191500D01*
X242300Y189000D02*X244800D01*
X244300Y191500D02*Y187500D01*
X158700D02*X160000D01*
X158000Y188200D02*X158700Y187500D01*
X158000Y190800D02*Y188200D01*
Y190800D02*X158700Y191500D01*
X160000D01*
X161200Y191000D02*Y188000D01*
Y191000D02*X161700Y191500D01*
X162700D01*
X163200Y191000D01*
Y188000D01*
X162700Y187500D02*X163200Y188000D01*
X161700Y187500D02*X162700D01*
X161200Y188000D02*X161700Y187500D01*
X164400Y191500D02*Y187500D01*
Y191500D02*X166900Y187500D01*
Y191500D02*Y187500D01*
X168100Y191500D02*Y187500D01*
Y191500D02*X170600Y187500D01*
Y191500D02*Y187500D01*
X171800Y191000D02*X172300Y191500D01*
X173800D01*
X174300Y191000D01*
Y190000D01*
X171800Y187500D02*X174300Y190000D01*
X171800Y187500D02*X174300D01*
X312500Y175000D02*X309500Y178000D01*
X309000Y179200D02*Y181200D01*
X309500Y181700D01*
X310500D01*
X311000Y181200D02*X310500Y181700D01*
X311000Y179700D02*Y181200D01*
X309000Y179700D02*X313000D01*
X311000Y180500D02*X313000Y181700D01*
X310800Y182900D02*Y184400D01*
X313000Y182900D02*Y184900D01*
X309000Y182900D02*X313000D01*
X309000D02*Y184900D01*
Y188100D02*X309500Y188600D01*
X309000Y186600D02*Y188100D01*
X309500Y186100D02*X309000Y186600D01*
X309500Y186100D02*X310500D01*
X311000Y186600D01*
Y188100D01*
X311500Y188600D01*
X312500D01*
X313000Y188100D02*X312500Y188600D01*
X313000Y186600D02*Y188100D01*
X312500Y186100D02*X313000Y186600D01*
X310800Y189800D02*Y191300D01*
X313000Y189800D02*Y191800D01*
X309000Y189800D02*X313000D01*
X309000D02*Y191800D01*
Y193000D02*Y195000D01*
Y194000D02*X313000D01*
X319000Y189000D02*Y191000D01*
X319500Y191500D01*
X320500D01*
X321000Y191000D02*X320500Y191500D01*
X321000Y189500D02*Y191000D01*
X319000Y189500D02*X323000D01*
X321000Y190300D02*X323000Y191500D01*
Y192700D02*X319000Y195200D01*
Y192700D02*X323000Y195200D01*
X329000Y190000D02*X333000D01*
X329000Y191300D02*X329700Y192000D01*
X332300D01*
X333000Y191300D02*X332300Y192000D01*
X333000Y189500D02*Y191300D01*
X329000Y189500D02*Y191300D01*
X329800Y193200D02*X329000Y194000D01*
X333000D01*
Y193200D02*Y194700D01*
X339000Y189500D02*X343000D01*
X339000Y190800D02*X339700Y191500D01*
X342300D01*
X343000Y190800D02*X342300Y191500D01*
X343000Y189000D02*Y190800D01*
X339000Y189000D02*Y190800D01*
X339500Y192700D02*X339000Y193200D01*
Y194200D01*
X339500Y194700D01*
X343000Y194200D02*X342500Y194700D01*
X343000Y193200D02*Y194200D01*
X342500Y192700D02*X343000Y193200D01*
X340800D02*Y194200D01*
X339500Y194700D02*X340300D01*
X341300D02*X342500D01*
X341300D02*X340800Y194200D01*
X340300Y194700D02*X340800Y194200D01*
X349000Y189500D02*X353000D01*
X349000Y190800D02*X349700Y191500D01*
X352300D01*
X353000Y190800D02*X352300Y191500D01*
X353000Y189000D02*Y190800D01*
X349000Y189000D02*Y190800D01*
Y192700D02*Y194700D01*
Y192700D02*X351000D01*
X350500Y193200D01*
Y194200D01*
X351000Y194700D01*
X352500D01*
X353000Y194200D02*X352500Y194700D01*
X353000Y193200D02*Y194200D01*
X352500Y192700D02*X353000Y193200D01*
X359000Y189000D02*X363000D01*
X359000Y190300D02*X359700Y191000D01*
X362300D01*
X363000Y190300D02*X362300Y191000D01*
X363000Y188500D02*Y190300D01*
X359000Y188500D02*Y190300D01*
X363000Y192700D02*X359000Y194700D01*
Y192200D02*Y194700D01*
X369000Y184000D02*Y185000D01*
Y184500D02*X373000D01*
Y184000D02*Y185000D01*
X369000Y186200D02*X373000D01*
X369000D02*X373000Y188700D01*
X369000D02*X373000D01*
X369000Y189900D02*Y191900D01*
Y190900D02*X373000D01*
X369800Y193100D02*X369000Y193900D01*
X373000D01*
Y193100D02*Y194600D01*
X369000Y227000D02*Y228000D01*
Y227500D02*X373000D01*
Y227000D02*Y228000D01*
X369000Y229200D02*X373000D01*
X369000D02*X373000Y231700D01*
X369000D02*X373000D01*
X369000Y232900D02*Y234900D01*
Y233900D02*X373000D01*
X372500Y236100D02*X373000Y236600D01*
X369500Y236100D02*X372500D01*
X369500D02*X369000Y236600D01*
Y237600D01*
X369500Y238100D01*
X372500D01*
X373000Y237600D02*X372500Y238100D01*
X373000Y236600D02*Y237600D01*
X372000Y236100D02*X370000Y238100D01*
X389000Y227000D02*Y228000D01*
Y227500D02*X393000D01*
Y227000D02*Y228000D01*
X389000Y229200D02*X393000D01*
X389000D02*X393000Y231700D01*
X389000D02*X393000D01*
X389000Y232900D02*Y234900D01*
Y233900D02*X393000D01*
X391500Y236100D02*X389000Y238100D01*
X391500Y236100D02*Y238600D01*
X389000Y238100D02*X393000D01*
X379000Y227000D02*Y228000D01*
Y227500D02*X383000D01*
Y227000D02*Y228000D01*
X379000Y229200D02*X383000D01*
X379000D02*X383000Y231700D01*
X379000D02*X383000D01*
X379000Y232900D02*Y234900D01*
Y233900D02*X383000D01*
X379500Y236100D02*X379000Y236600D01*
Y238100D01*
X379500Y238600D01*
X380500D01*
X383000Y236100D02*X380500Y238600D01*
X383000Y236100D02*Y238600D01*
X359000Y227500D02*X363000D01*
X359000Y228800D02*X359700Y229500D01*
X362300D01*
X363000Y228800D02*X362300Y229500D01*
X363000Y227000D02*Y228800D01*
X359000Y227000D02*Y228800D01*
Y232200D02*X359500Y232700D01*
X359000Y231200D02*Y232200D01*
X359500Y230700D02*X359000Y231200D01*
X359500Y230700D02*X362500D01*
X363000Y231200D01*
X360800Y232200D02*X361300Y232700D01*
X360800Y230700D02*Y232200D01*
X363000Y231200D02*Y232200D01*
X362500Y232700D01*
X361300D02*X362500D01*
X349000Y227500D02*X353000D01*
X349000Y228800D02*X349700Y229500D01*
X352300D01*
X353000Y228800D02*X352300Y229500D01*
X353000Y227000D02*Y228800D01*
X349000Y227000D02*Y228800D01*
X351500Y230700D02*X349000Y232700D01*
X351500Y230700D02*Y233200D01*
X349000Y232700D02*X353000D01*
X339000Y227500D02*X343000D01*
X339000Y228800D02*X339700Y229500D01*
X342300D01*
X343000Y228800D02*X342300Y229500D01*
X343000Y227000D02*Y228800D01*
X339000Y227000D02*Y228800D01*
X339500Y230700D02*X339000Y231200D01*
Y232700D01*
X339500Y233200D01*
X340500D01*
X343000Y230700D02*X340500Y233200D01*
X343000Y230700D02*Y233200D01*
X329000Y227500D02*X333000D01*
X329000Y228800D02*X329700Y229500D01*
X332300D01*
X333000Y228800D02*X332300Y229500D01*
X333000Y227000D02*Y228800D01*
X329000Y227000D02*Y228800D01*
X332500Y230700D02*X333000Y231200D01*
X329500Y230700D02*X332500D01*
X329500D02*X329000Y231200D01*
Y232200D01*
X329500Y232700D01*
X332500D01*
X333000Y232200D02*X332500Y232700D01*
X333000Y231200D02*Y232200D01*
X332000Y230700D02*X330000Y232700D01*
X319000Y227000D02*Y229000D01*
Y228000D02*X323000D01*
Y230200D02*X319000Y232700D01*
Y230200D02*X323000Y232700D01*
X309000Y227000D02*X313000D01*
X309000D02*Y229000D01*
X310800Y227000D02*Y228500D01*
X310000Y230200D02*X313000D01*
X310000D02*X309000Y230900D01*
Y232000D01*
X310000Y232700D01*
X313000D01*
X311000Y230200D02*Y232700D01*
X309000Y233900D02*X312500D01*
X313000Y234400D01*
Y235400D01*
X312500Y235900D01*
X309000D02*X312500D01*
X309000Y237100D02*X313000D01*
Y239100D01*
X309000Y240300D02*Y242300D01*
Y241300D02*X313000D01*
X299000Y184000D02*Y186000D01*
X299500Y186500D01*
X300500D01*
X301000Y186000D02*X300500Y186500D01*
X301000Y184500D02*Y186000D01*
X299000Y184500D02*X303000D01*
X301000Y185300D02*X303000Y186500D01*
X302500Y187700D02*X299500Y190700D01*
X299000Y191900D02*X301000D01*
X303000Y192400D01*
X301000Y193400D01*
X303000Y194400D01*
X301000Y194900D01*
X299000D01*
X303000Y227700D02*Y229000D01*
X302300Y227000D02*X303000Y227700D01*
X299700Y227000D02*X302300D01*
X299700D02*X299000Y227700D01*
Y229000D01*
Y230200D02*X303000D01*
Y232200D01*
X299500Y233400D02*X302500D01*
X299500D02*X299000Y233900D01*
Y234900D01*
X299500Y235400D01*
X302500D01*
X303000Y234900D02*X302500Y235400D01*
X303000Y233900D02*Y234900D01*
X302500Y233400D02*X303000Y233900D01*
Y237300D02*Y238600D01*
X302300Y236600D02*X303000Y237300D01*
X299700Y236600D02*X302300D01*
X299700D02*X299000Y237300D01*
Y238600D01*
Y239800D02*X303000D01*
X301000D02*X299000Y241800D01*
X301000Y239800D02*X303000Y241800D01*
X283700Y127500D02*X285000D01*
X283000Y128200D02*X283700Y127500D01*
X283000Y130800D02*Y128200D01*
Y130800D02*X283700Y131500D01*
X285000D01*
X286200Y131000D02*Y128000D01*
Y131000D02*X286700Y131500D01*
X287700D01*
X288200Y131000D01*
Y128000D01*
X287700Y127500D02*X288200Y128000D01*
X286700Y127500D02*X287700D01*
X286200Y128000D02*X286700Y127500D01*
X289400Y131500D02*Y127500D01*
Y131500D02*X291900Y127500D01*
Y131500D02*Y127500D01*
X293100Y131500D02*Y127500D01*
Y131500D02*X295600Y127500D01*
Y131500D02*Y127500D01*
X296800Y130700D02*X297600Y131500D01*
Y127500D01*
X296800D02*X298300D01*
X286700Y199000D02*X288000D01*
X286000Y199700D02*X286700Y199000D01*
X286000Y202300D02*Y199700D01*
Y202300D02*X286700Y203000D01*
X288000D01*
X289200Y202500D02*Y199500D01*
Y202500D02*X289700Y203000D01*
X290700D01*
X291200Y202500D01*
Y199500D01*
X290700Y199000D02*X291200Y199500D01*
X289700Y199000D02*X290700D01*
X289200Y199500D02*X289700Y199000D01*
X292400Y203000D02*Y199000D01*
Y203000D02*X294900Y199000D01*
Y203000D02*Y199000D01*
X296100Y203000D02*Y199000D01*
Y203000D02*X298600Y199000D01*
Y203000D02*Y199000D01*
X299800Y202500D02*X300300Y203000D01*
X301300D01*
X301800Y202500D01*
X301300Y199000D02*X301800Y199500D01*
X300300Y199000D02*X301300D01*
X299800Y199500D02*X300300Y199000D01*
Y201200D02*X301300D01*
X301800Y202500D02*Y201700D01*
Y200700D02*Y199500D01*
Y200700D02*X301300Y201200D01*
X301800Y201700D02*X301300Y201200D01*
M02*
