G04 start of page 2 for group 9 layer_idx 7 *
G04 Title: (unknown), bottom_mask *
G04 Creator: pcb-rnd 2.3.0 *
G04 CreationDate: 2021-05-04 01:15:46 UTC *
G04 For:  *
G04 Format: Gerber/RS-274X *
G04 PCB-Dimensions: 600000 500000 *
G04 PCB-Coordinate-Origin: lower left *
%MOIN*%
%FSLAX25Y25*%
%LNBOTTOM_MASK_NONE_9*%
%ADD43C,0.0660*%
%ADD42C,0.0860*%
%ADD41C,0.0760*%
%ADD40C,0.0001*%
G54D40*G36*
X131700Y170500D02*X122700D01*
Y134500D01*
X131700D01*
Y170500D01*
G37*
G36*
X137700Y199300D02*X144300D01*
Y192700D01*
X137700D01*
Y199300D01*
G37*
G36*
X147300Y170500D02*X138300D01*
Y134500D01*
X147300D01*
Y170500D01*
G37*
G36*
X162900D02*X153900D01*
Y134500D01*
X162900D01*
Y170500D01*
G37*
G54D41*X151000Y196000D03*
X161000D03*
X171000D03*
X181000D03*
G54D42*X191000D03*
G54D40*G36*
X178500Y170500D02*X169500D01*
Y134500D01*
X178500D01*
Y170500D01*
G37*
G36*
X194100D02*X185100D01*
Y134500D01*
X194100D01*
Y170500D01*
G37*
G36*
X209700D02*X200700D01*
Y134500D01*
X209700D01*
Y170500D01*
G37*
G36*
X225300D02*X216300D01*
Y134500D01*
X225300D01*
Y170500D01*
G37*
G36*
X240900D02*X231900D01*
Y134500D01*
X240900D01*
Y170500D01*
G37*
G36*
X223200Y199300D02*X229800D01*
Y192700D01*
X223200D01*
Y199300D01*
G37*
G54D41*X236500Y196000D03*
X246500D03*
G54D40*G36*
X256500Y170500D02*X247500D01*
Y134500D01*
X256500D01*
Y170500D01*
G37*
G36*
X287700Y212300D02*X294300D01*
Y205700D01*
X287700D01*
Y212300D01*
G37*
G54D43*X291000Y219000D03*
X301000D03*
X311000Y209000D03*
Y219000D03*
G54D40*G36*
X272100Y170500D02*X263100D01*
Y134500D01*
X272100D01*
Y170500D01*
G37*
G54D43*X301000Y209000D03*
X321000D03*
Y219000D03*
X331000Y209000D03*
X341000D03*
X351000D03*
X361000D03*
X371000D03*
X381000D03*
X391000D03*
X401000D03*
X411000D03*
X421000D03*
X431000D03*
X331000Y219000D03*
X341000D03*
X351000D03*
X361000D03*
X371000D03*
X381000D03*
X391000D03*
X401000D03*
X411000D03*
X421000D03*
X431000D03*
G54D40*G36*
X287700Y170500D02*X278700D01*
Y134500D01*
X287700D01*
Y170500D01*
G37*
G36*
X303300D02*X294300D01*
Y134500D01*
X303300D01*
Y170500D01*
G37*
G36*
X318900D02*X309900D01*
Y134500D01*
X318900D01*
Y170500D01*
G37*
G36*
X334500D02*X325500D01*
Y134500D01*
X334500D01*
Y170500D01*
G37*
G36*
X350100D02*X341100D01*
Y134500D01*
X350100D01*
Y170500D01*
G37*
G36*
X365700D02*X356700D01*
Y134500D01*
X365700D01*
Y170500D01*
G37*
G36*
X381300D02*X372300D01*
Y134500D01*
X381300D01*
Y170500D01*
G37*
G36*
X396900D02*X387900D01*
Y134500D01*
X396900D01*
Y170500D01*
G37*
G36*
X412500D02*X403500D01*
Y134500D01*
X412500D01*
Y170500D01*
G37*
G36*
X428100D02*X419100D01*
Y134500D01*
X428100D01*
Y170500D01*
G37*
G36*
X443700D02*X434700D01*
Y134500D01*
X443700D01*
Y170500D01*
G37*
G36*
X459300D02*X450300D01*
Y134500D01*
X459300D01*
Y170500D01*
G37*
M02*
